<svg width="20" height="20" viewBox="0 0 20 20" fill="none" xmlns="http://www.w3.org/2000/svg">
<g clip-path="url(#clip0_19_271)">
<path fill-rule="evenodd" clip-rule="evenodd" d="M4.65914 10C4.65914 9.40458 4.75803 8.83375 4.93453 8.29833L1.84514 5.93916C1.24304 7.16166 0.903809 8.53916 0.903809 10C0.903809 11.4596 1.24262 12.8362 1.84389 14.0579L4.93161 11.6942C4.75677 11.1612 4.65914 10.5925 4.65914 10Z" fill="#FBBC05"/>
<path fill-rule="evenodd" clip-rule="evenodd" d="M10.0834 4.58333C11.3769 4.58333 12.5453 5.04166 13.4632 5.79166L16.1337 3.12499C14.5064 1.70833 12.4201 0.833328 10.0834 0.833328C6.4558 0.833328 3.33804 2.90791 1.84509 5.93916L4.93447 8.29833C5.64632 6.1375 7.67545 4.58333 10.0834 4.58333Z" fill="#EB4335"/>
<path fill-rule="evenodd" clip-rule="evenodd" d="M10.0834 15.4167C7.67545 15.4167 5.64632 13.8625 4.93447 11.7017L1.84509 14.0604C3.33804 17.0921 6.4558 19.1667 10.0834 19.1667C12.3225 19.1667 14.4601 18.3717 16.0644 16.8821L13.1319 14.615C12.3045 15.1362 11.2626 15.4167 10.0834 15.4167Z" fill="#34A853"/>
<path fill-rule="evenodd" clip-rule="evenodd" d="M18.8459 9.99998C18.8459 9.45831 18.7625 8.87498 18.6373 8.33331H10.0835V11.875H15.0071C14.761 13.0825 14.0908 14.0108 13.132 14.615L16.0645 16.8821C17.7498 15.3179 18.8459 12.9879 18.8459 9.99998Z" fill="#4285F4"/>
</g>
<defs>
<clipPath id="clip0_19_271">
<rect width="18.75" height="18.75" fill="white" transform="translate(0.625 0.625)"/>
</clipPath>
</defs>
</svg>
