<svg width="16" height="17" viewBox="0 0 16 17" fill="none" xmlns="http://www.w3.org/2000/svg">
<g clip-path="url(#clip0_13_5)">
<path d="M11.1934 3.62608C12.2788 3.62608 13.1586 2.81436 13.1586 1.81304C13.1586 0.811727 12.2788 0 11.1934 0C10.1081 0 9.22829 0.811727 9.22829 1.81304C9.22829 2.81436 10.1081 3.62608 11.1934 3.62608Z" fill="#0055A6"/>
<path d="M2.85282 11.736C1.28413 11.736 0 12.9208 0 14.368C0 15.8153 1.28413 17 2.85282 17C2.9079 17 2.96262 16.9984 3.01695 16.9955V16.9927C3.16098 16.9808 3.29497 16.9196 3.39258 16.8212C3.49019 16.7228 3.54435 16.5942 3.5444 16.4608C3.54438 16.3274 3.49024 16.1988 3.39262 16.1004C3.29501 16.0019 3.161 15.9408 3.01695 15.9289V15.9245C3.00588 15.9254 2.99476 15.9262 2.98362 15.927C2.97758 15.9268 2.97154 15.9267 2.96549 15.9267C2.9412 15.9268 2.91694 15.9283 2.89285 15.9312C2.87956 15.9316 2.8662 15.9318 2.85282 15.9318C1.9099 15.9318 1.15787 15.238 1.15787 14.368C1.15787 13.4981 1.9099 12.8042 2.85282 12.8042C2.90825 12.8042 2.96296 12.8068 3.01695 12.8115V12.8053C3.02373 12.8057 3.03051 12.8059 3.0373 12.8061C3.19084 12.8061 3.3381 12.7498 3.44667 12.6496C3.55525 12.5495 3.61625 12.4136 3.61626 12.272C3.61627 12.2018 3.60129 12.1324 3.5722 12.0675C3.5431 12.0027 3.50046 11.9439 3.44669 11.8942C3.39293 11.8446 3.32911 11.8053 3.25886 11.7785C3.18862 11.7516 3.11333 11.7378 3.0373 11.7378C3.02232 11.7378 3.00735 11.7384 2.99242 11.7395C2.94614 11.7373 2.89964 11.736 2.85282 11.736Z" fill="#00B246"/>
<path d="M13.8777 8.25101V9.69679C14.4814 10.3518 14.8421 11.1906 14.8421 12.104C14.8421 14.1946 12.9523 15.8947 10.5844 15.8947C9.23787 15.8947 8.22121 15.4525 7.2685 14.4862C7.12266 14.3516 6.49561 15.0703 6.49561 15.2856C7.49121 16.3134 8.95807 16.9629 10.5844 16.9629C13.5588 16.9629 16 14.7903 16 12.104C16 10.5334 15.1653 9.13879 13.8777 8.25101Z" fill="#00B246"/>
<path d="M10.2314 4.14948C10.0165 4.14961 9.80827 4.21869 9.64249 4.3449C9.4767 4.4711 9.36364 4.64657 9.32269 4.84123H9.3051V5.00403V8.251C9.3051 8.251 9.02501 8.92132 8.38268 9.01022C7.74034 9.09911 5.89371 9.15315 5.13889 9.76585C4.38407 10.3785 3.61332 14.1216 3.5812 14.4031C3.54908 14.6846 4.06294 15.0401 4.22353 15.0846C4.38411 15.129 5.49217 15.2772 5.65275 14.6401C5.81334 14.003 6.56382 11.7053 6.98558 11.4252C7.40735 11.145 9.24928 11.3359 10.0207 11.1585C10.7109 11.0992 11.1573 10.681 11.1577 10.6807L11.1577 5.00403V4.84123H11.1407C11.0997 4.64648 10.9866 4.47095 10.8207 4.34474C10.6548 4.21853 10.4464 4.14949 10.2314 4.14948Z" fill="#0055A6"/>
<path d="M12.084 4.14948C11.8691 4.14961 11.6609 4.21869 11.4951 4.3449C11.3293 4.4711 11.2163 4.64657 11.1753 4.84123H11.1577V5.00403V8.05436V10.6806C11.1577 11.3357 10.5919 11.858 9.85691 11.858C9.62825 11.858 9.41613 11.8072 9.23217 11.7178C9.08168 11.6273 8.90583 11.5791 8.72614 11.5791C8.6045 11.5791 8.48405 11.6012 8.37166 11.6441C8.25928 11.6871 8.15716 11.75 8.07114 11.8294C7.98513 11.9087 7.9169 12.0029 7.87035 12.1066C7.82379 12.2103 7.79983 12.3214 7.79984 12.4337C7.79987 12.5721 7.83636 12.7085 7.90617 12.8311C7.97599 12.9536 8.07703 13.0587 8.20061 13.1372L8.196 13.1435C8.73979 13.4523 9.64339 13.5672 9.85691 13.5672C11.582 13.5672 13.0103 12.2699 13.0103 10.6807L13.0103 5.00403V4.84123H12.9933C12.9523 4.64648 12.8392 4.47095 12.6733 4.34474C12.5074 4.21853 12.2991 4.14949 12.084 4.14948Z" fill="#00B147"/>
</g>
<defs>
<clipPath id="clip0_13_5">
<rect width="16" height="17" fill="white"/>
</clipPath>
</defs>
</svg>
