<svg width="369" height="217" viewBox="0 0 369 217" fill="none" xmlns="http://www.w3.org/2000/svg">
<g clip-path="url(#clip0_9_1431)">
<path d="M359.074 38.2301C359.391 35.9176 356.128 34.017 353.673 33.8163C352.501 33.7213 351.286 33.9008 350.178 33.5154C347.775 32.6759 346.82 29.5768 344.475 28.5895C342.722 27.8503 340.706 28.5103 339.011 29.3656C337.311 30.2209 335.637 31.2979 333.736 31.4194C332.084 31.525 330.294 30.9125 328.852 31.7203C327.775 32.3222 327.216 33.5629 326.223 34.2915C325.252 35.0095 323.99 35.1574 322.786 35.226C321.582 35.2894 320.336 35.3052 319.238 35.8068C318.14 36.3083 317.237 37.4699 317.464 38.6525L359.074 38.2407V38.2301Z" fill="#F5F5F5"/>
<path d="M57.9511 11.3724C58.2679 9.05992 55.005 7.15923 52.5499 6.9586C51.3778 6.86357 50.1634 7.04308 49.0547 6.65766C46.6524 5.81819 45.6967 2.71902 43.3525 1.73172C41.5996 0.992569 39.5827 1.65253 37.8879 2.50784C36.1878 3.36314 34.5141 4.4402 32.6134 4.56163C30.9608 4.66722 29.1709 4.05478 27.7295 4.86257C26.6525 5.46446 26.0875 6.70518 25.1002 7.43377C24.1287 8.15181 22.8668 8.29964 21.6631 8.36828C20.4593 8.43163 19.2132 8.44747 18.115 8.94904C17.0168 9.45061 16.114 10.6121 16.341 11.7948L57.9511 11.383V11.3724Z" fill="#F5F5F5"/>
<path d="M239.978 12.6712C240.384 9.73045 236.229 7.30707 233.109 7.05893C231.62 6.9375 230.073 7.16452 228.663 6.67351C225.606 5.60702 224.386 1.6631 221.408 0.406538C219.18 -0.533244 216.614 0.300944 214.455 1.38856C212.296 2.47617 210.162 3.84361 207.744 3.99672C205.643 4.12871 203.367 3.3526 201.53 4.37685C200.163 5.14241 199.444 6.71575 198.183 7.65025C196.947 8.55836 195.337 8.75371 193.806 8.83818C192.275 8.92266 190.691 8.93849 189.297 9.57734C187.903 10.2162 186.747 11.6892 187.037 13.1939L239.972 12.6712H239.978Z" fill="#EBEBEB"/>
<path d="M132.19 34.1701C132.523 31.7573 129.118 29.7774 126.562 29.5715C125.342 29.4712 124.075 29.6612 122.924 29.2547C120.422 28.3835 119.424 25.1471 116.979 24.1176C115.152 23.3467 113.051 24.0331 111.282 24.9254C109.514 25.8176 107.766 26.9369 105.786 27.0636C104.065 27.1745 102.201 26.5357 100.696 27.3751C99.5771 28.0034 98.9857 29.2917 97.9562 30.0572C96.9477 30.8016 95.6278 30.96 94.3712 31.0287C93.1146 31.0973 91.8158 31.1079 90.6753 31.6305C89.5349 32.1532 88.5898 33.3623 88.8274 34.5924L132.196 34.1648L132.19 34.1701Z" fill="#EBEBEB"/>
<path d="M267.121 215.728H310.225V33.452H267.121V215.728Z" fill="#EBEBEB"/>
<path d="M289.096 71.4763H302.195V46.2289H289.096V71.4763Z" fill="white"/>
<path d="M295.273 71.4763C295.368 71.4763 295.447 65.8217 295.447 58.8526C295.447 51.8834 295.368 46.2289 295.273 46.2289C295.178 46.2289 295.099 51.8781 295.099 58.8526C295.099 65.827 295.178 71.4763 295.273 71.4763Z" fill="#E0E0E0"/>
<path d="M289.095 54.9984C289.095 55.0934 292.026 55.1726 295.648 55.1726C299.27 55.1726 302.2 55.0934 302.2 54.9984C302.2 54.9034 299.27 54.8242 295.648 54.8242C292.026 54.8242 289.095 54.9034 289.095 54.9984Z" fill="#E0E0E0"/>
<path d="M289.027 64.0266C289.027 64.1217 291.984 64.2009 295.632 64.2009C299.28 64.2009 302.237 64.1217 302.237 64.0266C302.237 63.9316 299.28 63.8524 295.632 63.8524C291.984 63.8524 289.027 63.9316 289.027 64.0266Z" fill="#E0E0E0"/>
<path d="M289.096 104.448H302.195V79.2004H289.096V104.448Z" fill="white"/>
<path d="M295.273 104.448C295.368 104.448 295.447 98.7986 295.447 91.8241C295.447 84.8497 295.368 79.2004 295.273 79.2004C295.178 79.2004 295.099 84.8497 295.099 91.8241C295.099 98.7986 295.178 104.448 295.273 104.448Z" fill="#E0E0E0"/>
<path d="M289.095 87.9753C289.095 88.0703 292.026 88.1495 295.648 88.1495C299.27 88.1495 302.2 88.0703 302.2 87.9753C302.2 87.8802 299.27 87.801 295.648 87.801C292.026 87.801 289.095 87.8802 289.095 87.9753Z" fill="#E0E0E0"/>
<path d="M289.027 97.0035C289.027 97.0985 291.984 97.1777 295.632 97.1777C299.28 97.1777 302.237 97.0985 302.237 97.0035C302.237 96.9085 299.28 96.8293 295.632 96.8293C291.984 96.8293 289.027 96.9085 289.027 97.0035Z" fill="#E0E0E0"/>
<path d="M289.096 137.425H302.195V112.177H289.096V137.425Z" fill="white"/>
<path d="M295.273 137.425C295.368 137.425 295.447 131.77 295.447 124.801C295.447 117.832 295.368 112.177 295.273 112.177C295.178 112.177 295.099 117.827 295.099 124.801C295.099 131.775 295.178 137.425 295.273 137.425Z" fill="#E0E0E0"/>
<path d="M289.095 120.952C289.095 121.047 292.026 121.126 295.648 121.126C299.27 121.126 302.2 121.047 302.2 120.952C302.2 120.857 299.27 120.778 295.648 120.778C292.026 120.778 289.095 120.857 289.095 120.952Z" fill="#E0E0E0"/>
<path d="M289.027 129.98C289.027 130.075 291.984 130.155 295.632 130.155C299.28 130.155 302.237 130.075 302.237 129.98C302.237 129.885 299.28 129.806 295.632 129.806C291.984 129.806 289.027 129.885 289.027 129.98Z" fill="#E0E0E0"/>
<path d="M289.096 170.402H302.195V145.154H289.096V170.402Z" fill="white"/>
<path d="M295.273 170.402C295.368 170.402 295.447 164.752 295.447 157.778C295.447 150.803 295.368 145.154 295.273 145.154C295.178 145.154 295.099 150.803 295.099 157.778C295.099 164.752 295.178 170.402 295.273 170.402Z" fill="#E0E0E0"/>
<path d="M289.095 153.929C289.095 154.024 292.026 154.103 295.648 154.103C299.27 154.103 302.2 154.024 302.2 153.929C302.2 153.834 299.27 153.755 295.648 153.755C292.026 153.755 289.095 153.834 289.095 153.929Z" fill="#E0E0E0"/>
<path d="M289.027 162.957C289.027 163.052 291.984 163.131 295.632 163.131C299.28 163.131 302.237 163.052 302.237 162.957C302.237 162.862 299.28 162.783 295.632 162.783C291.984 162.783 289.027 162.862 289.027 162.957Z" fill="#E0E0E0"/>
<path d="M248.795 215.728H280.199V33.452H248.795L248.795 215.728Z" fill="#E0E0E0"/>
<path d="M257.348 71.4763H270.447V46.2289H257.348V71.4763Z" fill="white"/>
<path d="M263.525 71.4763C263.62 71.4763 263.7 65.8217 263.7 58.8526C263.7 51.8834 263.62 46.2289 263.525 46.2289C263.43 46.2289 263.351 51.8781 263.351 58.8526C263.351 65.827 263.43 71.4763 263.525 71.4763Z" fill="#E0E0E0"/>
<path d="M257.348 54.9984C257.348 55.0934 260.284 55.1726 263.9 55.1726C267.517 55.1726 270.452 55.0934 270.452 54.9984C270.452 54.9034 267.522 54.8242 263.9 54.8242C260.278 54.8242 257.348 54.9034 257.348 54.9984Z" fill="#E0E0E0"/>
<path d="M257.279 64.0266C257.279 64.1217 260.236 64.2009 263.884 64.2009C267.533 64.2009 270.489 64.1217 270.489 64.0266C270.489 63.9316 267.533 63.8524 263.884 63.8524C260.236 63.8524 257.279 63.9316 257.279 64.0266Z" fill="#E0E0E0"/>
<path d="M257.348 104.722H270.447V79.475H257.348V104.722Z" fill="white"/>
<path d="M263.525 104.722C263.62 104.722 263.7 99.0731 263.7 92.0987C263.7 85.1242 263.62 79.475 263.525 79.475C263.43 79.475 263.351 85.1242 263.351 92.0987C263.351 99.0731 263.43 104.722 263.525 104.722Z" fill="#E0E0E0"/>
<path d="M257.348 88.2445C257.348 88.3396 260.284 88.4188 263.9 88.4188C267.517 88.4188 270.452 88.3396 270.452 88.2445C270.452 88.1495 267.522 88.0703 263.9 88.0703C260.278 88.0703 257.348 88.1495 257.348 88.2445Z" fill="#E0E0E0"/>
<path d="M257.279 97.2728C257.279 97.3678 260.236 97.447 263.884 97.447C267.533 97.447 270.489 97.3678 270.489 97.2728C270.489 97.1777 267.533 97.0985 263.884 97.0985C260.236 97.0985 257.279 97.1777 257.279 97.2728Z" fill="#E0E0E0"/>
<path d="M257.348 137.969H270.447V112.721H257.348V137.969Z" fill="white"/>
<path d="M263.525 137.969C263.62 137.969 263.7 132.319 263.7 125.345C263.7 118.37 263.62 112.721 263.525 112.721C263.43 112.721 263.351 118.37 263.351 125.345C263.351 132.319 263.43 137.969 263.525 137.969Z" fill="#E0E0E0"/>
<path d="M257.348 121.491C257.348 121.586 260.284 121.665 263.9 121.665C267.517 121.665 270.452 121.586 270.452 121.491C270.452 121.396 267.522 121.316 263.9 121.316C260.278 121.316 257.348 121.396 257.348 121.491Z" fill="#E0E0E0"/>
<path d="M257.279 130.519C257.279 130.614 260.236 130.693 263.884 130.693C267.533 130.693 270.489 130.614 270.489 130.519C270.489 130.424 267.533 130.345 263.884 130.345C260.236 130.345 257.279 130.424 257.279 130.519Z" fill="#E0E0E0"/>
<path d="M257.348 171.215H270.447V145.967H257.348V171.215Z" fill="white"/>
<path d="M263.525 171.215C263.62 171.215 263.7 165.56 263.7 158.591C263.7 151.622 263.62 145.967 263.525 145.967C263.43 145.967 263.351 151.616 263.351 158.591C263.351 165.565 263.43 171.215 263.525 171.215Z" fill="#E0E0E0"/>
<path d="M257.348 154.737C257.348 154.832 260.284 154.911 263.9 154.911C267.517 154.911 270.452 154.832 270.452 154.737C270.452 154.642 267.522 154.563 263.9 154.563C260.278 154.563 257.348 154.642 257.348 154.737Z" fill="#E0E0E0"/>
<path d="M257.279 163.765C257.279 163.86 260.236 163.939 263.884 163.939C267.533 163.939 270.489 163.86 270.489 163.765C270.489 163.67 267.533 163.591 263.884 163.591C260.236 163.591 257.279 163.67 257.279 163.765Z" fill="#E0E0E0"/>
<path d="M289.096 203.378H302.195V178.131H289.096V203.378Z" fill="white"/>
<path d="M295.273 203.378C295.368 203.378 295.447 197.729 295.447 190.755C295.447 183.78 295.368 178.131 295.273 178.131C295.178 178.131 295.099 183.78 295.099 190.755C295.099 197.729 295.178 203.378 295.273 203.378Z" fill="#E0E0E0"/>
<path d="M289.095 186.901C289.095 186.996 292.026 187.075 295.648 187.075C299.27 187.075 302.2 186.996 302.2 186.901C302.2 186.806 299.27 186.726 295.648 186.726C292.026 186.726 289.095 186.806 289.095 186.901Z" fill="#E0E0E0"/>
<path d="M289.027 195.929C289.027 196.024 291.984 196.103 295.632 196.103C299.28 196.103 302.237 196.024 302.237 195.929C302.237 195.834 299.28 195.755 295.632 195.755C291.984 195.755 289.027 195.834 289.027 195.929Z" fill="#E0E0E0"/>
<path d="M257.348 204.461H270.447V179.213H257.348V204.461Z" fill="white"/>
<path d="M263.525 204.461C263.62 204.461 263.7 198.812 263.7 191.837C263.7 184.863 263.62 179.213 263.525 179.213C263.43 179.213 263.351 184.863 263.351 191.837C263.351 198.812 263.43 204.461 263.525 204.461Z" fill="#E0E0E0"/>
<path d="M257.348 187.983C257.348 188.078 260.284 188.157 263.9 188.157C267.517 188.157 270.452 188.078 270.452 187.983C270.452 187.888 267.522 187.809 263.9 187.809C260.278 187.809 257.348 187.888 257.348 187.983Z" fill="#E0E0E0"/>
<path d="M257.279 197.011C257.279 197.106 260.236 197.185 263.884 197.185C267.533 197.185 270.489 197.106 270.489 197.011C270.489 196.916 267.533 196.837 263.884 196.837C260.236 196.837 257.279 196.916 257.279 197.011Z" fill="#E0E0E0"/>
<path d="M325.753 215.733H350.774V109.918H325.753V215.733Z" fill="#EBEBEB"/>
<path d="M338.509 131.987H346.112V117.33H338.509V131.987Z" fill="white"/>
<path d="M342.094 131.987C342.152 131.987 342.194 128.708 342.194 124.658C342.194 120.609 342.147 117.33 342.094 117.33C342.041 117.33 341.994 120.609 341.994 124.658C341.994 128.708 342.041 131.987 342.094 131.987Z" fill="#E0E0E0"/>
<path d="M338.504 122.425C338.504 122.483 340.204 122.525 342.305 122.525C344.407 122.525 346.107 122.478 346.107 122.425C346.107 122.372 344.407 122.325 342.305 122.325C340.204 122.325 338.504 122.372 338.504 122.425Z" fill="#E0E0E0"/>
<path d="M338.467 127.663C338.467 127.721 340.183 127.763 342.3 127.763C344.417 127.763 346.133 127.715 346.133 127.663C346.133 127.61 344.417 127.562 342.3 127.562C340.183 127.562 338.467 127.61 338.467 127.663Z" fill="#E0E0E0"/>
<path d="M338.509 151.131H346.112V136.474H338.509V151.131Z" fill="white"/>
<path d="M342.094 151.131C342.152 151.131 342.194 147.852 342.194 143.803C342.194 139.753 342.147 136.474 342.094 136.474C342.041 136.474 341.994 139.753 341.994 143.803C341.994 147.852 342.041 151.131 342.094 151.131Z" fill="#E0E0E0"/>
<path d="M338.504 141.564C338.504 141.622 340.204 141.664 342.305 141.664C344.407 141.664 346.107 141.617 346.107 141.564C346.107 141.511 344.407 141.464 342.305 141.464C340.204 141.464 338.504 141.511 338.504 141.564Z" fill="#E0E0E0"/>
<path d="M338.467 146.807C338.467 146.865 340.183 146.907 342.3 146.907C344.417 146.907 346.133 146.859 346.133 146.807C346.133 146.754 344.417 146.706 342.3 146.706C340.183 146.706 338.467 146.754 338.467 146.807Z" fill="#E0E0E0"/>
<path d="M338.509 170.27H346.112V155.613H338.509V170.27Z" fill="white"/>
<path d="M342.094 170.275C342.152 170.275 342.194 166.996 342.194 162.947C342.194 158.897 342.147 155.618 342.094 155.618C342.041 155.618 341.994 158.897 341.994 162.947C341.994 166.996 342.041 170.275 342.094 170.275Z" fill="#E0E0E0"/>
<path d="M338.504 160.708C338.504 160.766 340.204 160.808 342.305 160.808C344.407 160.808 346.107 160.761 346.107 160.708C346.107 160.655 344.407 160.608 342.305 160.608C340.204 160.608 338.504 160.655 338.504 160.708Z" fill="#E0E0E0"/>
<path d="M338.467 165.951C338.467 166.009 340.183 166.051 342.3 166.051C344.417 166.051 346.133 166.004 346.133 165.951C346.133 165.898 344.417 165.85 342.3 165.85C340.183 165.85 338.467 165.898 338.467 165.951Z" fill="#E0E0E0"/>
<path d="M338.509 189.414H346.112V174.757H338.509V189.414Z" fill="white"/>
<path d="M342.094 189.414C342.152 189.414 342.194 186.135 342.194 182.085C342.194 178.036 342.147 174.757 342.094 174.757C342.041 174.757 341.994 178.036 341.994 182.085C341.994 186.135 342.041 189.414 342.094 189.414Z" fill="#E0E0E0"/>
<path d="M338.504 179.852C338.504 179.91 340.204 179.953 342.305 179.953C344.407 179.953 346.107 179.905 346.107 179.852C346.107 179.799 344.407 179.752 342.305 179.752C340.204 179.752 338.504 179.799 338.504 179.852Z" fill="#E0E0E0"/>
<path d="M338.467 185.095C338.467 185.153 340.183 185.195 342.3 185.195C344.417 185.195 346.133 185.148 346.133 185.095C346.133 185.042 344.417 184.995 342.3 184.995C340.183 184.995 338.467 185.042 338.467 185.095Z" fill="#E0E0E0"/>
<path d="M315.114 215.733H333.345V109.918H315.114V215.733Z" fill="#E0E0E0"/>
<path d="M320.077 131.987H327.68V117.33H320.077V131.987Z" fill="white"/>
<path d="M323.662 131.987C323.72 131.987 323.763 128.708 323.763 124.658C323.763 120.609 323.715 117.33 323.662 117.33C323.61 117.33 323.562 120.609 323.562 124.658C323.562 128.708 323.61 131.987 323.662 131.987Z" fill="#E0E0E0"/>
<path d="M320.077 122.425C320.077 122.483 321.777 122.525 323.879 122.525C325.98 122.525 327.68 122.478 327.68 122.425C327.68 122.372 325.98 122.325 323.879 122.325C321.777 122.325 320.077 122.372 320.077 122.425Z" fill="#E0E0E0"/>
<path d="M320.035 127.663C320.035 127.721 321.751 127.763 323.868 127.763C325.985 127.763 327.701 127.715 327.701 127.663C327.701 127.61 325.985 127.562 323.868 127.562C321.751 127.562 320.035 127.61 320.035 127.663Z" fill="#E0E0E0"/>
<path d="M320.077 151.284H327.68V136.627H320.077V151.284Z" fill="white"/>
<path d="M323.662 151.289C323.72 151.289 323.763 148.01 323.763 143.961C323.763 139.911 323.715 136.633 323.662 136.633C323.61 136.633 323.562 139.911 323.562 143.961C323.562 148.01 323.61 151.289 323.662 151.289Z" fill="#E0E0E0"/>
<path d="M320.077 141.722C320.077 141.78 321.777 141.823 323.879 141.823C325.98 141.823 327.68 141.775 327.68 141.722C327.68 141.67 325.98 141.622 323.879 141.622C321.777 141.622 320.077 141.67 320.077 141.722Z" fill="#E0E0E0"/>
<path d="M320.035 146.965C320.035 147.023 321.751 147.065 323.868 147.065C325.985 147.065 327.701 147.018 327.701 146.965C327.701 146.912 325.985 146.865 323.868 146.865C321.751 146.865 320.035 146.912 320.035 146.965Z" fill="#E0E0E0"/>
<path d="M320.077 170.586H327.68V155.93H320.077V170.586Z" fill="white"/>
<path d="M323.662 170.586C323.72 170.586 323.763 167.308 323.763 163.258C323.763 159.209 323.715 155.93 323.662 155.93C323.61 155.93 323.562 159.209 323.562 163.258C323.562 167.308 323.61 170.586 323.662 170.586Z" fill="#E0E0E0"/>
<path d="M320.077 161.025C320.077 161.083 321.777 161.125 323.879 161.125C325.98 161.125 327.68 161.078 327.68 161.025C327.68 160.972 325.98 160.925 323.879 160.925C321.777 160.925 320.077 160.972 320.077 161.025Z" fill="#E0E0E0"/>
<path d="M320.035 166.262C320.035 166.32 321.751 166.363 323.868 166.363C325.985 166.363 327.701 166.315 327.701 166.262C327.701 166.21 325.985 166.162 323.868 166.162C321.751 166.162 320.035 166.21 320.035 166.262Z" fill="#E0E0E0"/>
<path d="M320.077 189.884H327.68V175.227H320.077V189.884Z" fill="white"/>
<path d="M323.662 189.889C323.72 189.889 323.763 186.61 323.763 182.561C323.763 178.511 323.715 175.232 323.662 175.232C323.61 175.232 323.562 178.511 323.562 182.561C323.562 186.61 323.61 189.889 323.662 189.889Z" fill="#E0E0E0"/>
<path d="M320.077 180.322C320.077 180.38 321.777 180.422 323.879 180.422C325.98 180.422 327.68 180.375 327.68 180.322C327.68 180.269 325.98 180.222 323.879 180.222C321.777 180.222 320.077 180.269 320.077 180.322Z" fill="#E0E0E0"/>
<path d="M320.035 185.565C320.035 185.623 321.751 185.665 323.868 185.665C325.985 185.665 327.701 185.618 327.701 185.565C327.701 185.512 325.985 185.464 323.868 185.464C321.751 185.464 320.035 185.512 320.035 185.565Z" fill="#E0E0E0"/>
<path d="M338.509 208.558H346.112V193.901H338.509V208.558Z" fill="white"/>
<path d="M342.094 208.558C342.152 208.558 342.194 205.279 342.194 201.23C342.194 197.18 342.147 193.901 342.094 193.901C342.041 193.901 341.994 197.18 341.994 201.23C341.994 205.279 342.041 208.558 342.094 208.558Z" fill="#E0E0E0"/>
<path d="M338.504 198.996C338.504 199.054 340.204 199.097 342.305 199.097C344.407 199.097 346.107 199.049 346.107 198.996C346.107 198.944 344.407 198.896 342.305 198.896C340.204 198.896 338.504 198.944 338.504 198.996Z" fill="#E0E0E0"/>
<path d="M338.467 204.234C338.467 204.292 340.183 204.334 342.3 204.334C344.417 204.334 346.133 204.287 346.133 204.234C346.133 204.181 344.417 204.133 342.3 204.133C340.183 204.133 338.467 204.181 338.467 204.234Z" fill="#E0E0E0"/>
<path d="M320.077 209.186H327.68V194.53H320.077V209.186Z" fill="white"/>
<path d="M323.662 209.186C323.72 209.186 323.763 205.907 323.763 201.858C323.763 197.808 323.715 194.53 323.662 194.53C323.61 194.53 323.562 197.808 323.562 201.858C323.562 205.907 323.61 209.186 323.662 209.186Z" fill="#E0E0E0"/>
<path d="M320.077 199.625C320.077 199.683 321.777 199.725 323.879 199.725C325.98 199.725 327.68 199.677 327.68 199.625C327.68 199.572 325.98 199.524 323.879 199.524C321.777 199.524 320.077 199.572 320.077 199.625Z" fill="#E0E0E0"/>
<path d="M320.035 204.862C320.035 204.92 321.751 204.962 323.868 204.962C325.985 204.962 327.701 204.915 327.701 204.862C327.701 204.809 325.985 204.762 323.868 204.762C321.751 204.762 320.035 204.809 320.035 204.862Z" fill="#E0E0E0"/>
<path d="M26.0558 106.808H0V217H26.0558V106.808Z" fill="#EBEBEB"/>
<path d="M12.7774 114.532H4.85767V129.796H12.7774V114.532Z" fill="white"/>
<path d="M9.03901 129.796C8.98093 129.796 8.93341 126.38 8.93341 122.166C8.93341 117.953 8.98093 114.537 9.03901 114.537C9.09708 114.537 9.1446 117.953 9.1446 122.166C9.1446 126.38 9.09708 129.796 9.03901 129.796Z" fill="#E0E0E0"/>
<path d="M12.7771 119.838C12.7771 119.896 11.0031 119.944 8.81727 119.944C6.63144 119.944 4.85742 119.896 4.85742 119.838C4.85742 119.78 6.63144 119.733 8.81727 119.733C11.0031 119.733 12.7771 119.78 12.7771 119.838Z" fill="#E0E0E0"/>
<path d="M12.8194 125.292C12.8194 125.35 11.0295 125.398 8.82783 125.398C6.62616 125.398 4.8363 125.35 4.8363 125.292C4.8363 125.234 6.62616 125.186 8.82783 125.186C11.0295 125.186 12.8194 125.234 12.8194 125.292Z" fill="#E0E0E0"/>
<path d="M12.7774 134.468H4.85767V149.732H12.7774V134.468Z" fill="white"/>
<path d="M9.03901 149.732C8.98093 149.732 8.93341 146.316 8.93341 142.102C8.93341 137.889 8.98093 134.473 9.03901 134.473C9.09708 134.473 9.1446 137.889 9.1446 142.102C9.1446 146.316 9.09708 149.732 9.03901 149.732Z" fill="#E0E0E0"/>
<path d="M12.7771 139.769C12.7771 139.827 11.0031 139.874 8.81727 139.874C6.63144 139.874 4.85742 139.827 4.85742 139.769C4.85742 139.711 6.63144 139.663 8.81727 139.663C11.0031 139.663 12.7771 139.711 12.7771 139.769Z" fill="#E0E0E0"/>
<path d="M12.8194 145.228C12.8194 145.286 11.0295 145.334 8.82783 145.334C6.62616 145.334 4.8363 145.286 4.8363 145.228C4.8363 145.17 6.62616 145.122 8.82783 145.122C11.0295 145.122 12.8194 145.17 12.8194 145.228Z" fill="#E0E0E0"/>
<path d="M12.7774 154.404H4.85767V169.668H12.7774V154.404Z" fill="white"/>
<path d="M9.03901 169.662C8.98093 169.662 8.93341 166.246 8.93341 162.033C8.93341 157.82 8.98093 154.404 9.03901 154.404C9.09708 154.404 9.1446 157.82 9.1446 162.033C9.1446 166.246 9.09708 169.662 9.03901 169.662Z" fill="#E0E0E0"/>
<path d="M12.7771 159.705C12.7771 159.763 11.0031 159.811 8.81727 159.811C6.63144 159.811 4.85742 159.763 4.85742 159.705C4.85742 159.647 6.63144 159.599 8.81727 159.599C11.0031 159.599 12.7771 159.647 12.7771 159.705Z" fill="#E0E0E0"/>
<path d="M12.8194 165.164C12.8194 165.222 11.0295 165.27 8.82783 165.27C6.62616 165.27 4.8363 165.222 4.8363 165.164C4.8363 165.106 6.62616 165.059 8.82783 165.059C11.0295 165.059 12.8194 165.106 12.8194 165.164Z" fill="#E0E0E0"/>
<path d="M12.7774 174.335H4.85767V189.598H12.7774V174.335Z" fill="white"/>
<path d="M9.03901 189.598C8.98093 189.598 8.93341 186.183 8.93341 181.969C8.93341 177.756 8.98093 174.34 9.03901 174.34C9.09708 174.34 9.1446 177.756 9.1446 181.969C9.1446 186.183 9.09708 189.598 9.03901 189.598Z" fill="#E0E0E0"/>
<path d="M12.7771 179.641C12.7771 179.699 11.0031 179.747 8.81727 179.747C6.63144 179.747 4.85742 179.699 4.85742 179.641C4.85742 179.583 6.63144 179.535 8.81727 179.535C11.0031 179.535 12.7771 179.583 12.7771 179.641Z" fill="#E0E0E0"/>
<path d="M12.8194 185.095C12.8194 185.153 11.0295 185.2 8.82783 185.2C6.62616 185.2 4.8363 185.153 4.8363 185.095C4.8363 185.037 6.62616 184.989 8.82783 184.989C11.0295 184.989 12.8194 185.037 12.8194 185.095Z" fill="#E0E0E0"/>
<path d="M37.1381 106.808H18.152V217H37.1381V106.808Z" fill="#E0E0E0"/>
<path d="M31.9694 114.532H24.0497V129.796H31.9694V114.532Z" fill="white"/>
<path d="M28.2311 129.796C28.173 129.796 28.1255 126.38 28.1255 122.166C28.1255 117.953 28.173 114.537 28.2311 114.537C28.2892 114.537 28.3367 117.953 28.3367 122.166C28.3367 126.38 28.2892 129.796 28.2311 129.796Z" fill="#E0E0E0"/>
<path d="M31.9692 119.838C31.9692 119.896 30.1952 119.944 28.0094 119.944C25.8235 119.944 24.0495 119.896 24.0495 119.838C24.0495 119.78 25.8235 119.733 28.0094 119.733C30.1952 119.733 31.9692 119.78 31.9692 119.838Z" fill="#E0E0E0"/>
<path d="M32.0114 125.292C32.0114 125.35 30.2216 125.398 28.0199 125.398C25.8182 125.398 24.0284 125.35 24.0284 125.292C24.0284 125.234 25.8182 125.186 28.0199 125.186C30.2216 125.186 32.0114 125.234 32.0114 125.292Z" fill="#E0E0E0"/>
<path d="M31.9694 134.632H24.0497V149.895H31.9694V134.632Z" fill="white"/>
<path d="M28.2311 149.895C28.173 149.895 28.1255 146.479 28.1255 142.266C28.1255 138.053 28.173 134.637 28.2311 134.637C28.2892 134.637 28.3367 138.053 28.3367 142.266C28.3367 146.479 28.2892 149.895 28.2311 149.895Z" fill="#E0E0E0"/>
<path d="M31.9692 139.933C31.9692 139.991 30.1952 140.038 28.0094 140.038C25.8235 140.038 24.0495 139.991 24.0495 139.933C24.0495 139.874 25.8235 139.827 28.0094 139.827C30.1952 139.827 31.9692 139.874 31.9692 139.933Z" fill="#E0E0E0"/>
<path d="M32.0114 145.392C32.0114 145.45 30.2216 145.497 28.0199 145.497C25.8182 145.497 24.0284 145.45 24.0284 145.392C24.0284 145.334 25.8182 145.286 28.0199 145.286C30.2216 145.286 32.0114 145.334 32.0114 145.392Z" fill="#E0E0E0"/>
<path d="M31.9694 154.731H24.0497V169.995H31.9694V154.731Z" fill="white"/>
<path d="M28.2311 169.99C28.173 169.99 28.1255 166.574 28.1255 162.361C28.1255 158.147 28.173 154.731 28.2311 154.731C28.2892 154.731 28.3367 158.147 28.3367 162.361C28.3367 166.574 28.2892 169.99 28.2311 169.99Z" fill="#E0E0E0"/>
<path d="M31.9692 160.032C31.9692 160.09 30.1952 160.138 28.0094 160.138C25.8235 160.138 24.0495 160.09 24.0495 160.032C24.0495 159.974 25.8235 159.927 28.0094 159.927C30.1952 159.927 31.9692 159.974 31.9692 160.032Z" fill="#E0E0E0"/>
<path d="M32.0114 165.491C32.0114 165.55 30.2216 165.597 28.0199 165.597C25.8182 165.597 24.0284 165.55 24.0284 165.491C24.0284 165.433 25.8182 165.386 28.0199 165.386C30.2216 165.386 32.0114 165.433 32.0114 165.491Z" fill="#E0E0E0"/>
<path d="M31.9694 174.826H24.0497V190.089H31.9694V174.826Z" fill="white"/>
<path d="M28.2311 190.089C28.173 190.089 28.1255 186.674 28.1255 182.46C28.1255 178.247 28.173 174.831 28.2311 174.831C28.2892 174.831 28.3367 178.247 28.3367 182.46C28.3367 186.674 28.2892 190.089 28.2311 190.089Z" fill="#E0E0E0"/>
<path d="M31.9692 180.132C31.9692 180.19 30.1952 180.238 28.0094 180.238C25.8235 180.238 24.0495 180.19 24.0495 180.132C24.0495 180.074 25.8235 180.026 28.0094 180.026C30.1952 180.026 31.9692 180.074 31.9692 180.132Z" fill="#E0E0E0"/>
<path d="M32.0114 185.586C32.0114 185.644 30.2216 185.692 28.0199 185.692C25.8182 185.692 24.0284 185.644 24.0284 185.586C24.0284 185.528 25.8182 185.48 28.0199 185.48C30.2216 185.48 32.0114 185.528 32.0114 185.586Z" fill="#E0E0E0"/>
<path d="M12.7774 194.271H4.85767V209.535H12.7774V194.271Z" fill="white"/>
<path d="M9.03901 209.535C8.98093 209.535 8.93341 206.119 8.93341 201.905C8.93341 197.692 8.98093 194.276 9.03901 194.276C9.09708 194.276 9.1446 197.692 9.1446 201.905C9.1446 206.119 9.09708 209.535 9.03901 209.535Z" fill="#E0E0E0"/>
<path d="M12.7771 199.572C12.7771 199.63 11.0031 199.677 8.81727 199.677C6.63144 199.677 4.85742 199.63 4.85742 199.572C4.85742 199.514 6.63144 199.466 8.81727 199.466C11.0031 199.466 12.7771 199.514 12.7771 199.572Z" fill="#E0E0E0"/>
<path d="M12.8194 205.031C12.8194 205.089 11.0295 205.137 8.82783 205.137C6.62616 205.137 4.8363 205.089 4.8363 205.031C4.8363 204.973 6.62616 204.925 8.82783 204.925C11.0295 204.925 12.8194 204.973 12.8194 205.031Z" fill="#E0E0E0"/>
<path d="M31.9694 194.926H24.0497V210.189H31.9694V194.926Z" fill="white"/>
<path d="M28.2311 210.189C28.173 210.189 28.1255 206.773 28.1255 202.56C28.1255 198.347 28.173 194.931 28.2311 194.931C28.2892 194.931 28.3367 198.347 28.3367 202.56C28.3367 206.773 28.2892 210.189 28.2311 210.189Z" fill="#E0E0E0"/>
<path d="M31.9692 200.226C31.9692 200.285 30.1952 200.332 28.0094 200.332C25.8235 200.332 24.0495 200.285 24.0495 200.226C24.0495 200.168 25.8235 200.121 28.0094 200.121C30.1952 200.121 31.9692 200.168 31.9692 200.226Z" fill="#E0E0E0"/>
<path d="M32.0114 205.686C32.0114 205.744 30.2216 205.791 28.0199 205.791C25.8182 205.791 24.0284 205.744 24.0284 205.686C24.0284 205.628 25.8182 205.58 28.0199 205.58C30.2216 205.58 32.0114 205.628 32.0114 205.686Z" fill="#E0E0E0"/>
<path d="M357.86 215.485C357.86 215.559 278.156 215.622 179.856 215.622C81.5571 215.622 1.83734 215.559 1.83734 215.485C1.83734 215.411 81.5254 215.347 179.856 215.347C278.187 215.347 357.86 215.411 357.86 215.485Z" fill="#263238"/>
<path d="M347.812 149.146H40.6228V186.156H347.812V149.146Z" fill="#455A64"/>
<path d="M38.4739 46.3556C31.8213 46.2869 25.7654 50.479 23.7644 56.8252C23.6852 57.0786 23.6113 57.332 23.5373 57.596C20.6282 68.1501 14.8045 97.9855 16.2618 131.823C17.719 165.66 21.7211 183.49 21.7211 183.49L55.195 187.856C55.195 187.856 57.3914 159.879 83.2255 159.879C115.628 159.879 115.147 191.621 115.147 191.621L287.607 194.53C287.607 194.53 288.055 176.531 299.708 165.972C306.656 159.673 315.099 160.154 320.083 160.317C329.085 160.613 340.563 166.236 343.52 178.062C346.006 188.004 347.015 195.137 347.015 195.137L361.26 192.228L357.2 149.288L355.378 144.558C355.378 144.558 286.973 77.9703 276.419 69.9663C265.864 61.9623 253.494 47.4062 234.212 47.7705C216.556 48.1031 64.1337 46.609 38.4739 46.3503V46.3556Z" fill="#E0E0E0"/>
<path d="M14.7623 152.123C14.7623 152.123 14.9735 178.004 17.7085 185.164C17.7085 185.164 51.2141 188.447 55.1898 187.856C55.1898 187.856 56.8212 172.867 66.4885 165.323L57.4812 155.909L14.7623 152.123Z" fill="#0055A6"/>
<path d="M119.878 172.872L123.204 184.868L280.553 187.93L282.675 174.472L119.878 172.872Z" fill="#0055A6"/>
<path d="M336.651 166.737L342.052 149.146H357.928C357.928 149.146 365.558 151.791 367.268 156.463C368.979 161.13 369.76 177.476 368.044 184.482L364.618 191.953L347.01 195.638C347.01 195.638 345.969 188.954 344.729 183.152C343.319 176.558 341.915 171.721 336.651 166.737Z" fill="#0055A6"/>
<path d="M248.167 77.7011C248.008 78.4878 249.582 112.304 250.21 115.604C250.838 118.909 253.515 127.874 272.702 128.814C291.889 129.759 318.789 129.759 318.789 129.759L317.131 119.511C317.131 119.511 293.964 94.3479 288.378 89.4009C284.259 85.7526 282.454 81.6344 272.232 80.0611C262.01 78.4878 248.167 77.7011 248.167 77.7011Z" fill="#455A64"/>
<path d="M248.167 77.701C248.167 77.701 248.309 77.701 248.589 77.7116C248.874 77.7274 249.286 77.7485 249.83 77.7802C250.923 77.8435 252.533 77.9439 254.618 78.1022C258.784 78.4349 264.851 78.8836 272.364 79.9924C274.238 80.2933 276.202 80.721 278.166 81.4496C280.13 82.1623 282.058 83.2711 283.758 84.7652C285.474 86.2488 286.978 88.0492 288.789 89.6278C290.569 91.2645 292.311 93.0437 294.106 94.8705C301.25 102.209 309.006 110.525 317.232 119.421L317.258 119.453V119.495C317.791 122.752 318.356 126.221 318.926 129.743L318.953 129.901H318.789C316.096 129.885 313.224 129.875 310.32 129.859C303.15 129.801 296.155 129.695 289.396 129.532C286.017 129.452 282.696 129.352 279.449 129.231C277.823 129.162 276.218 129.099 274.629 129.03C273.837 128.988 273.045 128.972 272.258 128.909C271.472 128.845 270.69 128.787 269.919 128.724C266.825 128.391 263.821 127.858 261.023 126.886C258.235 125.92 255.674 124.463 253.71 122.483C251.72 120.53 250.5 117.98 250.088 115.435C249.772 112.874 249.655 110.419 249.492 108.075C248.927 98.6983 248.599 91.1008 248.383 85.8528C248.277 83.2288 248.209 81.1909 248.172 79.8076C248.161 79.1212 248.151 78.5933 248.145 78.2342C248.156 77.8699 248.167 77.6957 248.167 77.6957C248.167 77.6957 248.167 77.8858 248.167 78.229C248.177 78.588 248.198 79.1159 248.219 79.8023C248.277 81.1909 248.367 83.2235 248.478 85.8475C248.726 91.0955 249.085 98.6877 249.677 108.059C249.845 110.398 249.967 112.864 250.284 115.393C250.696 117.9 251.899 120.392 253.863 122.314C255.801 124.257 258.33 125.693 261.097 126.649C263.869 127.61 266.857 128.138 269.935 128.465C270.706 128.523 271.482 128.587 272.269 128.645C273.05 128.708 273.842 128.724 274.634 128.766C276.223 128.829 277.828 128.893 279.455 128.961C282.702 129.078 286.023 129.173 289.402 129.252C296.16 129.41 303.156 129.516 310.326 129.574C313.224 129.59 316.096 129.6 318.789 129.616L318.652 129.774C318.082 126.253 317.522 122.779 316.994 119.527L317.026 119.595C308.805 110.694 301.054 102.373 293.927 95.0289C292.142 93.1968 290.4 91.4176 288.631 89.7862C286.809 88.1917 285.305 86.3861 283.61 84.913C281.926 83.4294 280.03 82.3313 278.087 81.6185C276.144 80.8899 274.196 80.457 272.327 80.156C264.824 79.0262 258.758 78.5457 254.597 78.1867C252.517 78.0283 250.912 77.9016 249.814 77.8171C249.275 77.7802 248.863 77.7485 248.578 77.7274C248.299 77.7063 248.156 77.6904 248.156 77.6904L248.167 77.701Z" fill="#263238"/>
<path d="M277.955 81.4654C278.05 82.3577 280.885 129.151 280.885 129.151H285.563L283.472 84.6543C281.588 83.1338 279.75 82.1042 277.955 81.4654Z" fill="#263238"/>
<path d="M312.548 113.693C312.701 113.925 316.371 118.08 319 121.829C320.743 124.31 321.635 127.288 321.582 130.324H310.516L312.548 113.698V113.693Z" fill="#263238"/>
<path d="M312.881 144.526L25.248 140.878L25.3853 123.692L250.785 126.174L259.449 131.079C263.356 132.937 268.557 133.755 272.876 134.003C277.211 134.252 282.174 134.035 286.017 134.12L312.601 134.626L312.881 144.521V144.526Z" fill="#00B147"/>
<path d="M249.518 128.027H248.209C246.042 128.027 244.286 129.783 244.286 131.95V138.676C244.286 140.842 246.042 142.599 248.209 142.599H249.518C251.685 142.599 253.441 140.842 253.441 138.676V131.95C253.441 129.783 251.685 128.027 249.518 128.027Z" fill="#263238"/>
<path d="M226.218 127.462H224.909C222.742 127.462 220.986 129.218 220.986 131.385V138.111C220.986 140.278 222.742 142.034 224.909 142.034H226.218C228.385 142.034 230.141 140.278 230.141 138.111V131.385C230.141 129.218 228.385 127.462 226.218 127.462Z" fill="#263238"/>
<path d="M131.921 117.504H30.8182V121.433H131.921V117.504Z" fill="#EBEBEB"/>
<path d="M131.921 121.433C131.921 121.433 131.911 121.116 131.905 120.472C131.905 119.822 131.895 118.846 131.884 117.504L131.921 117.541C120.358 117.6 79.4452 117.642 30.8235 117.642L30.9608 117.504C30.9608 118.851 30.9608 120.192 30.9608 121.433L30.8235 121.295C58.9226 121.316 84.1759 121.338 102.412 121.353C111.536 121.369 118.906 121.385 124.001 121.396C126.546 121.406 128.521 121.411 129.867 121.417C130.533 121.417 131.045 121.422 131.398 121.427C131.742 121.427 131.926 121.438 131.926 121.438C131.926 121.438 131.757 121.443 131.42 121.448C131.071 121.448 130.569 121.454 129.91 121.459C128.568 121.459 126.604 121.47 124.075 121.48C118.991 121.491 111.631 121.506 102.518 121.522C84.2551 121.538 58.9648 121.559 30.8235 121.58H30.6862V121.443C30.6862 120.202 30.6862 118.861 30.6862 117.515V117.378H30.8288C79.4505 117.378 120.364 117.42 131.926 117.478H131.963V117.515C131.953 118.867 131.948 119.849 131.942 120.503C131.937 121.147 131.926 121.443 131.926 121.443L131.921 121.433Z" fill="#263238"/>
<path d="M32.1857 117.33H27.9143V121.602H32.1857V117.33Z" fill="#263238"/>
<path d="M132.597 117.33H125.87V121.602H132.597V117.33Z" fill="#263238"/>
<path d="M239.444 73.0654C239.444 73.1394 191.731 73.0813 132.882 72.9335C74.0175 72.7856 26.3093 72.6008 26.3093 72.5269C26.3093 72.453 74.0123 72.5111 132.882 72.6589C191.731 72.8067 239.444 72.9915 239.444 73.0654Z" fill="#263238"/>
<path d="M16.4202 106.481L25.248 116.005V103.878L17.1857 95.8842L16.4202 106.481Z" fill="#00B147"/>
<path d="M18.8119 81.8086L25.248 87.178V76.7454L20.8341 71.9198C20.8341 71.9198 18.4001 79.1793 18.8119 81.8086Z" fill="#00B147"/>
<path d="M16.1931 114.02L25.248 126.818V153.053L17.5659 152.371C17.5659 152.371 16.4677 140.455 16.2565 132.583C16.0453 124.711 16.1931 114.015 16.1931 114.015V114.02Z" fill="#00B147"/>
<path d="M16.4202 125.53L19.6989 129.046L20.7179 147.319H17.1593L16.4202 125.53Z" fill="#E0E0E0"/>
<path d="M313.145 152.54L25.248 151.363V145.751L312.987 147.789L313.145 152.54Z" fill="#00B147"/>
<path d="M56.4728 36.9841H46.9269V46.5298H56.4728V36.9841Z" fill="#455A64"/>
<path d="M231.298 37.5174H219.355C216.926 37.5174 214.957 39.4864 214.957 41.9154V43.3778C214.957 45.8068 216.926 47.7758 219.355 47.7758H231.298C233.727 47.7758 235.696 45.8068 235.696 43.3778V41.9154C235.696 39.4864 233.727 37.5174 231.298 37.5174Z" fill="#455A64"/>
<path d="M137.502 75.7845C137.502 75.7845 137.37 75.795 137.106 75.8003C136.837 75.8003 136.446 75.8056 135.939 75.8162C134.91 75.8214 133.399 75.832 131.462 75.8425C127.565 75.8531 121.942 75.8689 114.994 75.8848C101.082 75.8953 81.8792 75.9112 60.6702 75.927C49.2606 75.927 38.437 75.9165 28.7961 75.9165L28.9228 75.7898C29.0125 89.0681 29.0864 100.309 29.1445 108.233C29.1604 112.188 29.1762 115.313 29.1868 117.462C29.1868 118.523 29.1868 119.347 29.1868 119.907C29.1868 120.176 29.1868 120.387 29.1868 120.535C29.1868 120.678 29.1762 120.746 29.1762 120.746C29.1762 120.746 29.1709 120.672 29.1656 120.535C29.1656 120.387 29.1551 120.176 29.1498 119.907C29.1392 119.342 29.1287 118.523 29.1076 117.462C29.0812 115.313 29.0442 112.188 28.9967 108.233C28.9175 100.309 28.8066 89.0681 28.6746 75.7898V75.663H28.8013C38.4423 75.663 49.2658 75.6525 60.6755 75.6525C81.8845 75.6683 101.087 75.6842 114.999 75.6947C121.948 75.7106 127.571 75.7264 131.467 75.737C133.405 75.7475 134.91 75.7581 135.944 75.7634C136.451 75.7686 136.837 75.7739 137.111 75.7792C137.375 75.7792 137.507 75.795 137.507 75.795L137.502 75.7845Z" fill="#263238"/>
<path d="M87.5602 77.9544H77.2171V116.005H87.5602V77.9544Z" fill="#00B147"/>
<path d="M63.9818 103.423L69.1534 112.381L102.107 93.3552L96.9354 84.398L63.9818 103.423Z" fill="#00B147"/>
<path d="M95.4162 112.05L101.117 103.42L69.3685 82.4463L63.6673 91.0761L95.4162 112.05Z" fill="#00B147"/>
<path d="M234.175 119.469L135.95 119.22L135.031 75.7845H234.175V119.469Z" fill="#263238"/>
<path d="M307.216 104.944H305.204C301.863 104.944 299.154 107.653 299.154 110.995V129.769C299.154 133.111 301.863 135.82 305.204 135.82H307.216C310.558 135.82 313.266 133.111 313.266 129.769V110.995C313.266 107.653 310.558 104.944 307.216 104.944Z" fill="#263238"/>
<path d="M307.216 135.825C307.216 135.825 307.496 135.809 308.018 135.735C308.536 135.661 309.317 135.487 310.178 134.98C311.033 134.484 311.994 133.639 312.596 132.351C312.897 131.712 313.108 130.978 313.156 130.181C313.193 129.384 313.156 128.518 313.166 127.62C313.156 124.014 313.15 119.733 313.134 114.976C313.134 113.788 313.134 112.568 313.134 111.322C313.182 110.092 312.865 108.841 312.168 107.774C311.471 106.723 310.426 105.852 309.185 105.43C308.567 105.213 307.913 105.092 307.253 105.087C306.577 105.087 305.891 105.087 305.204 105.087C303.863 105.097 302.538 105.551 301.519 106.375C300.505 107.193 299.755 108.328 299.465 109.564C299.307 110.182 299.27 110.799 299.28 111.438C299.28 112.072 299.28 112.705 299.28 113.328C299.28 114.574 299.28 115.794 299.28 116.982C299.27 121.739 299.259 126.026 299.249 129.632C299.201 131.422 299.961 132.979 300.959 133.972C301.962 134.975 303.134 135.482 304.106 135.661C305.088 135.836 305.88 135.762 306.408 135.793C306.661 135.799 306.862 135.804 307.01 135.809C307.147 135.809 307.216 135.82 307.216 135.825C307.216 135.83 307.147 135.836 307.01 135.841C306.862 135.841 306.661 135.851 306.408 135.857C305.88 135.846 305.093 135.936 304.085 135.777C303.092 135.609 301.883 135.112 300.848 134.088C299.819 133.08 299.022 131.48 299.053 129.637C299.043 126.031 299.037 121.744 299.022 116.987C299.022 115.799 299.022 114.574 299.022 113.334C299.022 112.711 299.022 112.082 299.022 111.443C299.006 110.815 299.048 110.139 299.212 109.5C299.513 108.207 300.294 107.019 301.355 106.164C302.422 105.298 303.805 104.823 305.209 104.812C305.896 104.812 306.577 104.812 307.258 104.812C307.95 104.812 308.636 104.944 309.28 105.171C310.579 105.615 311.672 106.523 312.395 107.621C313.119 108.73 313.451 110.06 313.398 111.317C313.398 112.563 313.398 113.782 313.398 114.97C313.388 119.727 313.377 124.014 313.367 127.615C313.356 128.518 313.383 129.368 313.335 130.186C313.277 131.005 313.055 131.765 312.738 132.414C312.105 133.729 311.112 134.579 310.236 135.07C309.349 135.572 308.557 135.73 308.029 135.783C307.501 135.841 307.221 135.814 307.221 135.814L307.216 135.825Z" fill="#455A64"/>
<path d="M85.5891 215.663C100.283 214.96 111.625 202.478 110.922 187.784C110.219 173.091 97.7366 161.749 83.0424 162.452C68.3483 163.155 57.0064 175.637 57.7096 190.331C58.4129 205.025 70.8949 216.367 85.5891 215.663Z" fill="#263238"/>
<path d="M57.6976 188.601C57.6976 188.601 57.6976 188.648 57.6976 188.669C57.4864 203.378 69.2393 215.474 83.9435 215.685C98.653 215.897 110.749 204.144 110.96 189.44C110.96 189.419 110.96 189.393 110.96 189.371L57.7029 188.606L57.6976 188.601Z" fill="#263238"/>
<path d="M65.6279 188.785C65.4801 199.112 73.7271 207.602 84.0544 207.75C94.3817 207.898 102.872 199.651 103.019 189.324C103.167 178.997 94.9203 170.507 84.593 170.359C74.2657 170.212 65.7758 178.458 65.6279 188.785Z" fill="#FAFAFA"/>
<path d="M84.593 170.354C74.2657 170.206 65.7758 178.453 65.6279 188.78L103.025 189.319C103.173 178.992 94.9255 170.502 84.5983 170.354H84.593Z" fill="#E0E0E0"/>
<path d="M72.9351 188.891C72.8454 195.179 77.8718 200.353 84.16 200.443C90.4482 200.533 95.6224 195.506 95.7122 189.218C95.802 182.93 90.7756 177.756 84.4874 177.666C78.1991 177.577 73.0249 182.603 72.9351 188.891Z" fill="#263238"/>
<path d="M343.825 190.036C344.372 175.336 332.898 162.975 318.197 162.429C303.496 161.882 291.135 173.356 290.589 188.056C290.042 202.757 301.516 215.117 316.217 215.664C330.918 216.21 343.278 204.737 343.825 190.036Z" fill="#263238"/>
<path d="M290.59 188.601C290.59 188.601 290.59 188.648 290.59 188.669C290.379 203.378 302.131 215.474 316.836 215.685C331.545 215.897 343.641 204.144 343.852 189.44C343.852 189.419 343.852 189.393 343.852 189.371L290.595 188.606L290.59 188.601Z" fill="#263238"/>
<path d="M298.52 188.785C298.372 199.112 306.619 207.602 316.946 207.75C327.274 207.898 335.764 199.651 335.911 189.324C336.059 178.997 327.812 170.507 317.485 170.359C307.158 170.211 298.668 178.458 298.52 188.785Z" fill="#FAFAFA"/>
<path d="M317.485 170.354C307.158 170.206 298.668 178.453 298.52 188.78L335.917 189.319C336.065 178.992 327.818 170.502 317.49 170.354H317.485Z" fill="#E0E0E0"/>
<path d="M305.827 188.891C305.737 195.179 310.764 200.353 317.052 200.443C323.34 200.533 328.515 195.506 328.604 189.218C328.694 182.93 323.668 177.756 317.379 177.666C311.091 177.577 305.917 182.603 305.827 188.891Z" fill="#263238"/>
<path d="M119.878 172.872C119.878 172.872 119.846 172.814 119.799 172.698C119.746 172.566 119.677 172.397 119.593 172.176C119.503 171.943 119.392 171.658 119.265 171.325C119.123 170.993 118.959 170.613 118.774 170.185C118.394 169.335 117.893 168.306 117.259 167.144C116.599 165.998 115.834 164.694 114.851 163.348C112.903 160.661 110.237 157.625 106.567 155.175C102.887 152.773 98.2676 151.025 93.2729 150.101C88.2677 149.177 83.368 149.172 78.9911 149.652C74.6036 150.138 70.7229 151.073 67.5286 152.018C64.3291 152.973 61.8001 153.929 60.063 154.615C59.2077 154.959 58.5371 155.233 58.0672 155.423C57.8508 155.513 57.6765 155.581 57.5498 155.629C57.4337 155.677 57.3703 155.698 57.3703 155.692C57.3703 155.692 57.4284 155.661 57.5393 155.603C57.666 155.545 57.8349 155.465 58.0461 155.37C58.4949 155.164 59.1602 154.879 60.0208 154.515C61.7473 153.797 64.271 152.815 67.4706 151.833C70.6701 150.861 74.556 149.906 78.9647 149.399C83.3628 148.897 88.2888 148.897 93.3257 149.827C98.3521 150.761 102.998 152.519 106.71 154.964C110.406 157.445 113.072 160.518 115.01 163.232C115.987 164.594 116.742 165.909 117.396 167.07C118.019 168.247 118.505 169.282 118.875 170.143C119.049 170.576 119.207 170.961 119.339 171.294C119.466 171.632 119.561 171.922 119.646 172.154C119.719 172.376 119.783 172.55 119.825 172.682C119.862 172.804 119.883 172.867 119.878 172.867V172.872Z" fill="#263238"/>
<path d="M355.827 162.419C355.827 162.419 355.753 162.371 355.616 162.266C355.473 162.149 355.273 161.996 355.014 161.79C354.745 161.585 354.433 161.31 354.032 161.025C353.631 160.74 353.166 160.412 352.648 160.043C350.531 158.612 347.342 156.706 343.134 154.927C338.942 153.137 333.747 151.368 327.775 150.439C321.82 149.431 315.072 149.811 308.303 151.405C306.614 151.817 304.961 152.308 303.377 152.91C301.793 153.507 300.257 154.177 298.826 154.969C295.933 156.511 293.414 158.485 291.318 160.645C289.222 162.809 287.554 165.169 286.234 167.498C284.909 169.831 283.927 172.139 283.156 174.287C281.635 178.596 280.991 182.265 280.627 184.789C280.542 185.422 280.468 185.982 280.405 186.473C280.357 186.959 280.315 187.37 280.278 187.714C280.247 188.041 280.215 188.294 280.199 188.474C280.178 188.643 280.162 188.733 280.162 188.733C280.162 188.733 280.162 188.643 280.173 188.474C280.183 188.289 280.204 188.036 280.225 187.708C280.252 187.37 280.284 186.953 280.326 186.468C280.384 185.977 280.447 185.412 280.521 184.778C280.854 182.244 281.466 178.564 282.976 174.229C283.737 172.07 284.713 169.747 286.039 167.392C287.358 165.043 289.032 162.662 291.139 160.476C293.245 158.295 295.785 156.3 298.705 154.742C300.151 153.94 301.693 153.264 303.288 152.662C304.882 152.055 306.545 151.558 308.245 151.147C315.051 149.542 321.836 149.167 327.823 150.196C333.815 151.147 339.021 152.936 343.219 154.753C347.432 156.564 350.616 158.501 352.717 159.964C353.235 160.339 353.694 160.676 354.09 160.967C354.486 161.257 354.797 161.542 355.056 161.753C355.304 161.965 355.5 162.128 355.642 162.25C355.774 162.361 355.838 162.424 355.838 162.424L355.827 162.419Z" fill="#263238"/>
<path d="M25.248 153.29C25.1741 153.29 25.1107 130.64 25.1107 102.706C25.1107 74.7708 25.1741 52.1157 25.248 52.1157C25.3219 52.1157 25.3853 74.7602 25.3853 102.706C25.3853 130.651 25.3219 153.29 25.248 153.29Z" fill="#263238"/>
<path d="M313.013 110.139C313.013 110.139 312.918 110.039 312.738 109.844C312.554 109.643 312.29 109.342 311.936 108.951C311.228 108.159 310.178 106.993 308.816 105.472C306.065 102.442 302.079 97.9644 296.778 92.4946C294.117 89.7756 291.06 86.856 287.427 84.0577C283.8 81.2648 279.518 78.6777 274.576 76.8034C273.964 76.5553 273.33 76.3547 272.696 76.1329C272.063 75.9112 271.403 75.7581 270.753 75.568C269.434 75.2459 268.077 74.9714 266.688 74.7602C263.916 74.3273 261.039 74.0263 258.087 73.8046C252.174 73.3717 245.944 73.1763 239.45 73.1869L239.571 73.0602C240.094 84.7071 240.638 97.3308 241.123 110.667C241.234 114.004 241.34 117.383 241.451 120.799C241.546 124.22 241.646 127.678 241.62 131.179C241.62 132.055 241.651 132.921 241.678 133.798C241.746 134.669 241.82 135.545 241.894 136.427C242.089 138.18 242.285 139.938 242.533 141.701C243.003 145.228 243.557 148.781 244.133 152.356C245.257 159.298 246.461 166.125 247.612 172.825C248.188 176.178 248.763 179.493 249.244 182.788C249.376 183.611 249.46 184.44 249.545 185.269C249.629 186.082 249.713 186.901 249.993 187.661C250.252 188.421 250.653 189.139 251.266 189.635C251.873 190.121 252.697 190.348 253.446 190.221H253.467H253.478C263.779 190.306 273.663 190.385 283.045 190.459L282.923 190.549C284.185 185.945 285.41 181.468 286.598 177.123C287.211 174.947 288.029 172.867 289.053 170.935C289.571 169.974 290.12 169.034 290.759 168.168C291.081 167.735 291.398 167.308 291.714 166.88C291.878 166.669 292.026 166.447 292.195 166.246L292.728 165.655C295.51 162.477 298.884 160.043 302.459 158.485C303.335 158.063 304.254 157.757 305.146 157.419C305.6 157.282 306.054 157.139 306.508 157.002C306.957 156.859 307.416 156.769 307.87 156.648C309.687 156.231 311.487 155.941 313.277 155.904L313.182 156.004C312.696 141.728 312.39 130.25 312.337 122.341C312.316 118.386 312.353 115.319 312.506 113.249C312.575 112.214 312.691 111.428 312.828 110.915C312.892 110.662 312.939 110.467 312.976 110.335C313.008 110.203 313.029 110.139 313.029 110.139C313.029 110.139 312.981 110.409 312.855 110.921C312.728 111.438 312.622 112.22 312.559 113.254C312.422 115.324 312.401 118.386 312.438 122.341C312.522 130.25 312.86 141.728 313.367 155.999V156.094H313.272C311.514 156.131 309.713 156.421 307.913 156.843C307.464 156.96 307.01 157.055 306.561 157.197C306.112 157.334 305.664 157.472 305.209 157.614C304.322 157.947 303.414 158.253 302.543 158.675C298.995 160.228 295.653 162.651 292.897 165.803L292.369 166.389C292.2 166.59 292.052 166.811 291.894 167.023C291.577 167.445 291.266 167.873 290.949 168.3C290.315 169.156 289.771 170.09 289.259 171.046C288.24 172.962 287.432 175.027 286.825 177.186C285.643 181.526 284.418 186.008 283.166 190.612L283.14 190.707H283.045C273.663 190.639 263.779 190.565 253.478 190.485H253.51C252.654 190.628 251.773 190.375 251.102 189.847C250.437 189.308 250.009 188.537 249.74 187.751C249.455 186.959 249.365 186.119 249.281 185.29C249.196 184.472 249.112 183.654 248.98 182.83C248.499 179.541 247.924 176.225 247.348 172.872C246.192 166.173 244.988 159.346 243.863 152.403C243.283 148.829 242.734 145.276 242.264 141.743C242.016 139.98 241.82 138.217 241.625 136.459C241.551 135.577 241.482 134.7 241.408 133.819C241.377 132.937 241.35 132.055 241.35 131.179C241.377 127.689 241.276 124.231 241.181 120.81C241.07 117.394 240.965 114.015 240.854 110.678C240.379 97.3414 239.84 84.7177 239.328 73.0707V72.944H239.45C245.954 72.9334 252.19 73.1394 258.108 73.5776C261.065 73.8046 263.948 74.1108 266.73 74.549C268.124 74.7602 269.486 75.04 270.812 75.3621C271.466 75.5574 272.132 75.7106 272.77 75.9376C273.404 76.1646 274.043 76.3652 274.655 76.6134C279.618 78.5088 283.911 81.1117 287.543 83.9204C291.181 86.7345 294.233 89.6647 296.889 92.3943C302.179 97.8852 306.149 102.378 308.884 105.425C310.236 106.956 311.276 108.133 311.978 108.925C312.321 109.321 312.585 109.622 312.765 109.828C312.939 110.028 313.024 110.139 313.024 110.139H313.013Z" fill="#263238"/>
<path d="M38.4739 46.3556C39.1022 46.3608 75.6701 46.6671 138.399 47.195C154.086 47.3112 171.372 47.4326 190.073 47.5699C199.423 47.6121 209.128 47.6596 219.164 47.7072C224.18 47.7177 229.286 47.723 234.465 47.6702C239.661 47.6016 244.951 48.6681 249.861 50.7958C254.798 52.8865 259.349 55.9329 263.668 59.3172C268.003 62.6962 272.084 66.5028 276.545 69.9293C280.949 73.472 285.104 77.3842 289.365 81.2859C293.61 85.2034 297.87 89.2054 302.168 93.2655C319.343 109.511 337.121 126.659 355.468 144.473L355.489 144.494L355.5 144.521C356.064 145.983 356.687 147.614 357.321 149.251V149.267L357.332 149.283C358.615 162.852 359.993 177.418 361.392 192.222L361.402 192.344L361.281 192.37C356.819 193.284 351.941 194.276 347.036 195.279L346.893 195.306L346.872 195.158C346.503 192.513 346.001 189.857 345.463 187.202C344.914 184.546 344.322 181.88 343.652 179.224C342.997 176.574 341.915 174.013 340.436 171.685C338.958 169.361 337.052 167.292 334.834 165.623C330.383 162.26 324.76 160.576 319.127 160.407C316.308 160.333 313.446 160.434 310.653 160.925C307.855 161.394 305.146 162.413 302.765 163.976C300.299 165.613 298.129 167.683 296.239 169.937C294.354 172.202 292.95 174.831 291.82 177.54C290.695 180.253 289.845 183.073 289.18 185.924C288.52 188.77 288.013 191.658 287.733 194.546L287.723 194.672H287.596C226.107 193.627 167.882 192.64 115.137 191.747H115.015V191.621C114.936 187.402 114.107 183.221 112.708 179.314C111.293 175.412 109.192 171.774 106.393 168.802C104.989 167.324 103.421 166.025 101.742 164.9C100.042 163.813 98.2412 162.904 96.3669 162.192C92.6182 160.777 88.6425 160.175 84.7249 160.043L83.2519 159.995L81.7841 160.043C80.8073 160.043 79.8411 160.196 78.8749 160.286C78.3945 160.339 77.9193 160.449 77.4441 160.529C76.9689 160.613 76.4884 160.692 76.0291 160.83L74.63 161.194L73.2678 161.664C71.4726 162.34 69.7409 163.174 68.1728 164.24C66.5994 165.307 65.1633 166.547 63.8803 167.92C61.3037 170.666 59.4083 173.944 58.0092 177.334C56.6258 180.739 55.686 184.298 55.3006 187.861L55.2901 187.972L55.1792 187.956C43.5478 186.436 32.381 184.979 21.7052 183.58L21.6366 183.569L21.6208 183.5C20.475 177.93 19.7042 172.445 19.0178 167.086C18.3473 161.727 17.8299 156.49 17.4075 151.395C17.1805 148.85 17.0221 146.332 16.8373 143.855C16.6947 141.374 16.5205 138.935 16.4096 136.527C16.2987 134.12 16.1615 131.754 16.1087 129.421C16.0717 128.254 16.04 127.098 16.0031 125.952C15.9767 124.806 15.9872 123.666 15.9767 122.541C15.9239 113.518 16.341 105.129 16.9957 97.4312C17.6556 89.7334 18.5532 82.7273 19.5722 76.4603C20.5912 70.1933 21.7158 64.6655 22.8879 59.9191C23.2047 58.7417 23.4634 57.5907 23.833 56.5242C23.928 56.2602 24.0231 55.9963 24.1181 55.7375C24.2184 55.4788 24.3451 55.236 24.456 54.9878C24.6672 54.4863 24.9523 54.0428 25.2005 53.5887C26.2775 51.82 27.6292 50.4737 28.9544 49.46C31.6524 47.4432 34.2236 46.7991 35.8921 46.5192C36.7421 46.4084 37.3862 46.345 37.8245 46.3503C38.2416 46.345 38.4316 46.3397 38.4792 46.3397C38.4316 46.3397 38.2469 46.3503 37.8245 46.3661C37.3915 46.3661 36.7474 46.4295 35.8973 46.5456C34.2289 46.8307 31.6682 47.4801 28.9861 49.5023C27.6661 50.5107 26.3251 51.857 25.2533 53.6204C25.0051 54.0692 24.72 54.5179 24.5141 55.0142C24.4032 55.2624 24.2818 55.5052 24.1815 55.7587C24.0864 56.0174 23.9914 56.2814 23.8964 56.5453C23.5321 57.6066 23.2733 58.7575 22.9618 59.9349C21.8003 64.6813 20.6862 70.2091 19.6725 76.4761C18.6641 82.7431 17.7718 89.7439 17.1171 97.4417C16.4677 105.134 16.0664 113.524 16.1245 122.541C16.1351 123.666 16.1245 124.806 16.1562 125.952C16.1931 127.098 16.2248 128.254 16.2618 129.421C16.3146 131.749 16.4518 134.12 16.568 136.522C16.6789 138.929 16.8531 141.369 17.0009 143.845C17.1857 146.321 17.3494 148.834 17.5764 151.379C18.0041 156.474 18.5215 161.706 19.1973 167.065C19.889 172.418 20.6651 177.909 21.8108 183.458L21.7264 183.384C32.4021 184.773 43.5742 186.23 55.2003 187.74L55.0789 187.84C55.4696 184.24 56.4094 180.671 57.8032 177.244C59.2129 173.828 61.1137 170.528 63.7166 167.762C65.0102 166.378 66.4621 165.122 68.0461 164.045C69.6353 162.963 71.3776 162.118 73.1886 161.437L74.5666 160.962L75.9763 160.592C76.4462 160.455 76.9267 160.375 77.4071 160.291C77.8876 160.212 78.3681 160.101 78.8538 160.048C79.8253 159.958 80.7968 159.805 81.7841 159.805L83.2572 159.758L84.7355 159.805C88.6742 159.937 92.671 160.539 96.4514 161.965C98.3363 162.683 100.153 163.601 101.874 164.694C103.563 165.829 105.147 167.144 106.567 168.633C109.397 171.626 111.509 175.296 112.935 179.224C114.345 183.163 115.179 187.349 115.263 191.615L115.142 191.489C167.887 192.376 226.113 193.352 287.601 194.382L287.464 194.509C287.749 191.599 288.251 188.712 288.916 185.85C289.586 182.994 290.437 180.158 291.572 177.424C292.707 174.699 294.122 172.049 296.033 169.752C297.944 167.477 300.12 165.396 302.622 163.733C305.035 162.149 307.786 161.109 310.616 160.639C312.026 160.375 313.451 160.254 314.877 160.164C315.59 160.133 316.302 160.096 317.015 160.096L318.082 160.085L319.148 160.117C324.824 160.286 330.51 161.986 335.009 165.391C337.258 167.081 339.185 169.171 340.679 171.521C342.173 173.87 343.266 176.463 343.926 179.139C344.597 181.806 345.188 184.472 345.737 187.133C346.276 189.794 346.777 192.449 347.147 195.11L346.983 194.994C351.888 193.991 356.772 192.999 361.228 192.085L361.122 192.233C359.723 177.434 358.345 162.867 357.068 149.293L357.078 149.33C356.45 147.694 355.822 146.062 355.262 144.6L355.294 144.647C336.952 126.834 319.18 109.685 302.01 93.4344C297.717 89.3744 293.457 85.3724 289.212 81.4496C284.956 77.5479 280.79 73.6304 276.413 70.1035C271.936 66.6612 267.86 62.8598 263.536 59.4861C259.228 56.1071 254.692 53.0713 249.782 50.9911C244.893 48.874 239.645 47.8128 234.476 47.8814C229.296 47.9342 224.191 47.9289 219.175 47.9131C209.138 47.8603 199.434 47.8128 190.083 47.7652C171.382 47.6174 154.096 47.4801 138.41 47.3587C107.037 47.0578 82.0586 46.8202 64.9151 46.6565C47.798 46.4612 38.796 46.3556 38.4844 46.3556H38.4739Z" fill="#263238"/>
<path d="M55.5224 156.843C55.5224 156.843 55.4168 156.938 55.195 157.091C54.9575 157.255 54.6354 157.477 54.2341 157.757C53.817 158.047 53.3366 158.443 52.7611 158.876C52.4759 159.098 52.1908 159.356 51.874 159.62C51.5625 159.884 51.2299 160.164 50.8973 160.481C48.1993 162.931 44.8044 166.774 41.816 171.589L41.7685 171.663L41.684 171.653C41.2194 171.6 40.7284 171.547 40.2268 171.494C34.2554 170.829 28.8488 170.227 24.9048 169.789C22.9671 169.562 21.3885 169.372 20.2639 169.24C19.7359 169.171 19.3188 169.119 19.002 169.076C18.7169 169.034 18.5638 169.013 18.5638 169.002C18.5638 168.992 18.7169 169.002 19.0073 169.024C19.3188 169.05 19.7412 169.087 20.2744 169.134C21.399 169.245 22.983 169.404 24.9207 169.594C28.8647 170.011 34.2765 170.586 40.2479 171.22C40.7442 171.273 41.2405 171.331 41.7051 171.378L41.5732 171.447C44.5879 166.6 48.0198 162.772 50.7653 160.338C51.0979 160.022 51.4411 159.747 51.7579 159.488C52.08 159.23 52.3703 158.971 52.6607 158.755C53.2468 158.327 53.7431 157.942 54.1708 157.667C54.5879 157.403 54.9152 157.197 55.1634 157.039C55.3904 156.896 55.5118 156.828 55.5171 156.838L55.5224 156.843Z" fill="#455A64"/>
<path d="M336.086 125.873C335.23 125.852 334.481 143.106 355.378 144.558C355.378 144.558 355.14 126.358 336.086 125.873Z" fill="#00B147"/>
<path d="M234.175 192.164C234.175 192.164 234.17 191.937 234.164 191.489C234.164 191.04 234.159 190.375 234.154 189.503C234.154 187.751 234.143 185.169 234.133 181.816C234.122 175.111 234.112 165.344 234.096 153.095C234.085 128.581 234.069 94.1261 234.048 54.3279L234.18 54.4599C218.615 54.4071 201.878 54.349 184.598 54.2856C167.38 54.2223 150.707 54.1589 135.189 54.1008L135.321 53.9688C135.353 73.8943 135.633 92.4841 135.897 109.157C136.203 125.831 136.478 140.587 136.699 152.862C136.958 165.127 137.159 174.905 137.301 181.621C137.37 184.973 137.428 187.561 137.46 189.313C137.475 190.185 137.486 190.85 137.497 191.299C137.502 191.747 137.497 191.974 137.497 191.974C137.497 191.974 137.481 191.747 137.47 191.299C137.454 190.85 137.439 190.185 137.412 189.313C137.365 187.561 137.296 184.973 137.206 181.621C137.048 174.905 136.815 165.132 136.525 152.862C136.256 140.593 135.95 125.836 135.659 109.163C135.379 92.4894 135.084 73.8996 135.047 53.9688V53.8369H135.179C150.691 53.8896 167.364 53.9477 184.587 54.0111C201.868 54.0744 218.605 54.1378 234.17 54.1959H234.302V54.3279C234.281 94.1261 234.265 128.581 234.254 153.095C234.238 165.349 234.223 175.111 234.217 181.816C234.207 185.164 234.201 187.751 234.196 189.503C234.196 190.375 234.186 191.04 234.186 191.489C234.186 191.932 234.175 192.164 234.175 192.164Z" fill="#263238"/>
<path d="M183.41 111.005C183.367 110.942 189.36 107.014 196.789 102.236C204.217 97.4576 210.273 93.6351 210.316 93.6984C210.358 93.7618 204.371 97.6899 196.937 102.468C189.508 107.246 183.452 111.069 183.41 111.005Z" fill="#455A64"/>
<path d="M183.853 105.947C183.811 105.884 187.554 103.234 192.211 100.023C196.868 96.8134 200.68 94.2633 200.722 94.3267C200.764 94.3901 197.026 97.0405 192.364 100.25C187.708 103.461 183.895 106.011 183.853 105.947Z" fill="#455A64"/>
<path d="M183.621 99.1312C183.584 99.0626 184.978 98.2601 186.725 97.3308C188.478 96.4016 189.925 95.7047 189.962 95.7733C189.999 95.842 188.605 96.6445 186.857 97.5737C185.105 98.5029 183.658 99.1998 183.621 99.1312Z" fill="#455A64"/>
<path d="M220.981 185.797C222.348 186.388 223.357 187.656 223.858 189.06C224.365 190.464 224.407 191.995 224.238 193.479C223.911 196.346 222.285 199.239 220.532 201.531C218.119 199.424 217.565 195.749 217.396 193.864C217.137 190.892 218.473 185.354 220.975 185.797" fill="#00B147"/>
<path d="M223.341 206.256C222.955 204.635 223.626 202.856 224.872 201.752C226.118 200.644 227.855 200.174 229.513 200.3C230.279 200.358 231.113 200.585 231.551 201.214C231.963 201.805 231.915 202.629 231.583 203.268C231.25 203.906 230.669 204.382 230.062 204.767C227.971 206.082 225.706 206.963 223.341 206.256Z" fill="#00B147"/>
<path d="M220.247 215.047C220.247 215.047 220.268 214.835 220.331 214.46C220.405 214.049 220.506 213.51 220.622 212.866C220.891 211.536 221.229 209.63 222.264 207.782C223.283 205.939 224.714 204.577 225.912 203.901C226.509 203.558 227.031 203.352 227.401 203.241C227.581 203.178 227.734 203.157 227.829 203.13C227.929 203.109 227.982 203.104 227.982 203.109C227.998 203.157 227.148 203.31 225.986 204.023C224.824 204.719 223.446 206.061 222.443 207.877C221.43 209.688 221.065 211.567 220.764 212.892C220.616 213.558 220.5 214.101 220.405 214.471C220.316 214.841 220.252 215.047 220.242 215.041L220.247 215.047Z" fill="#263238"/>
<path d="M220.337 190.1C220.337 190.1 220.352 190.19 220.368 190.359C220.379 190.549 220.395 190.797 220.411 191.098C220.448 191.742 220.484 192.671 220.521 193.817C220.595 196.114 220.653 199.287 220.638 202.798C220.622 206.303 220.537 209.482 220.442 211.778C220.395 212.924 220.347 213.853 220.31 214.497C220.289 214.798 220.273 215.047 220.257 215.237C220.242 215.406 220.231 215.495 220.226 215.495C220.22 215.495 220.215 215.406 220.215 215.237C220.215 215.047 220.22 214.798 220.226 214.497C220.242 213.827 220.263 212.908 220.294 211.778C220.352 209.482 220.411 206.309 220.426 202.803C220.442 199.297 220.405 196.124 220.368 193.827C220.352 192.698 220.337 191.774 220.326 191.108C220.326 190.808 220.326 190.559 220.326 190.369C220.326 190.2 220.331 190.111 220.337 190.111V190.1Z" fill="#263238"/>
<path d="M219.165 208.003C218.615 204.535 216.276 201.399 213.109 199.883C212.301 199.498 211.25 199.244 210.585 199.846C209.92 200.448 210.067 201.525 210.395 202.359C211.746 205.833 215.379 208.283 219.106 208.241" fill="#00B147"/>
<path d="M213.505 202.597C213.505 202.597 213.695 202.666 214.017 202.819C214.18 202.898 214.381 202.993 214.598 203.125C214.814 203.262 215.078 203.394 215.337 203.59C215.601 203.774 215.896 203.975 216.181 204.223C216.482 204.455 216.773 204.741 217.079 205.036C217.676 205.649 218.272 206.383 218.784 207.227C219.286 208.077 219.65 208.948 219.909 209.767C220.025 210.179 220.136 210.569 220.194 210.944C220.273 211.314 220.305 211.668 220.337 211.99C220.379 212.312 220.368 212.602 220.379 212.861C220.389 213.114 220.379 213.336 220.358 213.515C220.331 213.874 220.31 214.07 220.294 214.07C220.247 214.07 220.331 213.273 220.189 212.005C220.147 211.689 220.11 211.34 220.02 210.976C219.956 210.606 219.84 210.226 219.724 209.82C219.465 209.022 219.101 208.167 218.605 207.333C218.103 206.504 217.517 205.781 216.942 205.168C216.646 204.873 216.361 204.587 216.071 204.35C215.796 204.096 215.511 203.896 215.252 203.706C214.217 202.961 213.489 202.634 213.51 202.592L213.505 202.597Z" fill="#263238"/>
</g>
<defs>
<clipPath id="clip0_9_1431">
<rect width="369" height="217" fill="white"/>
</clipPath>
</defs>
</svg>
