<svg width="339" height="385" viewBox="0 0 339 385" fill="none" xmlns="http://www.w3.org/2000/svg">
<g clip-path="url(#clip0_9_720)">
<path d="M289.43 35.77C271.13 6.95 227.98 -9.96 198.01 6.39C197.48 6.68 196.95 6.97 196.42 7.27C153.93 31.45 183.93 85.66 150.37 115.23C116.81 144.8 69.45 133.15 37.13 180.88C8.09999 223.75 59.39 328.54 179.67 257.7C275.9 201.02 344.03 121.75 289.43 35.77Z" fill="#E8E3C5"/>
<path d="M28.77 235.93C31.22 239.79 30.08 244.91 26.22 247.36C22.36 249.81 17.24 248.67 14.79 244.81C12.34 240.95 13.48 235.83 17.34 233.38C21.2 230.93 26.32 232.07 28.77 235.93Z" fill="#E8E3C5"/>
<path d="M152.92 77.42C156.69 76.28 160.66 78.41 161.8 82.17C162.94 85.94 160.81 89.91 157.05 91.05C153.28 92.19 149.31 90.06 148.17 86.3C147.03 82.53 149.16 78.56 152.92 77.42Z" fill="#E8E3C5"/>
<path d="M321.071 110.162C324.954 109.543 327.6 105.893 326.981 102.01C326.362 98.1267 322.712 95.4807 318.828 96.0999C314.945 96.7192 312.299 100.369 312.918 104.252C313.538 108.136 317.188 110.782 321.071 110.162Z" fill="#E8E3C5"/>
<path d="M146.21 97.83C148.48 97.14 150.88 98.42 151.56 100.69C152.25 102.96 150.97 105.36 148.7 106.04C146.43 106.73 144.03 105.45 143.35 103.18C142.66 100.91 143.94 98.51 146.21 97.83Z" fill="#E8E3C5"/>
<path d="M21.74 217.51C23.33 219.63 22.66 222.66 20.31 223.9C18.46 224.88 16.14 224.36 14.88 222.69C13.29 220.57 13.96 217.54 16.31 216.3C18.16 215.32 20.48 215.84 21.74 217.51Z" fill="#E8E3C5"/>
<path d="M321.26 82.23C322.91 83.94 322.86 86.65 321.15 88.3C319.44 89.95 316.73 89.9 315.08 88.19C313.43 86.48 313.48 83.77 315.19 82.12C316.9 80.47 319.61 80.52 321.26 82.23Z" fill="#E8E3C5"/>
<path d="M338.15 379.27C338.15 382.41 267.48 384.96 180.31 384.96C93.14 384.96 22.47 382.41 22.47 379.27C22.47 376.13 93.14 373.58 180.31 373.58C267.48 373.58 338.15 376.13 338.15 379.27Z" fill="#C6BF9E"/>
<path d="M140.34 350.49V380.55H152.82L159.94 355L162.58 345.53L140.34 350.49Z" fill="#06602B"/>
<g style="mix-blend-mode:multiply" opacity="0.5">
<path d="M140.34 350.49V358.16C146 357.53 154.06 356.1 159.94 354.99L162.58 345.52L140.34 350.48V350.49Z" fill="#06602B"/>
</g>
<path d="M70.08 350.49V380.55H57.61L50.48 355L47.84 345.53L70.08 350.49Z" fill="#06602B"/>
<g style="mix-blend-mode:multiply" opacity="0.5">
<path d="M70.08 350.49V358.16C64.42 357.53 56.36 356.1 50.48 354.99L47.84 345.52L70.08 350.48V350.49Z" fill="#06602B"/>
</g>
<path d="M12.3 173.18C13.51 185.86 24.16 232.05 29.52 254.82C30.05 257.09 30.54 259.13 30.95 260.88C31.96 265.15 32.57 267.69 32.57 267.69L147.35 265.28C147.35 265.28 147.67 263.81 148.23 261.21C152.33 242 169.27 160.97 164.8 153.08C164.48 152.53 164.02 151.98 163.42 151.44C162.99 151.06 162.5 150.68 161.94 150.31C161.38 149.94 160.76 149.57 160.07 149.21C151.76 144.82 134.44 141.17 114.77 139.02C91.57 136.47 65.11 136.01 46.33 138.88C45.79 138.96 45.26 139.05 44.74 139.14C43.37 139.37 42.06 139.6 40.8 139.84C16.18 144.5 11.42 151.2 11.26 160.69C11.2 164.43 11.85 168.57 12.29 173.2L12.3 173.18Z" fill="#00B147"/>
<path d="M146.63 240.69C146.87 240.69 147.08 240.52 147.12 240.28C147.16 240.08 150.8 220.09 153.73 199.76C155.45 187.82 156.6 178.09 157.14 170.86C158.07 158.45 157.01 155.98 156.14 155.19C151.1 150.67 125.02 147.2 109.92 145.54C102.69 144.74 95.32 144.49 88.02 144.79C70.56 145.51 40.52 147.42 35.43 152.12C34.57 152.91 33.55 155.4 34.65 167.8C35.29 175.02 36.57 184.73 38.47 196.65C41.69 216.93 45.61 236.88 45.65 237.08C45.7 237.35 45.97 237.53 46.24 237.47C46.51 237.42 46.69 237.15 46.63 236.88C46.59 236.68 42.68 216.75 39.46 196.49C33.83 161.03 34.95 153.93 36.11 152.86C39.66 149.59 58.59 147.01 88.07 145.8C95.32 145.5 102.63 145.75 109.82 146.54C124.8 148.19 150.65 151.61 155.49 155.95C156.67 157.01 157.88 164.09 152.75 199.63C149.82 219.94 146.18 239.92 146.14 240.12C146.09 240.39 146.27 240.65 146.54 240.7C146.57 240.7 146.6 240.7 146.63 240.7V240.69Z" fill="#06602B"/>
<path d="M10.66 160.66C10.71 164.14 11.3 167.98 11.71 172.22C12.94 184.9 23.76 231.09 29.21 253.86H48.27C48.27 253.86 27.25 178.43 26.01 159.87C25.2 147.76 34.27 142.2 40.67 139.81C15.65 144.47 10.8 151.17 10.65 160.66H10.66Z" fill="#06602B"/>
<path d="M147.29 263.09C147.29 263.09 164.94 261.38 166.38 267.76C167.51 272.74 166 317.36 165.28 336.74C165.09 341.82 169.01 346.12 174.09 346.41C175.21 346.47 176.4 346.53 177.61 346.57C183.46 346.78 190.09 346.7 194.63 345.67C204.53 343.43 204.85 329.39 208.36 306.08C211.87 282.77 215.07 241.26 193.35 233.28C192.6 233.01 191.85 232.76 191.11 232.53C170.19 226.21 150.24 238.71 150.24 238.71C145.42 252.05 147.28 263.09 147.28 263.09H147.29Z" fill="#06602B"/>
<path d="M177.6 346.58C183.45 346.79 190.08 346.71 194.62 345.68C204.52 343.44 204.84 329.4 208.35 306.09C211.86 282.78 215.06 241.27 193.34 233.29C192.59 233.02 191.84 232.77 191.1 232.54C187.4 233.42 184 235.88 182.17 241.27C177.19 255.9 185.09 306.74 177.6 346.59V346.58Z" fill="#00B147"/>
<path d="M189.17 343.08C193.68 343.08 197.19 341.22 199.33 337.68C202.68 332.14 207.52 284.61 207.73 282.59C207.75 282.34 207.57 282.12 207.33 282.1C207.08 282.07 206.86 282.26 206.84 282.5C206.79 282.99 201.82 331.85 198.57 337.21C193.64 345.35 182.77 341.01 182.66 340.96C182.43 340.87 182.17 340.98 182.07 341.21C181.98 341.44 182.09 341.7 182.32 341.8C182.44 341.85 185.26 342.99 188.77 343.08C188.91 343.08 189.05 343.08 189.18 343.08H189.17Z" fill="#06602B"/>
<path d="M187.55 249.49C187.55 249.49 187.9 241.51 193.92 242.15C199.94 242.78 200.23 255.94 194.85 257.64C186.98 260.13 187.55 249.49 187.55 249.49Z" fill="#06602B"/>
<path d="M201.41 247.11C201.41 247.11 201.48 247.11 201.51 247.1C201.75 247.05 201.91 246.81 201.85 246.56C201.78 246.26 200.17 239.27 194.34 237.88C191.98 237.32 189.88 237.74 188.11 239.14C185.54 241.16 184.35 244.82 184.35 246.66C184.35 246.91 184.55 247.11 184.8 247.11C185.05 247.11 185.25 246.91 185.25 246.66C185.25 245.23 186.25 241.75 188.67 239.85C190.22 238.63 192.06 238.26 194.13 238.76C199.41 240.02 200.95 246.69 200.96 246.76C201.01 246.97 201.19 247.11 201.4 247.11H201.41Z" fill="#06602B"/>
<path d="M24.54 260.11C25.66 264.85 26.35 267.68 26.35 267.68L153.95 265C153.95 265 154.31 263.37 154.92 260.48C132.31 256.64 54.71 257.93 24.54 260.12V260.11Z" fill="#06602B"/>
<path d="M25.55 284.21C25.58 286.62 25.63 289.16 25.71 291.81C26.42 315.59 29.33 346.94 39.65 349.69C56.44 354.17 160.64 356.44 166.09 346.49C167.72 343.52 168.73 338.52 169.39 332.4C169.52 331.2 169.63 329.96 169.74 328.68C170.64 317.6 170.64 303.82 171.01 291.81C171.11 288.58 171.24 285.48 171.41 282.6C172.7 261.44 155.48 261.14 155.48 261.14C131.13 260.57 95.35 261.71 67.53 262.88C53.02 263.49 40.68 264.11 33.23 264.51C28.44 264.76 25.69 264.92 25.69 264.92C25.69 264.92 25.4 273.02 25.55 284.21Z" fill="#00B147"/>
<path d="M107.16 332.71C109.26 332.71 111.43 332.69 113.66 332.64C147.29 331.96 166.65 324.39 166.84 324.31C167.12 324.2 167.26 323.87 167.15 323.59C167.04 323.31 166.71 323.17 166.43 323.28C166.24 323.36 147.05 330.85 113.64 331.53C80.19 332.21 61.81 327.45 61.63 327.4C61.33 327.32 61.03 327.5 60.95 327.79C60.87 328.09 61.05 328.39 61.34 328.47C61.51 328.52 77.67 332.7 107.15 332.7L107.16 332.71Z" fill="#06602B"/>
<path d="M25.55 284.21C25.58 286.62 25.63 289.16 25.71 291.81C26.42 315.59 29.33 346.94 39.65 349.69C56.44 354.17 160.64 356.44 166.09 346.49C167.72 343.52 168.73 338.52 169.39 332.4C169.52 331.2 169.63 329.96 169.74 328.68C164.8 331.98 149.96 336.3 139.77 337.34C97.27 341.7 64.2 335.76 64.2 335.76C69.78 312.75 68.3 276.02 67.53 262.88C53.02 263.49 40.68 264.11 33.23 264.51L25.55 284.21Z" fill="#06602B"/>
<path d="M0.349993 267.69C0.349993 267.69 -0.300007 263.82 0.169993 257.89C0.919993 248.42 7.42999 240.34 16.54 237.65C24.07 235.43 34.01 234.05 44.18 237.13C44.92 237.36 45.67 237.6 46.42 237.88C68.13 245.86 64.94 287.37 61.43 310.68C57.92 333.99 57.6 348.04 47.7 350.27C43.15 351.3 36.52 351.38 30.68 351.17C29.46 351.13 28.28 351.07 27.16 351.01C27.16 351.01 14.85 352.08 8.53999 346.67C2.21999 341.26 0.349993 267.69 0.349993 267.69Z" fill="#06602B"/>
<path d="M30.67 351.17C36.52 351.38 43.15 351.3 47.69 350.27C57.59 348.03 57.91 333.99 61.42 310.68C64.93 287.37 68.13 245.86 46.41 237.88C45.66 237.61 44.91 237.36 44.17 237.13C40.47 238.01 37.07 240.47 35.24 245.86C30.26 260.49 38.16 311.33 30.67 351.18V351.17Z" fill="#00B147"/>
<path d="M42.93 347.3C47.44 347.3 50.95 345.44 53.09 341.9C56.44 336.36 61.28 288.83 61.49 286.81C61.51 286.56 61.33 286.34 61.09 286.32C60.84 286.3 60.62 286.48 60.6 286.72C60.55 287.21 55.58 336.07 52.33 341.43C50.27 344.83 46.99 346.5 42.58 346.39C39.23 346.31 36.45 345.19 36.43 345.18C36.2 345.09 35.94 345.2 35.84 345.43C35.75 345.66 35.86 345.92 36.09 346.02C36.21 346.07 39.03 347.21 42.54 347.3C42.68 347.3 42.82 347.3 42.95 347.3H42.93Z" fill="#06602B"/>
<path d="M38.57 251C38.82 251 39.02 250.8 39.02 250.55C39.02 249.12 40.02 245.64 42.44 243.74C43.99 242.52 45.83 242.15 47.9 242.65C53.17 243.91 54.72 250.58 54.73 250.65C54.78 250.89 55.03 251.05 55.27 250.99C55.51 250.94 55.67 250.7 55.61 250.45C55.54 250.15 53.93 243.16 48.1 241.77C45.74 241.21 43.64 241.63 41.87 243.03C39.3 245.05 38.11 248.71 38.11 250.55C38.11 250.8 38.31 251 38.56 251H38.57Z" fill="#06602B"/>
<path d="M40.93 253.79C40.93 253.79 41.28 245.81 47.31 246.45C53.33 247.08 53.62 260.24 48.24 261.94C40.37 264.43 40.94 253.79 40.94 253.79H40.93Z" fill="#06602B"/>
<path d="M144.94 160.02C145 160.18 145.08 160.4 145.15 160.6L145.39 161.21L145.88 162.44C146.21 163.26 146.55 164.08 146.89 164.9C147.57 166.54 148.28 168.18 148.99 169.8C149.7 171.43 150.44 173.05 151.19 174.65C151.94 176.26 152.68 177.86 153.47 179.44C155.03 182.6 156.62 185.72 158.31 188.7C159.15 190.19 160 191.65 160.87 193.06C161.73 194.46 162.62 195.8 163.49 197C163.92 197.59 164.35 198.16 164.74 198.63C165.13 199.1 165.5 199.51 165.69 199.72C165.78 199.82 165.83 199.88 165.74 199.84C165.69 199.82 165.6 199.78 165.45 199.72C165.28 199.65 165.06 199.56 164.71 199.46C164.62 199.43 164.51 199.4 164.41 199.38L164.18 199.33C164.07 199.31 163.97 199.29 163.86 199.27C163.49 199.21 163.17 199.19 162.95 199.18C162.49 199.18 162.25 199.21 162.1 199.24C161.82 199.3 161.88 199.33 162.01 199.32C162.3 199.3 162.9 199.15 163.53 198.95C164.17 198.74 164.88 198.49 165.6 198.19C167.05 197.6 168.58 196.9 170.11 196.16C171.65 195.43 173.18 194.61 174.72 193.78C176.26 192.96 177.8 192.08 179.32 191.19C180.85 190.31 182.36 189.37 183.88 188.43C184.63 187.96 185.38 187.47 186.12 186.99C186.49 186.75 186.86 186.5 187.23 186.26L187.78 185.89L188.3 185.53L188.32 185.51C192.24 182.8 197.62 183.79 200.33 187.71C203.04 191.63 202.05 197.01 198.13 199.72C198.07 199.76 197.98 199.82 197.93 199.86L188.45 206.02C186.87 207.04 185.27 208.05 183.67 209.07C182.06 210.09 180.42 211.07 178.75 212.08C177.07 213.08 175.36 214.07 173.5 215.03C172.57 215.51 171.61 216 170.56 216.47C169.49 216.94 168.38 217.42 166.9 217.87C166.15 218.09 165.31 218.32 164.13 218.48C163.53 218.55 162.84 218.62 161.92 218.58C161.47 218.57 160.92 218.52 160.33 218.42C160.17 218.39 160 218.36 159.84 218.32L159.6 218.27L159.44 218.23C159.23 218.18 159.02 218.12 158.81 218.06C158.03 217.82 157.38 217.55 156.81 217.28C156.25 217.02 155.76 216.74 155.33 216.48C154.46 215.96 153.78 215.46 153.16 214.98C151.94 214.03 151.01 213.15 150.15 212.29C149.3 211.43 148.53 210.61 147.81 209.79C146.37 208.16 145.1 206.55 143.86 204.97C142.63 203.38 141.47 201.8 140.34 200.21C138.1 197.04 135.94 193.89 133.87 190.71C132.84 189.12 131.79 187.54 130.78 185.95L127.75 181.18L124.75 176.39L123.25 173.98L121.72 171.5L121.49 171.13C117.71 164.99 119.62 156.95 125.76 153.17C131.9 149.39 139.94 151.3 143.72 157.44C144.22 158.26 144.65 159.17 144.95 160.04L144.94 160.02Z" fill="#342216"/>
<path d="M158.33 205.92C158.25 205.92 158.17 205.9 158.09 205.86C157.85 205.73 157.77 205.43 157.9 205.19C159.53 202.24 163.99 198.55 164.18 198.39C164.39 198.22 164.7 198.25 164.87 198.46C165.04 198.67 165.01 198.98 164.8 199.15C164.76 199.19 160.29 202.88 158.75 205.67C158.66 205.83 158.49 205.92 158.32 205.92H158.33Z" fill="#684D3C"/>
<path d="M158.33 200.68C158.08 200.68 157.86 200.49 157.84 200.23C157.82 199.96 158.02 199.72 158.29 199.7C158.32 199.7 161.19 199.45 163.36 199.22C163.63 199.19 163.87 199.39 163.9 199.66C163.93 199.93 163.73 200.17 163.46 200.2C161.28 200.43 158.4 200.68 158.37 200.68C158.36 200.68 158.34 200.68 158.33 200.68Z" fill="#684D3C"/>
<path d="M189.18 188.68C188.98 187.36 190.54 185.65 191.19 184.01C192.05 181.85 194 178.87 195.54 177.48C197.85 175.39 205.01 169.62 207.58 169.87C210.16 170.12 204.37 175.58 203.21 176.72C202.05 177.86 201.68 179.07 201.68 179.07C201.68 179.07 215.92 167.58 217.94 168.01C219.96 168.44 212.51 175.79 210.66 177.59C210.66 177.59 221.87 169.53 223.07 170.2C225.47 171.56 213.28 180.87 213.28 180.87C213.28 180.87 223.06 174.57 224.05 176.21C225.1 177.94 214.61 184.67 214.61 184.67C214.61 184.67 221.58 181.49 223.08 182.52C224.58 183.54 210.45 191.34 208.13 192.28C205.81 193.22 200.9 196.36 197.71 197.06C195.54 197.53 189.8 192.88 189.17 188.7L189.18 188.68Z" fill="#E49764"/>
<path d="M211.76 188.13C212.01 188.07 212.17 187.83 212.14 187.57C211.37 181.5 206.35 178.11 206.14 177.97C205.9 177.81 205.59 177.88 205.43 178.11C205.27 178.35 205.34 178.66 205.57 178.82C205.57 178.82 210.42 182.1 211.12 187.7C211.16 187.98 211.41 188.18 211.69 188.14C211.71 188.14 211.73 188.14 211.75 188.13H211.76Z" fill="#D1703A"/>
<path d="M199.19 191.21C199.39 191.16 199.54 190.99 199.57 190.78C200.38 184.71 204.99 183.36 205.04 183.35C205.31 183.27 205.47 182.99 205.4 182.72C205.33 182.45 205.05 182.29 204.78 182.36C204.56 182.42 199.47 183.91 198.57 190.64C198.53 190.92 198.73 191.18 199.01 191.22C199.08 191.22 199.14 191.22 199.21 191.21H199.19Z" fill="#D1703A"/>
<path d="M65.25 206.37C65.04 210.55 64.94 214.68 65.02 218.8C65.02 218.81 65.02 218.83 65.02 218.85C65.05 220.54 65.11 222.22 65.2 223.91C65.22 224.32 65.24 224.78 65.28 225.29C65.29 225.55 65.31 225.83 65.33 226.11C65.51 229.18 65.8 233.52 66.17 238.31C66.19 238.55 66.2 238.8 66.23 239.05C67.07 249.88 68.35 262.72 69.88 268.2C69.93 268.4 69.99 268.58 70.04 268.76C70.15 268.82 70.26 268.88 70.37 268.94C78.98 273.58 88.55 276.03 98.04 276.77C98.38 276.8 98.71 276.82 99.04 276.84C100.67 276.95 102.29 277 103.9 277.02C106.08 277.02 108.26 276.95 110.4 276.8C112.3 276.66 114.17 276.46 116.01 276.19C123.93 275.06 131.25 272.81 137.26 269.77C137.49 269.65 137.72 269.54 137.95 269.42C139.54 268.59 141.02 267.7 142.4 266.76C142.61 266.62 142.82 266.48 143.03 266.33C143.88 265.73 144.69 265.1 145.45 264.46C144.83 261.44 144.2 257.8 143.6 253.9C143.55 253.57 143.49 253.25 143.45 252.92C142.62 247.49 141.85 241.62 141.19 236.24C141.16 235.98 141.13 235.73 141.09 235.48C140.75 232.67 140.45 230 140.19 227.62C140.17 227.37 140.14 227.11 140.11 226.87C139.93 225.2 139.77 223.68 139.65 222.38C139.62 222.11 139.6 221.84 139.57 221.59C139.53 221.22 139.49 220.84 139.47 220.47C139.44 220.18 139.42 219.89 139.39 219.61C139.3 218.56 139.22 217.54 139.15 216.54C139.02 214.93 138.93 213.38 138.85 211.86C138.76 210.13 138.69 208.44 138.65 206.81C138.61 205.05 138.58 203.36 138.58 201.72C138.58 200.93 138.58 200.15 138.6 199.39C138.61 198.46 138.63 197.55 138.65 196.66C138.81 190.93 139.23 185.97 139.76 181.66C139.8 181.36 139.83 181.07 139.87 180.78C140.09 179.06 140.32 177.46 140.56 175.96C140.62 175.63 140.67 175.3 140.72 174.98C142.09 166.68 143.52 161.58 143.04 158.38C142.04 151.74 136.85 150.4 131.36 148.54C131.1 148.45 130.84 148.37 130.59 148.28C129.66 147.96 128.73 147.61 127.82 147.22C127.43 147.06 127.05 146.88 126.67 146.7C126.53 146.63 126.39 146.56 126.26 146.5C126.14 146.44 126.02 146.38 125.91 146.32C124.97 145.81 124.06 145.23 123.21 144.53C122.01 143.56 120.93 142.37 120.01 140.88L100.25 139.95C100.25 139.95 98.99 140.88 96.74 141.99C96.4 142.16 96.03 142.33 95.65 142.51C95.37 142.63 95.09 142.76 94.79 142.88C94.45 143.02 94.08 143.17 93.71 143.31C93.6 143.35 93.48 143.4 93.36 143.44C93.24 143.49 93.11 143.53 92.98 143.57C92.79 143.64 92.6 143.7 92.4 143.77C90.62 144.35 88.52 144.88 86.12 145.22C85.88 145.25 85.64 145.29 85.39 145.32C85.22 145.34 85.05 145.36 84.87 145.38C83.24 145.56 81.72 146.02 80.32 146.74C80.05 146.88 79.78 147.02 79.52 147.18C73.71 150.67 70.03 158.88 68.72 170.79C68.36 174.1 67.99 177.32 67.64 180.48C67.6 180.82 67.57 181.17 67.53 181.51C67.45 182.2 67.38 182.89 67.31 183.57C67.28 183.82 67.25 184.07 67.23 184.32C66.96 186.76 66.71 189.17 66.47 191.55C66.45 191.8 66.42 192.06 66.4 192.32C66.38 192.46 66.37 192.58 66.36 192.72L66.23 194.11C65.84 198.28 65.53 202.36 65.32 206.39L65.25 206.37Z" fill="#342216"/>
<path d="M138.68 195.13C138.41 195.13 138.19 194.92 138.19 194.65C138.19 194.51 137.96 180.04 141.29 168.8C141.37 168.54 141.64 168.39 141.9 168.47C142.16 168.55 142.31 168.82 142.23 169.08C138.94 180.17 139.17 194.48 139.17 194.63C139.17 194.9 138.96 195.13 138.69 195.13H138.68Z" fill="#684D3C"/>
<path d="M139.62 224.86C139.62 224.86 141.34 232.52 143.74 236.31C146.14 240.1 144.97 245 141.68 245.62C138.39 246.24 139.62 224.86 139.62 224.86Z" fill="#342216"/>
<path d="M65.07 220.84C65.07 220.84 64.93 230.34 62.72 234.75C60.51 239.16 62.21 245.26 69.85 245.22C77.48 245.18 65.07 220.83 65.07 220.83V220.84Z" fill="#342216"/>
<path d="M112.35 212.82L103.85 227.12L94.91 213.09L103.39 197.46L112.35 212.82Z" fill="#684D3C"/>
<path d="M95.22 212.83L86.72 227.13L77.78 213.1L86.26 197.47L95.22 212.83Z" fill="#684D3C"/>
<path d="M129.24 212.65L120.74 226.95L111.81 212.93L120.28 197.3L129.24 212.65Z" fill="#684D3C"/>
<path d="M128.24 212.45L128.82 213.37L137.18 226.48L139.63 222.36C139.6 222.09 139.58 221.82 139.55 221.57C139.51 221.2 139.47 220.82 139.45 220.45C139.42 220.16 139.4 219.87 139.37 219.59C139.28 218.54 139.2 217.52 139.13 216.52C139 214.91 138.91 213.36 138.83 211.84C138.74 210.11 138.67 208.42 138.63 206.79C138.59 205.03 138.56 203.34 138.56 201.7C138.56 200.91 138.56 200.13 138.58 199.37L128.68 211.67L128.25 212.46L128.24 212.45Z" fill="#684D3C"/>
<path d="M65.25 206.37C65.04 210.55 64.94 214.68 65.02 218.8L70.44 227.31L78.35 214L78.94 213.01L78.37 212.03L69.98 197.66L65.25 206.38V206.37Z" fill="#684D3C"/>
<path d="M93.31 143.42L111.3 180.77L126.24 146.48C126.12 146.42 126 146.36 125.88 146.3C124.94 145.79 124.03 145.21 123.17 144.51C121.98 143.54 120.89 142.35 119.97 140.86L100.21 139.93C100.21 139.93 98.95 140.86 96.7 141.97C96.36 142.14 95.99 142.31 95.6 142.49C95.32 142.62 95.04 142.74 94.74 142.86C94.39 143 94.03 143.15 93.66 143.28C93.55 143.32 93.43 143.37 93.31 143.41V143.42Z" fill="#684D3C"/>
<path d="M96.69 141.97L111.44 173.34L123.17 144.51C121.98 143.54 120.89 142.35 119.97 140.86L100.21 139.93C100.21 139.93 98.95 140.86 96.7 141.97H96.69Z" fill="#FFFCF2"/>
<path d="M109.55 151.24C109.52 151.83 109.98 152.34 110.57 152.36C111.16 152.39 111.67 151.93 111.69 151.34C111.72 150.75 111.26 150.24 110.67 150.22C110.08 150.19 109.57 150.65 109.55 151.24Z" fill="#CCC5B9"/>
<path d="M109.32 156.12C109.29 156.71 109.75 157.22 110.34 157.24C110.93 157.27 111.44 156.81 111.46 156.22C111.49 155.63 111.03 155.12 110.44 155.1C109.85 155.07 109.34 155.53 109.32 156.12Z" fill="#CCC5B9"/>
<path d="M109.09 161C109.06 161.59 109.52 162.1 110.11 162.12C110.7 162.15 111.21 161.69 111.23 161.1C111.26 160.51 110.8 160 110.21 159.98C109.62 159.95 109.11 160.41 109.09 161Z" fill="#CCC5B9"/>
<path d="M120.19 253.29C112.77 252.94 104.76 250.46 96.41 245.87C84.96 239.57 76.78 231.44 76.7 231.36C76.48 231.14 76.48 230.79 76.7 230.58C76.92 230.36 77.27 230.36 77.48 230.58C77.56 230.66 85.64 238.7 96.96 244.92C107.35 250.63 122.67 255.93 136.71 248.8C136.98 248.66 137.31 248.77 137.45 249.04C137.59 249.31 137.48 249.65 137.21 249.78C132.03 252.41 126.3 253.58 120.18 253.29H120.19Z" fill="#684D3C"/>
<path d="M120.83 247.53C109.25 246.8 100.51 230.91 100.14 230.23C99.99 229.96 100.09 229.63 100.36 229.48C100.63 229.33 100.96 229.43 101.11 229.7C101.2 229.86 109.92 245.73 120.89 246.42C121.19 246.44 121.43 246.7 121.41 247.01C121.39 247.31 121.13 247.54 120.83 247.53Z" fill="#684D3C"/>
<path d="M103.88 123.77C102.87 139.51 94.26 125.51 94.24 108.85C94.23 100.07 100.03 100.85 100.03 100.85C100.03 100.85 100.13 91.46 111.52 89.81C122.27 88.25 124.82 95.7 131.4 95.36C138.01 95.02 138.12 106.6 131.25 105.7C124.38 104.8 102.38 109.09 103.89 123.77H103.88Z" fill="#9A836C"/>
<path d="M120.74 137.15L120.44 143.52C119.84 143.96 119.24 144.34 118.64 144.66C109.84 149.4 99.23 141.63 99.23 141.63L101.12 125.98L118.41 137.03L120.74 137.15Z" fill="#E49764"/>
<path d="M120.74 137.15L120.44 143.52C119.84 143.96 119.24 144.34 118.64 144.66C111.49 141.43 106.55 133.54 106.55 133.54L118.42 137.03L120.75 137.15H120.74Z" fill="#342216"/>
<path d="M120.57 140.7C120.57 140.7 123.39 141.12 122.83 145.03L118.42 155.85L111.72 146.38C111.72 146.38 118.34 143.87 120.58 140.7H120.57Z" fill="#FFFCF2"/>
<path d="M99.75 138.7C99.75 138.7 97.73 138.96 97.48 142.56L102.78 153.3L111.53 146.37C111.53 146.37 101.44 142.19 99.75 138.7Z" fill="#FFFCF2"/>
<path d="M118.21 155.67C118.35 155.67 118.49 155.63 118.6 155.54C118.84 155.34 118.87 154.99 118.67 154.75L111.93 146.75C111.73 146.51 111.38 146.48 111.14 146.68L103.15 153.24C102.91 153.44 102.88 153.79 103.07 154.03C103.27 154.27 103.62 154.3 103.86 154.11L111.42 147.91L117.81 155.48C117.91 155.6 118.06 155.67 118.21 155.68V155.67Z" fill="#CCC5B9"/>
<path d="M123.59 98.52C123.59 98.52 135.44 100.2 130.56 112.45C130.56 112.45 123.16 101.76 123.59 98.52Z" fill="#9A836C"/>
<path d="M127.86 117.04C127.86 117.04 130.81 113.87 132.24 117.25C133.67 120.63 132.14 127.27 127.93 125.97L127.86 117.04Z" fill="#D1703A"/>
<path d="M131.28 128.82C131.28 128.82 130.3 138.07 119.35 137.53C108.47 137 101.97 129.32 101.6 128.92L101.59 128.91L101.57 126.76L101.47 115.62L101.42 109.66C101.42 109.66 100.53 98.9 111.12 97.44C118.86 96.37 125.99 97.95 129.44 101.99C130.71 103.48 131.48 105.31 131.59 107.47L131.43 118.16L131.39 120.78L131.27 128.82H131.28Z" fill="#E49764"/>
<path d="M118.26 115.82C118.1 115.79 117.96 115.67 117.9 115.5C117.9 115.49 117.45 114.1 116.48 114.02C115.43 113.93 114.66 114.68 114.65 114.68C114.47 114.86 114.17 114.86 113.98 114.68C113.8 114.5 113.8 114.2 113.98 114.01C114.02 113.97 115.06 112.94 116.56 113.07C118.16 113.21 118.77 115.13 118.8 115.21C118.88 115.46 118.74 115.72 118.49 115.8C118.41 115.82 118.33 115.83 118.25 115.81L118.26 115.82Z" fill="#342216"/>
<path d="M125.12 115.72C125.12 115.72 125.11 115.72 125.1 115.72C124.85 115.66 124.69 115.4 124.76 115.15C124.78 115.08 125.23 113.38 126.62 113.18C127.92 113 128.87 113.84 128.91 113.88C129.1 114.06 129.12 114.35 128.94 114.55C128.77 114.74 128.47 114.76 128.27 114.58C128.26 114.57 127.59 114 126.75 114.12C125.99 114.23 125.68 115.38 125.67 115.39C125.61 115.64 125.36 115.79 125.12 115.74V115.72Z" fill="#342216"/>
<path d="M115.38 123.55C115.32 123.55 115.26 123.53 115.2 123.5C115.02 123.4 114.96 123.17 115.06 123C116.53 120.4 119.17 119.39 119.29 119.35C119.48 119.28 119.69 119.38 119.76 119.57C119.83 119.76 119.73 119.97 119.54 120.05C119.52 120.05 117.03 121.01 115.7 123.37C115.63 123.49 115.51 123.56 115.38 123.56V123.55Z" fill="#D1703A"/>
<path d="M128.26 124.15C128.11 124.15 127.96 124.05 127.91 123.9C127.24 121.89 124.75 120.49 124.73 120.47C124.55 120.37 124.49 120.15 124.59 119.97C124.69 119.79 124.91 119.73 125.09 119.83C125.2 119.89 127.85 121.38 128.61 123.67C128.67 123.86 128.57 124.07 128.38 124.14C128.34 124.15 128.3 124.16 128.26 124.16V124.15Z" fill="#D1703A"/>
<path d="M120.84 104.6C116.64 104.6 113.6 103.17 113.42 103.08C113.24 102.99 113.16 102.77 113.25 102.59C113.34 102.41 113.56 102.33 113.74 102.42C113.8 102.45 119.65 105.19 126.19 103C126.38 102.94 126.59 103.04 126.66 103.23C126.72 103.42 126.62 103.63 126.43 103.7C124.45 104.36 122.55 104.6 120.84 104.6Z" fill="#D1703A"/>
<path d="M120.86 106.89C118 106.89 115.36 105.89 115.19 105.83C115 105.76 114.9 105.54 114.98 105.35C115.05 105.16 115.27 105.06 115.46 105.14C115.52 105.16 121.18 107.3 124.64 105.27C124.82 105.17 125.04 105.23 125.15 105.4C125.25 105.58 125.19 105.8 125.02 105.91C123.77 106.64 122.29 106.89 120.87 106.89H120.86Z" fill="#D1703A"/>
<path d="M123.75 126.21C123.3 126.22 122.8 126.17 122.24 126.04C119.36 125.34 117.49 122.71 117.42 122.6C117.3 122.43 117.34 122.19 117.51 122.08C117.68 121.96 117.92 122 118.03 122.17C118.05 122.19 119.82 124.68 122.41 125.31C124.98 125.93 126.13 124.43 126.14 124.41C126.26 124.24 126.5 124.21 126.67 124.33C126.84 124.45 126.87 124.69 126.75 124.86C126.7 124.92 125.75 126.17 123.74 126.21H123.75Z" fill="#342216"/>
<path d="M124.28 128.17C124.47 128.07 124.59 127.99 124.61 127.98C124.84 127.82 124.89 127.51 124.74 127.29C124.58 127.06 124.28 127 124.05 127.16C123.98 127.21 122.48 128.19 120.88 127.32C120.64 127.19 120.33 127.28 120.2 127.52C120.07 127.76 120.16 128.07 120.4 128.2C122.06 129.11 123.62 128.52 124.28 128.18V128.17Z" fill="#D1703A"/>
<path d="M116.83 117.44C116.51 117.4 116.18 117.31 115.84 117.16C115.7 117.1 115.63 116.93 115.69 116.79C115.75 116.65 115.92 116.58 116.06 116.64C116.71 116.92 117.29 116.96 117.78 116.76C118.53 116.44 118.83 115.66 118.83 115.65C118.88 115.5 119.04 115.43 119.19 115.49C119.34 115.54 119.41 115.71 119.35 115.85C119.33 115.89 118.96 116.87 117.99 117.28C117.63 117.43 117.24 117.49 116.82 117.44H116.83Z" fill="#D1703A"/>
<path d="M126.59 117.46C126.13 117.47 125.72 117.37 125.37 117.15C124.52 116.62 124.37 115.62 124.36 115.58C124.34 115.43 124.44 115.28 124.6 115.26C124.75 115.24 124.89 115.34 124.92 115.5C124.92 115.51 125.05 116.29 125.67 116.68C126.14 116.97 126.78 116.98 127.57 116.71C127.72 116.66 127.88 116.74 127.93 116.89C127.98 117.04 127.9 117.2 127.75 117.25C127.33 117.39 126.94 117.46 126.59 117.47V117.46Z" fill="#D1703A"/>
<path d="M116.59 118.78C116.56 119.52 115 120.05 113.11 119.96C111.23 119.87 109.73 119.2 109.76 118.46C109.79 117.72 111.35 117.19 113.23 117.28C115.11 117.37 116.61 118.04 116.58 118.78H116.59Z" fill="#D1703A"/>
<path d="M130.43 120.74C130.17 120.75 129.89 120.75 129.61 120.74C127.73 120.65 126.23 119.98 126.26 119.24C126.29 118.5 127.85 117.97 129.73 118.06C129.98 118.07 130.23 118.1 130.47 118.13L130.43 120.75V120.74Z" fill="#D1703A"/>
<path d="M121.32 120.05C121.09 120.04 120.91 119.84 120.92 119.61C120.93 119.38 121.13 119.2 121.36 119.21C122.9 119.28 123.66 118.51 123.92 118.16C122.41 114.63 120.91 111.08 120.9 111.05C120.81 110.84 120.9 110.59 121.12 110.5C121.33 110.41 121.58 110.51 121.67 110.72C121.69 110.76 123.24 114.44 124.78 118.03C124.83 118.15 124.82 118.28 124.77 118.39C124.73 118.46 123.81 120.16 121.33 120.04L121.32 120.05Z" fill="#342216"/>
<path d="M109.22 111.14C109.63 109.59 111.07 106.72 116.08 106.73C116.69 106.73 117.22 107.16 117.36 107.76C117.53 108.51 117.02 109.25 116.26 109.35C114.92 109.52 112.96 110.16 111.76 112.27C111.39 112.93 110.51 113.11 109.88 112.68L109.73 112.58C109.27 112.26 109.06 111.69 109.21 111.15L109.22 111.14Z" fill="#9A836C"/>
<path d="M130.96 111.39C130.6 109.94 129.3 107.25 124.63 107.19C124.06 107.19 123.56 107.57 123.43 108.13C123.26 108.83 123.72 109.52 124.43 109.62C125.67 109.8 127.49 110.42 128.57 112.4C128.91 113.02 129.72 113.2 130.31 112.8L130.45 112.71C130.88 112.42 131.08 111.89 130.96 111.38V111.39Z" fill="#9A836C"/>
<path d="M105.08 124.94C105.04 125.03 104.02 127.11 102.56 128.3C102.06 128.71 101.42 128.9 100.77 128.88L101.03 126.77C101.03 126.77 103.23 126.55 105.08 124.94Z" fill="#342216"/>
<path d="M103.54 117.78C103.54 117.78 99.72 112.12 96.54 116.28C93.91 119.71 98.13 129.16 103.15 126.22L103.55 117.78H103.54Z" fill="#E49764"/>
<path d="M102.67 124.55C102.46 124.55 102.29 124.37 102.27 124.16C102.01 120 98.61 118.39 98.47 118.32C98.26 118.22 98.17 117.97 98.26 117.76C98.36 117.55 98.6 117.46 98.81 117.55C98.97 117.62 102.81 119.42 103.1 124.1C103.11 124.33 102.94 124.53 102.71 124.54C102.69 124.54 102.68 124.54 102.66 124.54L102.67 124.55Z" fill="#342216"/>
<path d="M98.88 121.82C98.76 121.82 98.64 121.76 98.56 121.65C98.42 121.46 98.46 121.2 98.65 121.06C98.82 120.93 100.38 119.82 101.63 120.2C101.85 120.27 101.98 120.5 101.91 120.72C101.84 120.94 101.61 121.07 101.39 121C100.68 120.78 99.51 121.47 99.16 121.73C99.08 121.79 98.98 121.82 98.89 121.81L98.88 121.82Z" fill="#342216"/>
<path d="M130.04 102.03C129.94 102.38 129.77 102.68 129.51 102.92C127.24 104.98 122.14 103.97 117.45 102.35C112.76 100.74 109.26 103.85 109.26 103.85C110.38 108.23 105.88 108.37 106.68 111.68C107.48 115 106.91 119.3 106.91 119.3L104.13 118.82C103.6 117.25 102.34 116.19 101.48 115.62L101.42 109.66C101.42 109.66 99.94 98.62 110.76 97.17C118.66 96.11 126.51 97.97 130.03 102.02L130.04 102.03Z" fill="#9A836C"/>
<path d="M116.74 121.02C113.58 121.38 110.72 119.1 110.36 115.94C110 112.78 112.28 109.92 115.44 109.56C118.6 109.2 121.46 111.48 121.82 114.64C122.18 117.8 119.9 120.66 116.74 121.02ZM115.53 110.41C112.84 110.72 110.9 113.16 111.2 115.85C111.51 118.54 113.95 120.48 116.64 120.18C119.33 119.87 121.27 117.43 120.97 114.74C120.66 112.05 118.22 110.11 115.53 110.41Z" fill="#FFFCF2"/>
<path d="M130.04 121.21C126.88 121.57 124.02 119.29 123.66 116.13C123.3 112.97 125.58 110.11 128.74 109.75C131.9 109.39 134.76 111.67 135.12 114.83C135.48 117.99 133.2 120.85 130.04 121.21ZM128.83 110.6C126.14 110.91 124.2 113.35 124.5 116.04C124.81 118.73 127.25 120.67 129.94 120.37C132.63 120.06 134.57 117.62 134.27 114.93C133.96 112.24 131.52 110.3 128.83 110.6Z" fill="#FFFCF2"/>
<path d="M123.74 115.99C122.87 115.05 121.87 115.8 121.76 115.89L121.23 115.23C121.81 114.75 123.23 114.18 124.37 115.42L123.75 116L123.74 115.99Z" fill="#FFFCF2"/>
<path d="M110.85 114.25C110.73 114.26 110.6 114.22 110.5 114.13C110.45 114.09 109.72 113.55 106.66 113.41C106.43 113.4 106.24 113.2 106.26 112.97C106.26 112.73 106.47 112.55 106.7 112.57C110.22 112.74 111 113.42 111.12 113.56C111.28 113.74 111.26 114 111.08 114.16C111.01 114.22 110.93 114.25 110.85 114.26V114.25Z" fill="#FFFCF2"/>
<path d="M134.21 116.51C134.1 116.52 133.99 116.51 133.89 116.45C133.06 115.99 131.52 115.95 131 115.98C130.71 115.99 130.46 115.77 130.44 115.47C130.43 115.18 130.65 114.92 130.95 114.91C131.04 114.91 133.15 114.81 134.41 115.52C134.67 115.66 134.76 115.99 134.61 116.24C134.52 116.4 134.37 116.49 134.21 116.51Z" fill="#FFFCF2"/>
<path d="M178.91 351.85L180.42 367.34L194.41 365.71L192.01 350.71L178.91 351.85Z" fill="#E49764"/>
<path d="M224.67 382.28L176.55 381.81C176.2 381.21 176.01 380.37 175.94 379.36C175.68 375.63 177.05 369.7 177.73 365.96C177.81 365.52 177.89 365.11 177.94 364.74C178.03 364.12 178.1 363.59 178.1 363.21C178.14 360.15 179.34 360.91 179.34 360.91C182.23 361.51 185.24 362.49 187.28 361.95C188.52 361.63 189.73 361.13 190.86 360.77C192.32 360.3 193.64 360.08 194.69 360.8C194.69 360.8 196.07 361.72 199.85 364.91C202.94 367.51 207.84 369.42 212.53 371.21C213.58 371.61 214.61 372 215.62 372.4C222.15 374.97 224.36 377.5 224.97 379.35C225.03 379.52 225.07 379.68 225.1 379.83C225.4 381.32 224.68 382.27 224.68 382.27L224.67 382.28Z" fill="#684D3C"/>
<path d="M224.67 382.28L176.55 381.81C176.2 381.21 176.01 380.37 175.94 379.36H224.96C225.02 379.53 225.06 379.69 225.09 379.84C225.39 381.33 224.67 382.28 224.67 382.28Z" fill="#342216"/>
<path d="M104.35 250.46C104.35 250.46 129.24 253.86 142.32 245.22C142.32 245.22 177.98 256.56 185.99 269.69C194.01 282.82 194.25 354.94 194.25 354.94L177.61 356.14C177.61 356.14 174.03 331.37 168.43 317.79C163.5 305.84 162.59 282.76 162.59 282.76L104.35 250.45V250.46Z" fill="#0055A6"/>
<path d="M177.6 352.09C177.28 352.09 177.01 351.84 176.99 351.52C176.97 351.18 177.22 350.89 177.56 350.86L193.62 349.71C193.96 349.69 194.25 349.94 194.28 350.28C194.3 350.62 194.05 350.91 193.71 350.94L177.65 352.09C177.65 352.09 177.62 352.09 177.61 352.09H177.6Z" fill="#083356"/>
<path d="M134.82 355.23V367.34H149.33L150.73 355.23H134.82Z" fill="#E49764"/>
<path d="M161.88 382.28H132.09C132.09 382.28 132.03 381.77 131.97 380.95C131.95 380.64 131.93 380.29 131.92 379.9C131.92 379.82 131.92 379.74 131.92 379.66C131.92 379.56 131.92 379.45 131.92 379.34C131.9 377.95 131.96 376.22 132.25 374.54C132.53 372.98 132.94 371.01 133.37 369.14C133.55 368.39 133.72 367.66 133.9 366.97C134.34 365.25 134.77 363.81 135.08 363.12C135.49 362.21 135.87 360.85 137.3 359.81C138.47 358.96 140.35 358.32 143.54 358.32C147.55 358.32 149.05 358.82 149.96 359.87C150.26 360.22 150.5 360.62 150.74 361.09C150.85 361.3 151.86 364.39 151.99 364.59C153.15 366.41 150.97 365.57 156.6 369.56C160.71 372.47 161.73 376.87 161.92 379.65C161.92 379.73 161.93 379.81 161.94 379.89C162.02 381.32 161.89 382.27 161.89 382.27L161.88 382.28Z" fill="#684D3C"/>
<path d="M161.93 379.9C162.01 381.33 161.88 382.28 161.88 382.28H132.09C132.09 382.28 132.03 381.77 131.97 380.95C131.95 380.64 131.93 380.29 131.92 379.9H161.93Z" fill="#342216"/>
<path d="M66.68 244.66C66.68 244.66 62.7 255.52 69.05 269.89C75.4 284.25 123.47 289.52 131.9 289.17C131.9 289.17 130.26 312.27 130.66 328.58C131.06 344.89 133.3 357.13 133.3 357.13L151.45 356.53C151.45 356.53 166.32 292.08 161.95 273.62C157.58 255.16 66.67 244.67 66.67 244.67L66.68 244.66Z" fill="#0055A6"/>
<path d="M133.47 353.72C133.14 353.72 132.87 353.46 132.85 353.13C132.83 352.79 133.1 352.5 133.44 352.49L151.43 351.69C151.77 351.68 152.06 351.94 152.07 352.28C152.09 352.62 151.82 352.91 151.48 352.92L133.49 353.72C133.49 353.72 133.47 353.72 133.46 353.72H133.47Z" fill="#083356"/>
<path d="M162.79 286.93C162.73 286.93 162.68 286.93 162.62 286.91C162.29 286.82 162.1 286.48 162.19 286.15C162.22 286.05 165.03 275.72 159.63 269.32C154.24 262.93 120.12 253.42 119.78 253.32C119.45 253.23 119.26 252.89 119.35 252.56C119.44 252.23 119.78 252.04 120.11 252.13C121.53 252.52 154.94 261.84 160.57 268.52C166.4 275.42 163.51 286.03 163.38 286.48C163.3 286.75 163.06 286.93 162.79 286.93Z" fill="#083356"/>
<path d="M135.82 353.03C135.49 353.03 135.21 352.76 135.2 352.43C135.2 352.31 134.88 340.71 134.2 325.12C133.58 310.89 136.3 287.86 136.83 283.6C131.76 283.53 100.36 282.83 83.71 276.3C76.09 273.31 71.01 267.03 69.01 258.15C67.52 251.49 68.26 245.8 68.29 245.56C68.34 245.22 68.64 244.99 68.98 245.03C69.32 245.08 69.55 245.39 69.51 245.72C69.51 245.78 68.76 251.46 70.22 257.91C72.15 266.48 76.84 272.28 84.16 275.15C102 282.15 137.18 282.37 137.53 282.38C137.71 282.38 137.87 282.46 137.99 282.59C138.11 282.72 138.16 282.9 138.14 283.07C138.11 283.33 134.76 309.52 135.44 325.07C136.12 340.67 136.44 352.28 136.44 352.4C136.44 352.74 136.18 353.02 135.84 353.03C135.84 353.03 135.83 353.03 135.82 353.03Z" fill="#083356"/>
<path d="M91.77 173.1C90.45 174.31 89.11 175.59 87.77 176.87C86.43 178.16 85.09 179.47 83.76 180.79C81.1 183.43 78.46 186.12 75.87 188.84C70.69 194.27 65.64 199.83 61.02 205.46C58.72 208.27 56.52 211.11 54.62 213.85C53.68 215.22 52.82 216.57 52.14 217.77C51.8 218.37 51.52 218.92 51.32 219.35C51.22 219.56 51.14 219.75 51.09 219.86C51.04 219.98 51.02 220.03 51.02 219.94C51.02 219.85 51.05 219.65 51.03 219.13C51.02 218.88 51 218.53 50.92 218.12C50.85 217.68 50.72 217.15 50.48 216.54C50.42 216.38 50.35 216.22 50.28 216.07L50.25 216.01V216.05L50.27 216.1L50.34 216.3L50.48 216.7L50.61 217.04L50.67 217.21L50.73 217.36C50.77 217.46 50.81 217.56 50.85 217.65C50.89 217.74 50.94 217.83 50.98 217.92C51.02 218.01 51.08 218.1 51.13 218.2L51.2 218.34L51.3 218.5L51.4 218.66C51.43 218.71 51.46 218.77 51.51 218.83L51.79 219.22C51.89 219.35 52.02 219.51 52.13 219.66L52.31 219.89L52.52 220.14L52.94 220.65L53.41 221.21L54.38 222.37C55.05 223.17 55.73 224.01 56.4 224.85C57.74 226.54 59.02 228.27 60.24 229.99C63.6 234.72 62.5 241.27 57.77 244.63C53.41 247.74 47.48 247.03 43.95 243.18L43.81 243.03C42.61 241.73 41.41 240.46 40.18 239.26C39.56 238.66 38.94 238.06 38.28 237.45L37.26 236.5L36.73 236L36.15 235.45L35.86 235.17L35.55 234.86C35.34 234.65 35.14 234.46 34.91 234.22L34.23 233.51C34.12 233.4 34 233.26 33.88 233.13L33.53 232.73L33.18 232.32L32.82 231.88C32.58 231.58 32.34 231.3 32.12 230.98L31.44 230.04C31.22 229.73 31.02 229.41 30.81 229.09L30.5 228.61L30.22 228.14L29.67 227.2C29.5 226.89 29.35 226.6 29.18 226.29L28.94 225.84L28.88 225.73L28.85 225.67V225.64L28.79 225.54C28.67 225.27 28.56 225 28.46 224.73C28.06 223.67 27.81 222.66 27.66 221.75C27.52 220.86 27.45 220.02 27.44 219.29C27.44 219.09 27.44 218.93 27.44 218.75C27.44 218.58 27.44 218.39 27.45 218.23C27.47 217.91 27.48 217.57 27.51 217.28L27.56 216.83L27.61 216.41C27.65 216.12 27.69 215.86 27.73 215.6C27.91 214.56 28.13 213.68 28.37 212.87C28.61 212.06 28.85 211.33 29.11 210.64C29.62 209.27 30.15 208.06 30.7 206.93C31.78 204.67 32.9 202.69 34.04 200.79C36.32 197 38.69 193.57 41.1 190.22C45.93 183.56 50.96 177.32 56.12 171.2C58.7 168.15 61.32 165.13 63.98 162.14C65.31 160.65 66.66 159.16 68.03 157.67C69.4 156.18 70.78 154.7 72.23 153.2L72.27 153.16C77.61 147.62 86.43 147.46 91.97 152.81C97.51 158.15 97.67 166.97 92.32 172.51C92.13 172.7 91.91 172.92 91.71 173.1H91.77Z" fill="#342216"/>
<path d="M50.91 218.39C50.79 218.39 50.68 218.35 50.58 218.26C46.84 214.91 40.62 212.77 40.56 212.75C40.3 212.66 40.16 212.38 40.25 212.12C40.34 211.86 40.62 211.72 40.88 211.81C41.14 211.9 47.35 214.04 51.24 217.51C51.44 217.69 51.46 218 51.28 218.21C51.18 218.32 51.05 218.37 50.91 218.37V218.39Z" fill="#684D3C"/>
<path d="M48.28 216.43C48.01 216.43 47.79 216.21 47.79 215.94C47.79 214.36 46.45 211.57 46.43 211.54C46.31 211.3 46.41 211 46.66 210.88C46.9 210.76 47.2 210.86 47.32 211.11C47.38 211.23 48.78 214.13 48.78 215.94C48.78 216.21 48.56 216.43 48.29 216.43H48.28Z" fill="#684D3C"/>
<path d="M69.66 195.75C69.54 195.75 69.42 195.71 69.33 195.62C69.13 195.44 69.12 195.12 69.3 194.92L83.54 179.39C83.72 179.19 84.04 179.18 84.24 179.36C84.44 179.54 84.45 179.86 84.27 180.06L70.03 195.59C69.93 195.7 69.8 195.75 69.67 195.75H69.66Z" fill="#684D3C"/>
<path d="M52.11 226.88C56.34 227.02 59.98 229.9 61.33 233.9C62.63 237.73 64.28 243.47 64.55 248.43C64.97 256.18 61.04 264.52 58.77 264.11C56.5 263.7 61.42 256.2 60.06 252.58C60.06 252.58 58.22 265 55.56 265.62C52.69 266.3 57.22 257 56.2 252.86C56.2 252.86 53.89 264.55 52.22 264.18C49.66 263.6 53.02 257.83 51.71 253.81C51.71 253.81 50.75 261.93 48.65 262C46.55 262.07 49.74 250.95 47.05 246.78C44.37 242.61 41.55 239.46 42.5 235.05C43.19 231.82 46.22 226.68 52.1 226.88H52.11Z" fill="#E49764"/>
<path d="M59.84 231.48C59.84 231.48 66.79 241.98 65.28 245.83C63.76 249.67 62.61 251 62.61 251L59.85 231.48H59.84Z" fill="#E49764"/>
<path d="M179.62 351.33C179.32 351.33 179.06 351.11 179.01 350.81C178.04 344.51 173.66 322.62 171.49 316.39C167.58 305.2 166.92 298.27 166.44 293.21C166.31 291.89 166.21 290.76 166.06 289.68C165.33 284.5 163.02 277.27 162.99 277.2C162.89 276.88 163.06 276.53 163.39 276.42C163.71 276.32 164.06 276.49 164.17 276.82C164.19 276.89 166.54 284.22 167.28 289.51C167.43 290.61 167.55 291.82 167.67 293.09C168.15 298.08 168.8 304.92 172.66 315.98C174.85 322.27 179.26 344.28 180.24 350.62C180.29 350.96 180.06 351.27 179.72 351.32C179.69 351.32 179.66 351.32 179.63 351.32L179.62 351.33Z" fill="#083356"/>
<path d="M229.77 93.76L229.73 94.59L229.69 95.35L229.59 96.83C229.52 97.81 229.44 98.79 229.35 99.76C229.17 101.71 228.95 103.65 228.7 105.59C228.45 107.53 228.16 109.47 227.82 111.41C227.48 113.35 227.12 115.3 226.69 117.25C226.26 119.2 225.78 121.16 225.24 123.13C224.7 125.1 224.07 127.08 223.35 129.08C222.62 131.08 221.79 133.1 220.77 135.15C219.75 137.2 218.53 139.29 216.9 141.4C216.08 142.45 215.15 143.51 214.04 144.54C212.94 145.56 211.65 146.56 210.13 147.42C208.62 148.28 206.88 148.98 205.05 149.37C204.59 149.47 204.13 149.54 203.67 149.6L202.96 149.68L201.63 149.82C200.74 149.91 199.85 150.02 198.95 150.12C198.06 150.22 197.16 150.33 196.27 150.45C194.48 150.66 192.68 150.89 190.88 151.12L185.47 151.83L180.04 152.57L174.6 153.31L169.19 154.03H169.1C165.44 154.53 162.07 151.95 161.58 148.29C161.15 145.02 163.15 141.99 166.19 141.03C167.12 140.74 168 140.45 168.91 140.17C169.81 139.9 170.71 139.62 171.61 139.36C173.41 138.84 175.21 138.32 177.03 137.83L179.75 137.1L182.48 136.4C184.3 135.94 186.13 135.48 187.96 135.07C189.8 134.65 191.63 134.23 193.49 133.83C194.41 133.63 195.34 133.44 196.28 133.26C197.21 133.07 198.14 132.89 199.08 132.71L200.49 132.45L200.84 132.38L201.02 132.35L201.11 132.33H201.15V132.32C201.15 132.32 201.14 132.3 201.13 132.3C201.1 132.27 201.08 132.26 201.16 132.17C201.32 132.02 201.85 131.5 202.41 130.63C202.98 129.77 203.57 128.61 204.12 127.32C204.67 126.03 205.17 124.59 205.63 123.09C206.53 120.08 207.27 116.82 207.84 113.48C208.13 111.81 208.4 110.11 208.63 108.41C208.86 106.7 209.07 104.98 209.26 103.25C209.45 101.52 209.6 99.78 209.74 98.05L209.93 95.46L210.01 94.18L210.07 92.99V92.77C210.37 87.33 215 83.15 220.44 83.44C225.88 83.72 230.06 88.32 229.78 93.75L229.77 93.76Z" fill="#E49764"/>
<path d="M209.92 90.67C209.92 90.67 204.65 113.81 203.86 120.92C203.86 120.92 219.85 129.31 223.53 134.24C223.53 134.24 229.82 120.61 229.83 118.05C229.84 115.49 216.32 87.87 209.93 90.67H209.92Z" fill="#00B147"/>
<path d="M153.92 139.41C153.92 139.41 147.48 138.93 145.34 139.83C143.2 140.72 138.33 141.81 137.92 143.13C137.52 144.45 149.27 142.64 149.27 142.64L153.92 139.41Z" fill="#D1703A"/>
<path d="M171.91 151.91C171.91 151.91 166.88 153.94 162.89 153.72C158.9 153.5 152.14 155.45 149.48 153.19C146.82 150.93 151.71 150.98 153.49 150.66C155.27 150.34 157.71 149.12 157.38 148.21C157.06 147.3 154.24 146.3 150.39 145.82C146.53 145.34 138.3 145.95 136.5 144.64C134.7 143.33 140.22 142.71 143.15 141.87C146.08 141.04 148 140.09 153.46 139.43C157.11 138.99 171.54 142.75 171.54 142.75C171.54 142.75 175.21 146.01 171.9 151.9L171.91 151.91Z" fill="#E49764"/>
<path d="M226.87 346.55L225.49 362.99L237.68 363.17L240.45 347.38L226.87 346.55Z" fill="#E49764"/>
<path d="M196.97 382.32L241.5 382.1C241.83 381.5 242 380.64 242.07 379.62C242.33 375.85 241.1 369.85 240.49 366.06C240.42 365.62 240.35 365.2 240.3 364.83C240.21 364.2 240.16 363.67 240.16 363.28C240.14 360.19 237.41 360.73 237.41 360.73C232.93 365.17 227.79 358.57 224.82 360.76C224.82 360.76 223.54 361.69 220.02 364.88C216.5 368.08 210.5 370.21 205.39 372.37C198.8 375.16 196.94 377.93 196.58 379.84C196.3 381.35 196.96 382.31 196.96 382.31L196.97 382.32Z" fill="#00B147"/>
<path d="M196.97 382.32L241.5 382.1C241.83 381.5 242 380.64 242.07 379.62L196.59 379.84C196.31 381.35 196.97 382.31 196.97 382.31V382.32Z" fill="#06602B"/>
<path d="M236.96 382.13H238.28C236.95 380.62 235.71 378.31 235.85 375.01C236.04 370.61 238.67 367.63 240.49 366.08C240.42 365.64 240.35 365.22 240.3 364.85C238.33 366.37 235.01 369.69 234.78 374.97C234.64 378.13 235.69 380.48 236.95 382.14L236.96 382.13Z" fill="#06602B"/>
<path d="M220.8 367.52C221.13 367.52 221.43 367.29 221.51 366.96C221.61 366.57 221.36 366.17 220.97 366.07L218.19 365.39C217.8 365.29 217.4 365.54 217.3 365.93C217.2 366.32 217.45 366.72 217.84 366.82L220.62 367.5C220.68 367.51 220.74 367.52 220.8 367.52Z" fill="#06602B"/>
<path d="M223.87 365.1C224.2 365.1 224.5 364.87 224.58 364.54C224.68 364.15 224.43 363.75 224.04 363.65L221.26 362.97C220.87 362.87 220.47 363.12 220.37 363.51C220.27 363.9 220.52 364.3 220.91 364.4L223.69 365.08C223.75 365.09 223.81 365.1 223.87 365.1Z" fill="#06602B"/>
<path d="M218.03 369.15C218.36 369.15 218.66 368.92 218.74 368.59C218.84 368.2 218.59 367.8 218.2 367.7L215.42 367.02C215.03 366.92 214.63 367.17 214.53 367.56C214.43 367.95 214.68 368.35 215.07 368.45L217.85 369.13C217.91 369.14 217.97 369.15 218.03 369.15Z" fill="#06602B"/>
<path d="M215.25 370.72C215.58 370.72 215.88 370.49 215.96 370.16C216.06 369.77 215.81 369.37 215.42 369.27L212.64 368.59C212.25 368.49 211.85 368.74 211.75 369.13C211.65 369.52 211.9 369.92 212.29 370.02L215.07 370.7C215.13 370.71 215.19 370.72 215.25 370.72Z" fill="#06602B"/>
<path d="M212.23 372.17C212.56 372.17 212.86 371.94 212.94 371.61C213.04 371.22 212.79 370.82 212.4 370.72L209.62 370.04C209.23 369.94 208.83 370.19 208.73 370.58C208.63 370.97 208.88 371.37 209.27 371.47L212.05 372.15C212.11 372.16 212.17 372.17 212.23 372.17Z" fill="#06602B"/>
<path d="M208.95 373.41C209.28 373.41 209.58 373.18 209.66 372.85C209.76 372.46 209.51 372.06 209.12 371.96L206.34 371.28C205.95 371.18 205.55 371.43 205.45 371.82C205.35 372.21 205.6 372.61 205.99 372.71L208.77 373.39C208.83 373.4 208.89 373.41 208.95 373.41Z" fill="#06602B"/>
<path d="M225.34 250C225.14 251.59 224.96 253.03 224.83 254.29C224.8 254.61 224.77 254.95 224.73 255.31C223.4 271.12 224.59 325.68 225 342.74C225.02 343.31 225.03 343.84 225.04 344.32C225.1 346.59 224.86 350.02 224.86 350.02L241.15 351.41C241.15 351.41 241.68 348.03 242.12 345.85C242.23 345.32 242.34 344.74 242.47 344.12C244.29 335.03 248.17 315.54 251.49 298.46C255.99 275.26 255.03 261.46 255.03 261.46C255.03 261.46 254.11 255.93 257.59 242.48C260.46 231.34 272.8 197.13 276.27 185.37C276.97 183 274.59 180.41 274.59 180.41C274.59 180.41 251.96 164.81 244.33 171.77C243.74 172.31 241.72 177.49 241.35 178.26C240.42 180.19 239.31 183.34 238.12 187.28C233.17 203.66 227.43 234.15 225.35 250.02L225.34 250Z" fill="#342216"/>
<path d="M240.24 345.1C240.53 345.14 240.8 344.94 240.84 344.65C240.9 344.22 247.13 301.59 249.36 288.79C251.24 278 251.89 256.82 251.93 255.55C257.03 235.22 270.47 183.4 270.61 182.88C270.68 182.6 270.51 182.31 270.23 182.24C269.95 182.17 269.66 182.34 269.59 182.62C269.45 183.14 255.99 235.06 250.9 255.36C250.9 255.4 250.89 255.44 250.88 255.47C250.88 255.69 250.24 277.62 248.32 288.61C246.09 301.42 239.86 344.07 239.8 344.5C239.76 344.79 239.95 345.05 240.24 345.1Z" fill="#684D3C"/>
<path d="M291.88 349.03L292.47 362.99L306.67 363.25L305.65 350.13L291.88 349.03Z" fill="#E49764"/>
<path d="M309.89 379.01C309.89 379.12 309.89 379.23 309.89 379.33C309.88 379.82 309.86 380.26 309.84 380.64C309.79 381.47 309.73 381.98 309.73 381.98H282.16C282.16 381.98 282.02 380.91 282.13 379.33C282.31 376.51 283.25 372.06 287.05 369.12C292.26 365.09 290.25 365.93 291.32 364.09C291.44 363.89 292.38 360.77 292.48 360.55C293.38 358.64 294.2 357.74 299.14 357.74C305.69 357.74 306.27 360.92 306.97 362.59C307.26 363.28 307.65 364.74 308.06 366.48C308.22 367.18 308.39 367.92 308.55 368.68C308.95 370.58 309.33 372.56 309.59 374.15C309.86 375.85 309.92 377.59 309.9 379L309.89 379.01Z" fill="#00B147"/>
<path d="M309.89 379.01C309.89 379.12 309.89 379.23 309.89 379.33C309.88 379.82 309.86 380.26 309.84 380.64C308.5 379.7 307.54 378.45 306.98 376.93C305.27 372.28 307.9 366.71 308.01 366.47L308.06 366.5C308.22 367.2 308.39 367.94 308.55 368.7C307.93 370.6 307.21 373.79 308.21 376.48C308.57 377.46 309.14 378.31 309.9 379.01H309.89Z" fill="#06602B"/>
<path d="M309.88 379.33C309.84 380.9 309.72 381.98 309.72 381.98H282.15C282.15 381.98 282.01 380.91 282.12 379.33H309.88Z" fill="#06602B"/>
<path d="M300.04 366.34C299.97 366.34 299.91 366.34 299.84 366.31C296.33 365.4 293.48 366.17 293.45 366.18C293.03 366.3 292.6 366.05 292.48 365.63C292.36 365.21 292.61 364.78 293.03 364.66C293.16 364.62 296.32 363.77 300.23 364.78C300.65 364.89 300.9 365.32 300.79 365.74C300.7 366.09 300.38 366.33 300.03 366.33L300.04 366.34Z" fill="#06602B"/>
<path d="M300.5 363.17C300.43 363.17 300.37 363.17 300.3 363.14C296.79 362.23 293.94 363 293.91 363.01C293.49 363.13 293.06 362.88 292.94 362.46C292.82 362.04 293.07 361.61 293.49 361.49C293.62 361.45 296.78 360.6 300.69 361.61C301.11 361.72 301.36 362.15 301.25 362.57C301.16 362.92 300.84 363.16 300.49 363.16L300.5 363.17Z" fill="#06602B"/>
<path d="M298.86 368.83C298.79 368.83 298.73 368.83 298.66 368.8C295.18 367.9 292.3 368.66 292.27 368.67C291.85 368.78 291.42 368.54 291.3 368.12C291.19 367.7 291.43 367.27 291.85 367.15C291.98 367.11 295.14 366.26 299.05 367.28C299.47 367.39 299.72 367.82 299.61 368.24C299.52 368.59 299.2 368.83 298.85 368.83H298.86Z" fill="#06602B"/>
<path d="M297.48 371.66C297.41 371.66 297.35 371.66 297.28 371.63C293.8 370.73 290.92 371.49 290.89 371.5C290.47 371.62 290.04 371.37 289.92 370.95C289.81 370.53 290.05 370.1 290.47 369.98C290.6 369.94 293.76 369.09 297.67 370.1C298.09 370.21 298.34 370.64 298.23 371.06C298.14 371.41 297.82 371.65 297.47 371.65L297.48 371.66Z" fill="#06602B"/>
<path d="M271.64 191.47C272.48 191.66 273.33 191.84 274.18 192.01C285.06 194.21 296.47 195.1 304.46 193.41C308.4 192.58 310.93 188.3 312.53 183.53C312.97 182.23 313.34 180.89 313.65 179.57C315 173.87 315.25 168.59 315.25 168.59L252.12 154.86C252.12 154.86 250.16 158.05 248 162.21C246.43 165.22 244.74 168.73 243.61 171.92C242.93 173.82 242.45 175.6 242.3 177.08C241.83 181.81 255.82 187.95 271.64 191.47Z" fill="#342216"/>
<path d="M276.01 255.97C276.06 257.57 276.11 259.02 276.18 260.29C276.2 260.61 276.22 260.95 276.24 261.31C277.38 277.13 287.03 330.85 290.08 347.64C290.19 348.2 290.28 348.72 290.36 349.19C290.77 351.43 291.01 352.69 291.01 352.69L307.32 351.53C307.32 351.53 307.38 350.26 307.47 348.04C307.5 347.5 307.52 346.91 307.55 346.27C307.93 337.01 308.75 317.15 309.37 299.76C310.21 276.14 307.12 262.66 307.12 262.66C307.12 262.66 305.35 257.34 306.7 243.52C307.81 232.06 311.75 195.62 313.35 183.45C313.67 181 313.86 179.55 313.86 179.55C313.86 179.55 288.28 172.35 281.83 180.41C281.33 181.04 280.94 181.76 280.69 182.58C280.07 184.63 279.46 187.91 278.9 191.99C276.55 208.94 275.62 239.95 276.02 255.95L276.01 255.97Z" fill="#342216"/>
<path d="M290.08 347.64C290.18 348.2 290.28 348.71 290.36 349.19L307.46 348.04C307.48 347.51 307.51 346.92 307.53 346.28L290.07 347.65L290.08 347.64Z" fill="#684D3C"/>
<path d="M307.68 202.29C307.91 202.29 308.13 202.13 308.18 201.89C308.24 201.61 308.07 201.34 307.79 201.27C307.74 201.26 304.81 200.55 301.81 198.09C297.79 194.79 295.57 190.07 295.2 184.05C295.18 183.77 294.94 183.55 294.65 183.57C294.37 183.59 294.15 183.83 294.17 184.12C294.66 192.01 298.26 196.52 301.2 198.92C304.39 201.53 307.43 202.25 307.56 202.28C307.6 202.28 307.64 202.29 307.68 202.29Z" fill="#342216"/>
<path d="M305.49 347.6C305.78 347.6 306.01 347.36 306.01 347.07C306.01 346.64 305.53 303.55 305.75 290.57C305.93 279.62 303.29 258.6 303.13 257.34C305.01 236.47 310.24 183.18 310.29 182.65C310.32 182.36 310.11 182.1 309.82 182.07C309.53 182.04 309.27 182.25 309.24 182.54C309.19 183.08 303.95 236.46 302.07 257.3C302.07 257.34 302.07 257.38 302.07 257.41C302.1 257.63 304.87 279.39 304.69 290.55C304.47 303.55 304.94 346.65 304.95 347.08C304.95 347.37 305.19 347.6 305.48 347.6H305.49Z" fill="#684D3C"/>
<path d="M225.01 342.74C225.02 343.31 225.04 343.83 225.05 344.31L242.12 345.83C242.22 345.31 242.34 344.73 242.47 344.1L225.01 342.74Z" fill="#684D3C"/>
<path d="M276.61 191.56C276.8 191.54 276.97 191.42 277.04 191.23C277.15 190.96 277.01 190.65 276.74 190.55C276.66 190.52 270.78 188.14 268.93 181.73C268.85 181.45 268.56 181.29 268.28 181.37C268 181.45 267.84 181.74 267.92 182.02C269.91 188.96 276.09 191.43 276.36 191.54C276.44 191.57 276.53 191.58 276.61 191.57V191.56Z" fill="#684D3C"/>
<path d="M315.82 168.96C315.59 176.38 241.8 180.24 240.33 167.82C237.74 145.86 236.09 143.37 229.94 132.13C229.26 130.89 228.53 129.56 227.74 128.07C227.51 127.65 227.28 127.22 227.05 126.77C226.48 125.69 225.92 124.64 225.36 123.62C224.6 122.22 223.84 120.88 223.1 119.57C222.12 117.83 221.15 116.17 220.23 114.57C219.41 113.17 218.63 111.83 217.87 110.53C213.43 102.9 210.2 97.04 209.79 92.16C209.25 85.76 225.25 72.84 225.25 72.84L242.22 61.22C242.22 61.22 261.58 58.94 269.97 61.73C281.31 65.51 290.96 98.35 297.45 113.09C303.94 127.83 316.05 161.54 315.82 168.95V168.96Z" fill="#00B147"/>
<path d="M277.27 95.36C255.79 106.38 229.04 112.69 220.22 114.58C219.4 113.18 218.62 111.84 217.86 110.54C224.51 109.17 252.85 102.89 275.24 91.4C276.33 90.84 277.67 91.27 278.23 92.36C278.79 93.45 278.36 94.79 277.27 95.35V95.36Z" fill="#06602B"/>
<path d="M280.98 104.71C260.55 115.19 235.37 121.41 225.36 123.62C224.6 122.22 223.84 120.88 223.1 119.57C231.8 117.7 257.99 111.52 278.96 100.76C280.05 100.2 281.39 100.63 281.95 101.72C282.51 102.81 282.08 104.15 280.99 104.71H280.98Z" fill="#06602B"/>
<path d="M284.72 113.41C264.85 123.61 240.47 129.77 229.95 132.13C229.27 130.89 228.54 129.56 227.75 128.07C237.26 125.99 262.42 119.86 282.69 109.45C283.78 108.89 285.12 109.32 285.68 110.41C286.24 111.5 285.81 112.84 284.72 113.4V113.41Z" fill="#06602B"/>
<path d="M225.62 124.6C225.45 124.6 225.29 124.52 225.2 124.37C224.7 123.56 212.94 104.39 212.45 94.15C212.44 93.88 212.65 93.65 212.92 93.63C213.19 93.62 213.42 93.83 213.44 94.1C213.92 104.09 225.93 123.65 226.05 123.85C226.19 124.08 226.12 124.39 225.89 124.53C225.81 124.58 225.72 124.6 225.63 124.6H225.62Z" fill="#06602B"/>
<path d="M307.85 165.44C308.18 165.38 308.4 165.06 308.34 164.73C305.96 150.61 300.94 136.82 292.99 122.57C284 106.45 277.54 80.7 277.48 80.44C277.4 80.11 277.07 79.91 276.73 79.99C276.4 80.07 276.2 80.41 276.28 80.74C276.34 81 282.84 106.91 291.91 123.17C299.79 137.3 304.76 150.96 307.12 164.94C307.18 165.28 307.49 165.5 307.83 165.45C307.83 165.45 307.83 165.45 307.84 165.45L307.85 165.44Z" fill="#06602B"/>
<path d="M278.76 145.07C272.56 146.25 265.31 145.81 257.3 143.74C247.94 141.32 240.74 137.48 240.67 137.44C240.36 137.27 240.25 136.89 240.41 136.58C240.58 136.27 240.96 136.16 241.27 136.32C241.34 136.36 248.43 140.14 257.65 142.52C266.09 144.7 278.11 146.13 287.41 140.53C287.71 140.35 288.1 140.45 288.28 140.75C288.46 141.05 288.36 141.44 288.06 141.62C285.32 143.27 282.21 144.42 278.76 145.08V145.07Z" fill="#06602B"/>
<path d="M279.53 155.94C272.93 157.19 267.08 156.45 263.05 155.47C257.74 154.19 254.45 152.29 254.31 152.21C254.01 152.03 253.9 151.65 254.08 151.34C254.26 151.04 254.64 150.93 254.95 151.11C255.08 151.18 268.08 158.56 283.51 153.62C283.84 153.51 284.2 153.7 284.31 154.03C284.42 154.36 284.23 154.72 283.9 154.83C282.42 155.3 280.96 155.67 279.54 155.94H279.53Z" fill="#06602B"/>
<path d="M238.22 78.65C232.68 79.7 227.56 76.96 227.33 76.83C227.02 76.66 226.91 76.28 227.08 75.97C227.25 75.66 227.63 75.55 227.94 75.72C228.02 75.77 233.84 78.86 239.4 77.04C242.58 76 245.09 73.55 246.88 69.75C247.03 69.43 247.41 69.3 247.72 69.45C248.04 69.6 248.17 69.98 248.02 70.29C246.08 74.42 243.31 77.09 239.78 78.24C239.26 78.41 238.73 78.54 238.22 78.64V78.65Z" fill="#06602B"/>
<path d="M208.79 50.14C208.79 50.14 204.67 48.29 203.5 44.65C202.33 41.01 204.6 39.27 204.6 39.27C204.6 39.27 195.28 38.31 195.46 34.24C195.64 30.17 202.19 32.13 202.19 32.13C202.19 32.13 195.71 27.42 199.94 25.31C204.17 23.2 209.62 25.49 209.62 25.49C209.62 25.49 210.98 21.53 217.65 21.64C224.33 21.74 225.82 23.36 225.82 23.36C225.82 23.36 230.12 19.22 233.03 21.04C235.94 22.86 231.24 25.89 231.24 25.89C231.24 25.89 239.67 25 238.78 27.78C237.88 30.56 233.93 30.48 233.93 30.48C233.93 30.48 241.16 35.39 240.56 45.28C239.95 55.18 237.38 55.61 237.38 55.61C237.38 55.61 220.54 42.09 208.79 50.13V50.14Z" fill="#BC6C25"/>
<path d="M214.96 50.32C214.96 50.32 211.43 46.46 208.23 49.19C205.02 51.93 210.56 64.25 217.39 60.62L214.96 50.32Z" fill="#D1703A"/>
<path d="M242.86 61.1C242.86 61.1 244.68 64.63 239 70.01C234.96 73.83 232.25 73.59 229.48 73.45C228.35 73.39 227.65 73.26 227.65 73.26C226.1 67.62 223.5 64.79 222.84 64.13C222.74 64.03 222.68 63.98 222.68 63.98L235.58 46.24L242.86 61.1Z" fill="#E49764"/>
<path d="M236.67 54.37C236.67 54.37 238.48 68.06 229.47 73.45C228.34 73.39 227.64 73.26 227.64 73.26C226.09 67.62 223.49 64.79 222.83 64.13L236.67 54.37Z" fill="#342216"/>
<path d="M233.04 63.89C226.55 68.96 219.23 68.78 215.4 62.95C214.47 61.55 213.3 59.43 212.13 57.2C212.12 57.18 212.11 57.16 212.09 57.13C211.84 56.66 211.59 56.17 211.34 55.69C211.16 55.34 210.98 54.99 210.81 54.65C208.77 50.64 207.04 46.95 207.04 46.95C203.02 36.47 210.99 27.75 220.8 27.52C230.61 27.29 233.74 40.95 236.72 46.87C239.71 52.8 238.6 59.54 233.03 63.88L233.04 63.89Z" fill="#E49764"/>
<path d="M220.77 47.04C220.9 46.93 220.96 46.76 220.92 46.58C220.92 46.57 220.63 45.12 221.44 44.57C222.32 43.97 223.37 44.25 223.38 44.25C223.63 44.32 223.9 44.17 223.97 43.92C224.04 43.67 223.9 43.4 223.64 43.33C223.58 43.31 222.16 42.92 220.9 43.78C219.56 44.69 219.97 46.69 219.99 46.78C220.04 47.04 220.3 47.2 220.56 47.15C220.64 47.13 220.71 47.09 220.77 47.04Z" fill="#342216"/>
<path d="M215.08 50.1C215.08 50.1 215.09 50.1 215.1 50.09C215.29 49.91 215.3 49.61 215.12 49.41C215.07 49.36 213.83 48.08 212.5 48.59C211.26 49.07 210.84 50.29 210.83 50.34C210.75 50.59 210.88 50.86 211.13 50.94C211.38 51.02 211.65 50.89 211.73 50.64C211.73 50.62 212.04 49.79 212.85 49.48C213.58 49.2 214.42 50.06 214.43 50.07C214.61 50.26 214.9 50.27 215.09 50.1H215.08Z" fill="#342216"/>
<path d="M221.65 57.46C222.02 57.2 222.39 56.86 222.76 56.42C224.66 54.15 224.6 50.92 224.59 50.79C224.59 50.58 224.41 50.42 224.2 50.42C223.99 50.42 223.83 50.6 223.83 50.81C223.83 50.84 223.89 53.89 222.17 55.94C220.47 57.97 218.65 57.45 218.63 57.44C218.43 57.38 218.22 57.49 218.16 57.69C218.1 57.89 218.21 58.1 218.41 58.16C218.49 58.18 219.99 58.62 221.64 57.46H221.65Z" fill="#342216"/>
<path d="M222.38 59.36C222.16 59.4 222.02 59.4 222 59.4C221.72 59.4 221.49 59.19 221.48 58.92C221.48 58.65 221.68 58.41 221.96 58.4C222.04 58.4 223.83 58.3 224.6 56.64C224.72 56.39 225.01 56.28 225.26 56.4C225.51 56.52 225.62 56.81 225.5 57.06C224.7 58.78 223.1 59.23 222.37 59.35L222.38 59.36Z" fill="#D1703A"/>
<path d="M208.35 49.67C208.35 49.67 207.63 46.04 206.25 42.3C205.79 41.06 206.99 39.47 208.03 38.66C208.45 38.33 208.92 38.07 209.4 38.01C210.96 37.8 211.99 39.21 213.48 37.68C214.97 36.15 215.78 32.34 219.23 32C222.68 31.66 222.67 33.84 224.77 35.22C226.87 36.6 227.39 40.97 230.1 42.81C232.81 44.65 232.29 35.59 232.29 35.59C232.29 35.59 225.99 23.81 216.99 25.79C207.99 27.77 201.1 38.12 208.35 49.68V49.67Z" fill="#BC6C25"/>
<path d="M231.12 45.73C231.44 46.48 230.19 47.75 228.31 48.55C226.44 49.35 224.65 49.39 224.33 48.64C224.01 47.89 225.26 46.62 227.14 45.82C229.01 45.02 230.79 44.98 231.12 45.73Z" fill="#D1703A"/>
<path d="M213 56.89C212.71 57.01 212.42 57.12 212.13 57.21C212.12 57.19 212.11 57.17 212.09 57.14C211.84 56.67 211.59 56.18 211.34 55.7C211.16 55.35 210.98 55 210.81 54.66C211.12 54.48 211.46 54.31 211.82 54.15C213.69 53.35 215.47 53.31 215.8 54.06C216.13 54.81 214.87 56.08 212.99 56.88L213 56.89Z" fill="#D1703A"/>
<path d="M219.69 54.36C219.63 54.38 219.57 54.39 219.5 54.39C217.3 54.12 216.69 53.69 216.58 53.61C216.49 53.53 216.44 53.41 216.45 53.29L216.96 48.54C216.96 48.54 216.96 48.51 216.96 48.5C217.15 47.65 216.61 46.37 215.93 44.92C215.85 44.74 215.93 44.52 216.11 44.44C216.3 44.36 216.51 44.44 216.59 44.62C217.32 46.19 217.9 47.57 217.67 48.65L217.19 53.14C217.47 53.26 218.15 53.51 219.58 53.68C219.78 53.7 219.92 53.89 219.9 54.08C219.88 54.21 219.8 54.32 219.68 54.37L219.69 54.36Z" fill="#342216"/>
<path d="M231.15 39.49C231.15 39.49 231.51 35.12 235.73 35C239.94 34.89 244.08 47.74 236.57 49.62L231.15 39.48V39.49Z" fill="#E49764"/>
<path d="M235.76 44.74C235.76 44.74 235.71 44.76 235.68 44.76C235.48 44.8 235.29 44.67 235.26 44.47C235.23 44.3 234.51 40.34 237.38 38.24C237.54 38.12 237.77 38.16 237.89 38.32C238.01 38.48 237.97 38.71 237.81 38.83C235.3 40.67 235.96 44.3 235.97 44.34C236 44.51 235.91 44.68 235.76 44.74Z" fill="#342216"/>
<path d="M238.11 42.19C238.03 42.23 237.93 42.23 237.84 42.19C237.84 42.19 236.87 41.82 235.8 41.52C235.61 41.47 235.5 41.27 235.55 41.07C235.6 40.88 235.8 40.77 236 40.82C237.11 41.13 238.06 41.5 238.1 41.51C238.29 41.58 238.38 41.79 238.31 41.98C238.27 42.08 238.2 42.15 238.11 42.18V42.19Z" fill="#342216"/>
<path d="M217.94 38.24C217.94 38.24 220.45 36.65 222.47 37.75C224.33 38.76 222.89 40.03 222.01 39.81C220.88 39.52 219.91 39.6 218.61 40.03C217.31 40.46 216.96 38.79 217.94 38.24Z" fill="#BC6C25"/>
<path d="M211.01 41.69C211.01 41.69 208.25 42.79 207.96 45.08C207.69 47.18 209.56 46.75 209.9 45.91C210.33 44.83 210.96 44.08 212.07 43.28C213.18 42.48 212.03 41.21 211.01 41.69Z" fill="#BC6C25"/>
<path d="M281.56 70.25L281.91 70.97L282.23 71.65L282.85 73C283.26 73.9 283.64 74.8 284.03 75.7C284.81 77.5 285.54 79.31 286.25 81.14C287.66 84.79 288.97 88.5 290.15 92.3C290.75 94.2 291.29 96.12 291.81 98.07C292.32 100.03 292.8 102.01 293.23 104.04C293.65 106.07 294.02 108.16 294.3 110.33C294.57 112.52 294.78 114.77 294.76 117.28C294.75 118.54 294.69 119.86 294.5 121.31C294.41 122.04 294.28 122.79 294.1 123.6C294.01 124.01 293.92 124.41 293.79 124.85L293.6 125.49L293.36 126.18C292.69 128.02 291.77 129.64 290.77 131C289.77 132.37 288.69 133.5 287.61 134.47C285.44 136.41 283.27 137.76 281.15 138.88C279.03 140 276.94 140.83 274.88 141.57C270.76 143 266.72 143.91 262.7 144.56C260.69 144.88 258.69 145.12 256.68 145.3C255.68 145.38 254.67 145.45 253.66 145.51C253.16 145.54 252.65 145.55 252.14 145.57L251.37 145.59H250.54C247.09 145.64 244.26 142.88 244.22 139.43C244.19 136.85 245.73 134.62 247.95 133.64L248.83 133.25L248.88 133.23L248.95 133.21L249.1 133.16L249.4 133.06L250.02 132.85L251.28 132.42C252.13 132.14 252.97 131.85 253.82 131.55C255.51 130.96 257.18 130.35 258.82 129.72C262.09 128.46 265.27 127.09 268.1 125.58C269.51 124.84 270.83 124.04 271.96 123.24C273.08 122.44 274.02 121.62 274.58 120.94C274.85 120.6 275.03 120.32 275.11 120.14C275.19 119.95 275.15 119.89 275.09 119.94C275.03 120 275.09 119.71 275.09 119.29C275.1 118.86 275.09 118.29 275.04 117.67C274.95 116.41 274.75 114.91 274.46 113.37C274.17 111.82 273.82 110.2 273.4 108.55C272.58 105.26 271.57 101.88 270.5 98.48C269.42 95.08 268.26 91.66 267.07 88.24L265.26 83.1L263.46 78.06L263.4 77.88C261.57 72.75 264.24 67.1 269.38 65.27C274.16 63.56 279.42 65.82 281.59 70.28L281.56 70.25Z" fill="#E49764"/>
<path d="M229.07 129.54H223.28C220.77 129.54 218.73 127.5 218.73 124.99V118.15C218.73 115.64 220.77 113.6 223.28 113.6H229.07C231.58 113.6 233.62 115.64 233.62 118.15V124.99C233.62 127.5 231.58 129.54 229.07 129.54ZM223.28 115.94C222.06 115.94 221.07 116.93 221.07 118.15V124.99C221.07 126.21 222.06 127.2 223.28 127.2H229.07C230.29 127.2 231.28 126.21 231.28 124.99V118.15C231.28 116.93 230.29 115.94 229.07 115.94H223.28Z" fill="#FEFAE0"/>
<path d="M228.39 133.41C222.73 135.11 217.07 135.11 211.41 133.41V110.17C217.07 109.78 222.73 109.78 228.39 110.17V133.41Z" fill="#FEFAE0"/>
<path d="M236.75 135.58H206.91C206.03 135.58 205.31 134.86 205.31 133.98C205.31 133.1 206.03 132.38 206.91 132.38H236.75C237.63 132.38 238.35 133.1 238.35 133.98C238.35 134.86 237.63 135.58 236.75 135.58Z" fill="#342216"/>
<path d="M227.86 141.34C227.86 141.34 221.41 141.12 219.37 140C217.34 138.88 212.61 137.28 212.35 135.93C212.09 134.58 223.58 137.63 223.58 137.63L227.86 141.34Z" fill="#D1703A"/>
<path d="M248.67 137.08C248.67 137.08 244.59 133.49 240.76 132.38C236.93 131.26 231.31 129.02 227.74 131.11C226.86 131.63 226.54 132.39 229.82 133.06C231.59 133.42 234.22 134.16 233.61 134.91C233 135.66 229.8 136.25 226 135.42C222.2 134.59 214.88 132.08 212.75 132.72C210.62 133.36 214.33 135.46 217.25 136.94C219.97 138.32 222.19 140.29 227.13 142.73C230.43 144.36 250.25 145.6 250.25 145.6C250.25 145.6 249.83 143.75 248.66 137.08H248.67Z" fill="#E49764"/>
<path d="M267.64 63.91C267.64 63.91 259.09 68.27 262.05 78.9C265.01 89.53 267.64 103.49 267.64 103.49C267.64 103.49 287.2 102.92 293.61 98.52C293.61 98.52 285.88 54.9 267.64 63.91Z" fill="#00B147"/>
<path d="M267.45 103.03C267.23 103.03 267.02 102.88 266.97 102.65C266.93 102.47 262.77 84.82 261.04 76.39C260.99 76.12 261.16 75.86 261.42 75.81C261.69 75.76 261.95 75.93 262 76.19C263.72 84.6 267.88 102.24 267.92 102.42C267.98 102.69 267.82 102.95 267.55 103.01C267.51 103.01 267.47 103.02 267.44 103.02L267.45 103.03Z" fill="#06602B"/>
<path d="M262.79 82.7C262.69 82.7 262.58 82.67 262.5 82.6L259.49 80.36C259.27 80.2 259.23 79.89 259.39 79.67C259.55 79.45 259.86 79.41 260.08 79.57L263.09 81.81C263.31 81.97 263.35 82.28 263.19 82.5C263.09 82.63 262.94 82.7 262.79 82.7Z" fill="#06602B"/>
</g>
<defs>
<clipPath id="clip0_9_720">
<rect width="338.15" height="384.95" fill="white"/>
</clipPath>
</defs>
</svg>
