<svg width="371" height="388" viewBox="0 0 371 388" fill="none" xmlns="http://www.w3.org/2000/svg">
<g clip-path="url(#clip0_8_220)">
<path d="M305.61 35.77C287.31 6.95 244.16 -9.96 214.19 6.39C213.66 6.68 213.13 6.97 212.6 7.27C170.11 31.45 200.11 85.66 166.55 115.23C132.99 144.8 85.63 133.15 53.31 180.88C24.28 223.75 75.57 328.54 195.85 257.7C292.08 201.02 360.21 121.75 305.61 35.77Z" fill="#E8E3C5"/>
<path d="M44.95 235.93C47.4 239.79 46.26 244.91 42.4 247.36C38.54 249.81 33.42 248.67 30.97 244.81C28.52 240.95 29.66 235.83 33.52 233.38C37.38 230.93 42.5 232.07 44.95 235.93Z" fill="#E8E3C5"/>
<path d="M169.1 77.42C172.87 76.28 176.84 78.41 177.98 82.17C179.12 85.94 176.99 89.91 173.23 91.05C169.46 92.19 165.49 90.06 164.35 86.3C163.21 82.53 165.34 78.56 169.1 77.42Z" fill="#E8E3C5"/>
<path d="M337.249 110.164C341.132 109.545 343.778 105.895 343.159 102.012C342.54 98.1289 338.89 95.4829 335.007 96.1021C331.123 96.7213 328.477 100.371 329.097 104.254C329.716 108.138 333.366 110.784 337.249 110.164Z" fill="#E8E3C5"/>
<path d="M162.39 97.83C164.66 97.14 167.06 98.42 167.74 100.69C168.43 102.96 167.15 105.36 164.88 106.04C162.61 106.73 160.21 105.45 159.53 103.18C158.84 100.91 160.12 98.51 162.39 97.83Z" fill="#E8E3C5"/>
<path d="M37.92 217.51C39.51 219.63 38.84 222.66 36.49 223.9C34.64 224.88 32.32 224.36 31.06 222.69C29.47 220.57 30.14 217.54 32.49 216.3C34.34 215.32 36.66 215.84 37.92 217.51Z" fill="#E8E3C5"/>
<path d="M337.44 82.23C339.09 83.94 339.04 86.65 337.33 88.3C335.62 89.95 332.91 89.9 331.26 88.19C329.61 86.48 329.66 83.77 331.37 82.12C333.08 80.47 335.79 80.52 337.44 82.23Z" fill="#E8E3C5"/>
<path d="M370.52 381.35C370.52 384.49 287.58 387.04 185.26 387.04C82.94 387.04 0 384.49 0 381.35C0 378.21 82.94 375.66 185.26 375.66C287.58 375.66 370.52 378.21 370.52 381.35Z" fill="#C6BF9E"/>
<path d="M159.22 76.49L161.74 80.77C162.6 82.21 163.46 83.65 164.34 85.08C166.08 87.95 167.84 90.79 169.62 93.59C171.41 96.39 173.22 99.15 175.06 101.79C175.99 103.1 176.91 104.39 177.84 105.61C178.77 106.83 179.71 107.99 180.57 108.95C180.79 109.19 180.99 109.39 181.19 109.62L181.24 109.67L181.26 109.69C181.26 109.69 181.28 109.72 181.3 109.74C181.34 109.78 181.38 109.82 181.42 109.87C181.61 110.06 181.93 110.3 182.33 110.55C183.13 111.06 184.26 111.58 185.5 112.05C186.74 112.53 188.12 112.95 189.55 113.33C190.99 113.71 192.48 114.04 194.01 114.34C195.54 114.64 197.11 114.9 198.69 115.12C200.27 115.35 201.88 115.55 203.49 115.73C205.1 115.91 206.73 116.07 208.35 116.19C209.16 116.25 209.98 116.31 210.79 116.36L212 116.44L213.14 116.5L213.45 116.52C217.55 116.74 220.7 120.24 220.48 124.35C220.28 128.14 217.27 131.11 213.58 131.37L212.14 131.47L210.77 131.55C209.86 131.6 208.96 131.63 208.05 131.66C206.24 131.72 204.43 131.74 202.62 131.74C198.99 131.71 195.33 131.54 191.59 131.15C189.72 130.96 187.83 130.7 185.91 130.36C183.98 130.01 182.03 129.59 180 129C177.98 128.4 175.89 127.67 173.67 126.54C172.56 125.97 171.42 125.3 170.25 124.44C169.96 124.22 169.66 123.99 169.37 123.76L168.93 123.38L168.71 123.19L168.6 123.09L168.52 123.02C168.12 122.64 167.69 122.25 167.31 121.87C165.78 120.36 164.49 118.91 163.25 117.46C162.02 116.01 160.85 114.57 159.74 113.12C157.51 110.23 155.41 107.33 153.39 104.41C151.36 101.49 149.42 98.55 147.52 95.59C146.57 94.11 145.64 92.62 144.71 91.12L143.33 88.87L141.95 86.56C139.12 81.82 140.68 75.68 145.42 72.86C150.16 70.03 156.3 71.59 159.12 76.33L159.14 76.37L159.22 76.5V76.49Z" fill="#9D4839"/>
<path d="M177.46 117.3C177.39 117.3 177.33 117.29 177.26 117.26C177.01 117.15 176.9 116.86 177 116.61C178.58 112.96 181.04 110.68 181.14 110.59C181.34 110.41 181.65 110.42 181.84 110.62C182.02 110.82 182.01 111.13 181.81 111.32C181.79 111.34 179.4 113.56 177.91 117.01C177.83 117.2 177.65 117.31 177.46 117.31V117.3Z" fill="#77281D"/>
<path d="M176.81 112.27C176.59 112.27 176.38 112.12 176.33 111.89C176.27 111.62 176.43 111.36 176.7 111.3C176.8 111.28 179.07 110.75 181.06 110.96C181.33 110.99 181.53 111.23 181.5 111.5C181.47 111.77 181.23 111.97 180.96 111.94C179.14 111.75 176.95 112.25 176.93 112.26C176.89 112.26 176.85 112.27 176.82 112.27H176.81Z" fill="#77281D"/>
<path d="M154.85 67.74C154.85 67.74 171.13 92.21 174.91 97.12C174.91 97.12 167.93 108.16 157.55 116.36L145.76 99.22C145.76 99.22 143.35 73.62 154.86 67.73L154.85 67.74Z" fill="#0055A6"/>
<path d="M174.77 345.4L176.22 362.6L163.46 362.8L160.55 346.27L174.77 345.4Z" fill="#9D4839"/>
<path d="M206.73 382.81L160.11 382.31C159.77 381.68 159.59 380.78 159.52 379.71C159.27 375.76 160.6 369.48 161.25 365.52C161.33 365.06 161.4 364.62 161.45 364.23C161.54 363.57 161.6 363.02 161.61 362.61C161.64 359.37 164.51 359.96 164.51 359.96C169.18 364.64 174.59 357.76 177.69 360.07C177.69 360.07 179.02 361.05 182.69 364.42C186.35 367.79 192.63 370.05 197.96 372.35C204.85 375.32 206.78 378.23 207.14 380.22C207.43 381.8 206.73 382.81 206.73 382.81Z" fill="#00B147"/>
<path d="M206.73 382.81L160.11 382.31C159.77 381.68 159.59 380.78 159.52 379.71L207.14 380.22C207.43 381.8 206.73 382.81 206.73 382.81Z" fill="#353F18"/>
<path d="M164.86 382.36H163.48C164.88 380.78 166.2 378.37 166.07 374.91C165.89 370.3 163.16 367.17 161.26 365.53C161.34 365.07 161.41 364.63 161.46 364.24C163.51 365.84 166.96 369.34 167.18 374.86C167.31 378.17 166.19 380.63 164.87 382.36H164.86Z" fill="#353F18"/>
<path d="M181.87 367.17C181.53 367.17 181.21 366.93 181.13 366.58C181.03 366.17 181.29 365.75 181.7 365.66L184.62 364.97C185.03 364.87 185.45 365.13 185.54 365.54C185.64 365.95 185.38 366.37 184.97 366.46L182.05 367.15C181.99 367.16 181.93 367.17 181.86 367.17H181.87Z" fill="#353F18"/>
<path d="M178.68 364.62C178.34 364.62 178.02 364.38 177.94 364.03C177.84 363.62 178.1 363.2 178.51 363.11L181.43 362.42C181.84 362.32 182.26 362.58 182.35 362.99C182.45 363.4 182.19 363.82 181.78 363.91L178.86 364.6C178.8 364.61 178.74 364.62 178.67 364.62H178.68Z" fill="#353F18"/>
<path d="M184.76 368.89C184.42 368.89 184.1 368.65 184.02 368.3C183.92 367.89 184.18 367.47 184.59 367.38L187.51 366.69C187.92 366.59 188.34 366.85 188.43 367.26C188.53 367.67 188.27 368.09 187.86 368.18L184.94 368.87C184.88 368.88 184.82 368.89 184.75 368.89H184.76Z" fill="#353F18"/>
<path d="M187.66 370.55C187.32 370.55 187 370.31 186.92 369.96C186.82 369.55 187.08 369.13 187.49 369.04L190.41 368.35C190.82 368.25 191.24 368.51 191.33 368.92C191.43 369.33 191.17 369.75 190.76 369.84L187.84 370.53C187.78 370.54 187.72 370.55 187.65 370.55H187.66Z" fill="#353F18"/>
<path d="M190.82 372.09C190.48 372.09 190.16 371.85 190.08 371.5C189.98 371.09 190.24 370.67 190.65 370.58L193.57 369.89C193.98 369.79 194.4 370.05 194.49 370.46C194.59 370.87 194.33 371.29 193.92 371.38L191 372.07C190.94 372.08 190.88 372.09 190.81 372.09H190.82Z" fill="#353F18"/>
<path d="M194.25 373.41C193.91 373.41 193.59 373.17 193.51 372.82C193.41 372.41 193.67 371.99 194.08 371.9L197 371.21C197.41 371.11 197.83 371.37 197.92 371.78C198.02 372.19 197.76 372.61 197.35 372.7L194.43 373.39C194.37 373.41 194.31 373.41 194.24 373.41H194.25Z" fill="#353F18"/>
<path d="M176.37 244.29C176.58 245.95 176.76 247.46 176.9 248.78C176.93 249.12 176.97 249.47 177.01 249.85C178.4 266.4 177.16 323.54 176.73 341.4C176.71 342 176.7 342.55 176.69 343.05C176.63 345.43 176.88 349.01 176.88 349.01L159.83 350.46C159.83 350.46 159.27 346.93 158.82 344.64C158.7 344.09 158.59 343.48 158.45 342.82C156.55 333.31 152.48 312.9 149.01 295.01C144.3 270.72 145.3 256.27 145.3 256.27C145.3 256.27 146.26 250.48 142.62 236.4C139.61 224.73 129.61 187.67 125.98 175.35C125.25 172.86 124.82 171.4 124.82 171.4C124.82 171.4 148.52 155.06 156.5 162.35C157.12 162.92 159.24 168.34 159.62 169.14C160.59 171.16 161.76 174.45 163 178.59C168.18 195.74 174.19 227.67 176.38 244.29H176.37Z" fill="#342216"/>
<path d="M160.78 343.87C160.48 343.91 160.2 343.71 160.15 343.4C160.08 342.95 153.57 298.31 151.23 284.91C149.26 273.61 148.58 251.44 148.54 250.11C143.2 228.83 129.13 174.56 128.98 174.02C128.9 173.72 129.08 173.42 129.38 173.35C129.67 173.27 129.98 173.45 130.05 173.75C130.19 174.3 144.29 228.66 149.62 249.91C149.62 249.95 149.64 249.99 149.64 250.03C149.64 250.26 150.31 273.22 152.32 284.73C154.66 298.14 161.18 342.8 161.24 343.25C161.28 343.55 161.08 343.83 160.78 343.88V343.87Z" fill="#684D3C"/>
<path d="M114.77 347.99L114.14 362.6L99.27 362.89L100.34 349.15L114.77 347.99Z" fill="#9D4839"/>
<path d="M95.9 379.38C95.9 379.5 95.9 379.61 95.9 379.72C95.91 380.23 95.93 380.69 95.95 381.09C96 381.96 96.07 382.49 96.07 382.49H124.93C124.93 382.49 125.07 381.37 124.96 379.72C124.77 376.77 123.79 372.11 119.8 369.03C114.34 364.81 116.45 365.69 115.33 363.77C115.2 363.56 114.22 360.29 114.12 360.06C113.18 358.06 112.32 357.12 107.15 357.12C100.29 357.12 99.69 360.45 98.95 362.2C98.65 362.93 98.23 364.45 97.81 366.27C97.64 367 97.46 367.78 97.29 368.57C96.87 370.56 96.47 372.64 96.2 374.29C95.91 376.07 95.85 377.89 95.88 379.37L95.9 379.38Z" fill="#00B147"/>
<path d="M95.9 379.38C95.9 379.5 95.9 379.61 95.9 379.72C95.91 380.23 95.93 380.69 95.95 381.09C97.36 380.1 98.36 378.8 98.95 377.2C100.74 372.34 97.99 366.5 97.87 366.25L97.81 366.28C97.64 367.01 97.46 367.79 97.29 368.58C97.94 370.57 98.69 373.91 97.65 376.73C97.27 377.76 96.68 378.64 95.88 379.38H95.9Z" fill="#353F18"/>
<path d="M95.91 379.72C95.95 381.36 96.08 382.49 96.08 382.49H124.94C124.94 382.49 125.08 381.37 124.97 379.72H95.9H95.91Z" fill="#353F18"/>
<path d="M106.21 366.12C106.28 366.12 106.35 366.12 106.42 366.09C110.09 365.14 113.08 365.94 113.11 365.95C113.55 366.07 114 365.81 114.12 365.38C114.24 364.94 113.98 364.49 113.55 364.37C113.41 364.33 110.1 363.44 106.01 364.5C105.57 364.61 105.31 365.06 105.42 365.5C105.52 365.87 105.85 366.12 106.22 366.12H106.21Z" fill="#353F18"/>
<path d="M105.74 362.79C105.81 362.79 105.88 362.79 105.95 362.76C109.62 361.81 112.61 362.61 112.64 362.62C113.08 362.74 113.53 362.48 113.65 362.05C113.77 361.61 113.51 361.16 113.08 361.04C112.94 361 109.63 360.11 105.54 361.17C105.1 361.28 104.84 361.73 104.95 362.17C105.05 362.54 105.38 362.79 105.75 362.79H105.74Z" fill="#353F18"/>
<path d="M107.45 368.73C107.52 368.73 107.59 368.73 107.66 368.7C111.31 367.76 114.32 368.55 114.35 368.56C114.79 368.68 115.24 368.42 115.36 367.98C115.48 367.54 115.22 367.09 114.79 366.97C114.65 366.93 111.34 366.04 107.25 367.1C106.81 367.21 106.55 367.66 106.66 368.1C106.76 368.47 107.09 368.72 107.46 368.72L107.45 368.73Z" fill="#353F18"/>
<path d="M108.9 371.69C108.97 371.69 109.04 371.69 109.11 371.66C112.76 370.72 115.77 371.51 115.8 371.52C116.24 371.64 116.69 371.38 116.81 370.94C116.93 370.5 116.67 370.05 116.24 369.93C116.1 369.89 112.79 369 108.7 370.06C108.26 370.17 108 370.62 108.11 371.06C108.21 371.43 108.54 371.68 108.91 371.68L108.9 371.69Z" fill="#353F18"/>
<path d="M130.73 183.01C129.95 183.21 129.16 183.39 128.37 183.58C118.28 185.88 107.7 186.82 100.29 185.05C96.63 184.18 94.29 179.7 92.81 174.7C92.4 173.34 92.06 171.93 91.77 170.55C90.52 164.58 90.28 159.06 90.28 159.06L148.82 144.68C148.82 144.68 150.63 148.02 152.64 152.37C154.1 155.52 155.66 159.2 156.71 162.53C157.34 164.52 157.79 166.39 157.92 167.94C158.35 172.89 145.39 179.32 130.71 183.01H130.73Z" fill="#342216"/>
<path d="M131.38 250.55C131.33 252.23 131.28 253.75 131.21 255.07C131.19 255.41 131.17 255.76 131.15 256.14C129.96 272.71 119.85 328.95 116.66 346.53C116.55 347.12 116.45 347.66 116.36 348.15C115.93 350.49 115.68 351.82 115.68 351.82L98.61 350.61C98.61 350.61 98.55 349.28 98.46 346.95C98.43 346.38 98.41 345.77 98.38 345.1C97.98 335.41 97.13 314.61 96.48 296.4C95.6 271.67 98.83 257.56 98.83 257.56C98.83 257.56 100.68 251.99 99.27 237.52C98.11 225.52 93.99 187.36 92.31 174.62C91.97 172.05 91.78 170.54 91.78 170.54C91.78 170.54 118.57 163.01 125.32 171.44C125.84 172.1 126.26 172.86 126.51 173.71C127.16 175.86 127.79 179.29 128.38 183.57C130.84 201.32 131.81 233.79 131.39 250.55H131.38Z" fill="#342216"/>
<path d="M116.64 346.53C116.53 347.11 116.43 347.65 116.34 348.15L98.43 346.95C98.41 346.39 98.38 345.77 98.35 345.1L116.63 346.53H116.64Z" fill="#684D3C"/>
<path d="M98.21 194.35C97.96 194.35 97.74 194.18 97.68 193.93C97.61 193.64 97.79 193.35 98.08 193.28C98.13 193.27 101.2 192.52 104.34 189.95C108.55 186.49 110.88 181.55 111.26 175.25C111.28 174.95 111.54 174.72 111.83 174.74C112.13 174.76 112.35 175.01 112.34 175.31C111.83 183.57 108.06 188.3 104.98 190.81C101.64 193.54 98.45 194.3 98.32 194.33C98.28 194.33 98.24 194.34 98.2 194.34L98.21 194.35Z" fill="#684D3C"/>
<path d="M100.51 346.5C100.2 346.5 99.96 346.25 99.96 345.94C99.96 345.49 100.46 300.37 100.23 286.78C100.04 275.31 102.81 253.3 102.97 251.98C101 230.12 95.52 174.33 95.47 173.77C95.44 173.47 95.66 173.2 95.97 173.17C96.27 173.14 96.54 173.36 96.57 173.67C96.63 174.23 102.11 230.13 104.08 251.95C104.08 251.99 104.08 252.03 104.08 252.07C104.05 252.3 101.14 275.08 101.34 286.77C101.57 300.38 101.07 345.51 101.07 345.96C101.07 346.26 100.82 346.51 100.52 346.51L100.51 346.5Z" fill="#684D3C"/>
<path d="M176.72 341.4C176.71 341.99 176.69 342.54 176.68 343.04L158.8 344.63C158.69 344.08 158.57 343.48 158.44 342.82L176.72 341.39V341.4Z" fill="#684D3C"/>
<path d="M130.75 183.11C130.55 183.09 130.37 182.96 130.3 182.76C130.19 182.48 130.33 182.16 130.61 182.05C130.7 182.02 136.85 179.52 138.78 172.81C138.86 172.52 139.17 172.35 139.46 172.43C139.75 172.51 139.92 172.82 139.84 173.11C137.75 180.38 131.28 182.97 131.01 183.07C130.92 183.1 130.83 183.11 130.75 183.1V183.11Z" fill="#684D3C"/>
<path d="M131.79 57.6C131.79 57.6 111.3 57.17 106.04 59.48C101.98 61.26 99.21 59.89 95.24 73.54C91.27 87.18 90.28 102.44 89.08 116.1C88.1 127.28 87.54 155 88.95 165.32C90.37 175.63 113.18 175.1 128.18 169.9C143.18 164.7 152.33 153.08 152.5 149.11C152.67 145.15 148.16 140.57 148.13 136.9C148.1 133.23 149.35 120.56 152.86 116.55C156.37 112.54 161.51 107.69 159.45 97.11C158.07 90.02 159.57 84.9 158.42 78.18C157.28 71.46 156.9 67.73 151.53 65.87C146.16 64.02 131.77 57.61 131.77 57.61L131.79 57.6Z" fill="#0055A6"/>
<path d="M156.32 113.06C156.15 113.06 155.99 112.99 155.87 112.86C155.64 112.61 155.66 112.22 155.91 111.99C162.9 105.55 161.08 97.73 159.37 93.65C156.79 87.48 156.8 81.43 156.8 81.18C156.8 80.84 157.08 80.57 157.42 80.57C157.76 80.57 158.03 80.85 158.03 81.19C158.03 81.25 158.03 87.25 160.5 93.18C162.34 97.56 164.29 105.96 156.74 112.91C156.62 113.02 156.47 113.07 156.32 113.07V113.06Z" fill="#599CD3"/>
<path d="M105.93 168.12C92.14 168.12 88.68 161.89 88.52 161.57C88.36 161.27 88.48 160.9 88.78 160.74C89.08 160.58 89.45 160.7 89.61 161C89.64 161.05 90.85 163.2 94.65 164.88C98.22 166.45 104.86 167.91 116.2 165.92C138.13 162.06 148.98 147.16 149.09 147.01C149.29 146.73 149.67 146.67 149.95 146.87C150.23 147.07 150.29 147.45 150.09 147.73C149.98 147.89 147.26 151.66 141.74 155.96C136.65 159.92 128.13 165.08 116.41 167.14C112.38 167.85 108.91 168.14 105.92 168.14L105.93 168.12Z" fill="#599CD3"/>
<path d="M137.1 80.88C137.33 80.95 137.57 81.01 137.81 81.05C140.03 81.44 141.9 80.96 143.37 79.62C147.65 75.73 146.95 65.9 146.92 65.48C146.89 65.15 146.6 64.9 146.27 64.93C145.94 64.96 145.69 65.24 145.72 65.58C145.72 65.68 146.41 75.24 142.56 78.73C141.36 79.82 139.88 80.19 138.02 79.86C130.24 78.5 123.31 57.79 123.24 57.58C123.14 57.26 122.8 57.09 122.48 57.2C122.16 57.3 121.99 57.65 122.1 57.96C122.38 58.82 128.96 78.43 137.11 80.88H137.1Z" fill="white"/>
<path d="M142.55 83.94C141.51 83.94 140.39 83.89 139.19 83.77C132.84 83.14 121.47 75.33 120.99 75C120.74 74.83 120.68 74.48 120.85 74.23C121.02 73.98 121.37 73.92 121.62 74.09C121.74 74.17 133.24 82.07 139.31 82.67C150.68 83.81 153.89 78.74 153.92 78.69C154.08 78.43 154.42 78.35 154.68 78.5C154.94 78.66 155.03 78.99 154.87 79.25C154.75 79.46 151.97 83.94 142.56 83.94H142.55Z" fill="#599CD3"/>
<path d="M109.72 136.65C109.55 136.65 109.39 136.57 109.28 136.43C109.1 136.19 109.14 135.84 109.38 135.66C121.81 126.2 146.21 120.55 146.46 120.49C146.76 120.42 147.05 120.61 147.12 120.91C147.19 121.21 147 121.5 146.7 121.57C146.46 121.63 122.29 127.23 110.04 136.54C109.94 136.62 109.82 136.65 109.71 136.65H109.72Z" fill="#599CD3"/>
<path d="M124.11 144.97C124.02 144.97 123.93 144.95 123.84 144.9C123.57 144.75 123.48 144.42 123.62 144.15C129.29 133.84 138.5 130.69 138.89 130.56C139.18 130.46 139.49 130.62 139.59 130.91C139.69 131.2 139.53 131.51 139.24 131.61C139.15 131.64 130.04 134.77 124.59 144.69C124.49 144.87 124.3 144.98 124.11 144.98V144.97Z" fill="#599CD3"/>
<path d="M94.51 165.87C94.24 165.87 94 165.67 93.96 165.39C91.06 142.04 92.66 119.37 94.52 104.47C96.53 88.32 99.27 77.54 99.3 77.43C99.38 77.13 99.68 76.96 99.97 77.03C100.27 77.11 100.44 77.41 100.37 77.7C100.34 77.81 97.62 88.53 95.62 104.62C93.77 119.46 92.18 142.03 95.07 165.25C95.11 165.55 94.89 165.83 94.59 165.87C94.57 165.87 94.54 165.87 94.52 165.87H94.51Z" fill="#599CD3"/>
<path d="M144.3 59.53C144.3 59.53 147.93 65.31 153.28 61.45C153.28 61.45 160.15 64.16 161.72 57.38C161.72 57.38 167.46 56.93 166.59 47.01C166.59 47.01 172.49 46.15 171.43 37.29C171.43 37.29 176.19 33.33 175.49 27.41C174.66 20.38 168.02 19.71 168.02 19.71C168.02 19.71 169.1 15.41 163.3 11.82C157.73 8.36999 155.84 12.17 155.84 12.17C155.84 12.17 152.26 6.35999 146.91 6.63999C141.57 6.92999 139.81 10.06 139.81 10.06C139.81 10.06 135.33 7.13999 130.49 10.15C125.66 13.16 125.6 18.05 125.6 18.05C125.6 18.05 121.49 17.92 119.86 23.37C118.23 28.83 120.08 30.35 120.08 30.35C120.08 30.35 113.87 35.81 119.55 41.21C119.55 41.21 122.02 49.84 130.47 50.98C138.93 52.12 144.29 59.54 144.29 59.54L144.3 59.53Z" fill="#342216"/>
<path d="M142.73 65.57C132.75 74.97 125.54 59.85 126.18 56.99C132.61 50.95 132.36 42.99 132.36 42.99L146.91 54.59C146.71 55.04 146.5 55.5 146.29 55.95C145.33 58.05 144.37 60.21 143.58 62.57C143.21 63.69 143 64.33 142.73 65.56V65.57Z" fill="#9D4839"/>
<path d="M143.58 62.58C135.86 57.73 133.49 47.14 133.49 47.14L146.29 55.96C145.33 58.06 144.37 60.22 143.58 62.58Z" fill="#342216"/>
<path d="M156.05 45.25C156.05 45.25 158.8 41.54 161.86 43.65C164.92 45.76 161.17 57.08 154.85 54.51L156.05 45.24V45.25Z" fill="#77281D"/>
<path d="M148.82 55.97C149.48 52.75 152.64 50.68 155.86 51.34C159.08 52 161.15 55.16 160.49 58.38C159.83 61.6 156.67 63.67 153.45 63.01C150.23 62.35 148.16 59.19 148.82 55.97ZM149.69 56.15C149.12 58.89 150.89 61.57 153.63 62.14C156.37 62.71 159.05 60.94 159.62 58.2C160.19 55.46 158.42 52.78 155.68 52.21C152.94 51.64 150.26 53.41 149.69 56.15Z" fill="white"/>
<path d="M132.48 45.81C132.73 50.92 142.73 60.09 148.3 59.45C151.68 59.06 155.18 57.19 158.61 51.64C158.63 51.61 158.65 51.58 158.66 51.55C158.86 51.22 159.06 50.9 159.24 50.57C159.58 49.99 159.9 49.41 160.18 48.85C160.25 48.72 160.31 48.59 160.38 48.46C160.55 48.11 160.71 47.77 160.86 47.44C161.04 47.03 161.2 46.65 161.33 46.28C163.51 40.29 166.08 33.59 161.8 27.99C157.52 22.39 149.24 18.53 142.51 22.33C142.51 22.33 137.28 25.85 134.56 34.65C131.84 43.45 132.29 42.11 132.48 45.8V45.81Z" fill="#9D4839"/>
<path d="M152.54 51.32C146.52 51.19 146.31 45.69 146.3 45.64C146.3 45.44 146.46 45.27 146.66 45.26C146.86 45.26 147.03 45.42 147.04 45.62C147.04 45.82 147.25 50.47 152.55 50.58C152.75 50.58 152.92 50.75 152.91 50.96C152.91 51.16 152.74 51.32 152.54 51.32Z" fill="#342216"/>
<path d="M147.97 52.59C148.13 52.63 148.23 52.64 148.24 52.64C148.44 52.66 148.62 52.52 148.64 52.32C148.66 52.12 148.52 51.94 148.32 51.92C148.26 51.92 146.96 51.74 146.49 50.49C146.38 50.19 145.92 50.13 145.75 50.58C146.2 52.01 147.42 52.46 147.97 52.6V52.59Z" fill="#77281D"/>
<path d="M147.51 22.78C147.51 22.78 141.61 31.34 138.25 32.35C134.89 33.36 134.03 27.99 134.03 27.99C134.03 27.99 144.26 15.27 147.51 22.78Z" fill="#342216"/>
<path d="M159.21 26.86C159.21 26.86 151.36 32.97 145.13 28.98C138.89 24.99 145.27 20.77 145.27 20.77C145.27 20.77 159.58 19.59 159.21 26.86Z" fill="#342216"/>
<path d="M157.6 25.63C157.6 25.63 157.78 36.84 164.99 37.2C172.21 37.57 165.98 24.59 161.4 23.59C156.82 22.59 157.6 25.63 157.6 25.63Z" fill="#342216"/>
<path d="M158.67 51.54C158.87 51.21 159.07 50.89 159.25 50.56C159.59 49.98 159.91 49.4 160.19 48.84C160.26 48.71 160.32 48.58 160.39 48.45C160.29 48.41 160.19 48.37 160.09 48.33C157.84 47.49 155.75 47.55 155.41 48.45C155.08 49.33 156.53 50.68 158.67 51.53V51.54Z" fill="#77281D"/>
<path d="M138.45 40.74C138.11 41.64 139.66 43.06 141.91 43.89C144.16 44.73 146.25 44.67 146.59 43.77C146.93 42.87 145.38 41.45 143.13 40.62C140.88 39.78 138.79 39.84 138.45 40.74Z" fill="#77281D"/>
<path d="M151.86 33.03C151.86 33.03 149.73 31.49 147.3 32.56C145.94 33.16 146.38 34.54 148.04 34.24C149.19 34.03 149.82 34 151.02 34.36C152.22 34.72 152.41 33.33 151.86 33.03Z" fill="#342216"/>
<path d="M158.81 36.17C158.81 36.17 161.44 36.2 162.75 38.5C163.49 39.79 162.31 40.63 161.16 39.41C160.35 38.56 159.87 38.16 158.69 37.73C157.51 37.31 158.18 36.08 158.81 36.16V36.17Z" fill="#342216"/>
<path d="M137.13 34.31C137.13 34.31 136.34 30.11 132.25 30.42C128.16 30.73 125.43 43.59 132.89 44.66L137.13 34.31Z" fill="#9D4839"/>
<path d="M140.63 29.96C140.63 29.96 138.91 41.5 136.74 39.68C134.57 37.86 135.94 31.03 135.94 31.03L140.63 29.96Z" fill="#342216"/>
<path d="M128.53 40.66C128.65 40.96 128.69 41.24 128.81 41.54C126.16 41.37 123.73 43.31 123.45 46.09C123.21 48.44 124.66 50.68 126.9 51.41C129.82 52.37 132.85 50.55 133.45 47.62C133.83 45.76 133.14 43.93 131.8 42.77C130.87 42.11 130.85 41.63 130.97 41.19C133.43 42.32 134.89 45.04 134.32 47.81C133.66 51.03 130.5 53.1 127.28 52.44C124.06 51.78 121.99 48.62 122.65 45.4C123.23 42.6 125.78 40.69 128.52 40.67L128.53 40.66Z" fill="white"/>
<path d="M133.64 39.54C133.62 39.73 133.45 39.88 133.26 39.86C133.23 39.86 133.21 39.86 133.18 39.85C133.03 39.8 132.92 39.65 132.93 39.48C132.93 39.46 133.03 38.19 132.56 36.83C131.66 37.2 130.92 37.58 130.91 37.58C130.82 37.62 130.73 37.63 130.65 37.6C130.56 37.57 130.49 37.51 130.44 37.42C130.35 37.25 130.42 37.03 130.6 36.95C130.63 36.93 131.38 36.56 132.3 36.18C131.95 35.48 131.42 34.8 130.61 34.33C130.44 34.23 130.39 34.02 130.49 33.85C130.59 33.68 130.8 33.62 130.97 33.72C133.96 35.47 133.66 39.37 133.64 39.54Z" fill="#342216"/>
<path d="M149.3 40.77C149.16 40.67 149.08 40.51 149.1 40.33C149.1 40.32 149.23 38.85 148.37 38.39C147.43 37.89 146.41 38.28 146.4 38.28C146.16 38.38 145.88 38.26 145.78 38.02C145.68 37.78 145.8 37.5 146.04 37.4C146.1 37.38 147.47 36.83 148.81 37.55C150.24 38.31 150.06 40.34 150.05 40.43C150.02 40.69 149.79 40.88 149.53 40.86C149.45 40.86 149.37 40.82 149.31 40.78L149.3 40.77Z" fill="#342216"/>
<path d="M155.73 43.39C155.73 43.39 155.72 43.39 155.71 43.38C155.5 43.22 155.46 42.92 155.62 42.71C155.67 42.65 156.75 41.24 158.13 41.61C159.41 41.95 159.96 43.12 159.99 43.16C160.1 43.4 159.99 43.68 159.76 43.79C159.52 43.9 159.24 43.79 159.13 43.56C159.13 43.54 158.73 42.75 157.89 42.53C157.14 42.33 156.39 43.27 156.39 43.28C156.23 43.48 155.95 43.53 155.74 43.38L155.73 43.39Z" fill="#342216"/>
<path d="M151.32 46.61C151.05 46.55 150.76 46.46 150.47 46.32C150.45 46.32 150.43 46.29 150.43 46.27C150.21 45.75 150.65 45.43 151 45.58C151.89 45.96 152.69 45.74 153.12 45.55C152.36 43.33 153.05 38.59 153.08 38.38C153.12 38.14 153.34 37.97 153.59 38C153.84 38.04 154 38.26 153.96 38.5C153.74 39.97 153.34 44.11 154.08 45.54C154.18 45.74 154.12 45.99 153.94 46.11C153.89 46.15 152.77 46.89 151.34 46.6L151.32 46.61Z" fill="#342216"/>
<path d="M116.83 78.11L116.87 81.29C116.87 82.38 116.89 83.48 116.92 84.57C116.97 86.76 117.01 88.96 117.09 91.14C117.23 95.51 117.44 99.86 117.79 104.11C117.88 105.17 117.97 106.23 118.08 107.27C118.19 108.32 118.3 109.36 118.43 110.38C118.7 112.43 119 114.43 119.38 116.32C119.76 118.2 120.21 119.99 120.73 121.46C120.98 122.19 121.25 122.84 121.48 123.32C121.71 123.8 121.92 124.11 121.92 124.15C122.01 124.29 122.35 124.63 122.84 124.99C123.33 125.36 123.98 125.76 124.69 126.17C125.41 126.57 126.21 126.97 127.05 127.36C127.9 127.74 128.79 128.11 129.71 128.48C131.56 129.2 133.52 129.86 135.52 130.48C137.53 131.1 139.59 131.68 141.69 132.23C145.88 133.33 150.18 134.3 154.52 135.22C156.69 135.68 158.87 136.11 161.06 136.55C162.15 136.77 163.25 136.97 164.34 137.18L167.56 137.79L167.76 137.83C171.52 138.54 173.98 142.17 173.27 145.92C172.65 149.19 169.82 151.48 166.62 151.55L165.68 151.57H164.78L163 151.59C161.82 151.59 160.64 151.56 159.46 151.53C157.1 151.48 154.74 151.36 152.38 151.21C147.66 150.9 142.93 150.42 138.15 149.7C135.76 149.33 133.36 148.92 130.94 148.4C128.52 147.89 126.08 147.29 123.59 146.54C121.1 145.79 118.58 144.9 115.93 143.66C114.6 143.04 113.25 142.32 111.84 141.42C110.43 140.51 108.97 139.43 107.47 137.92C105.9 136.3 104.81 134.7 103.92 133.19C103.03 131.68 102.36 130.24 101.78 128.84C101.21 127.44 100.74 126.09 100.32 124.76C99.91 123.43 99.55 122.13 99.24 120.84C98.63 118.27 98.15 115.76 97.78 113.28C97.59 112.04 97.43 110.81 97.28 109.58C97.14 108.35 97.01 107.13 96.9 105.92C96.47 101.06 96.28 96.26 96.26 91.49C96.26 89.1 96.3 86.72 96.39 84.34C96.44 83.15 96.5 81.96 96.56 80.77L96.69 78.97L96.76 78.06L96.85 77.09C97.34 71.59 102.2 67.52 107.7 68.01C112.84 68.47 116.73 72.74 116.81 77.8V78.1L116.83 78.11Z" fill="#9D4839"/>
<path d="M117.82 127.4C117.67 127.4 117.52 127.33 117.42 127.2C117.26 126.98 117.31 126.67 117.53 126.51C119.83 124.84 121.4 124.44 121.46 124.43C121.73 124.37 121.99 124.53 122.06 124.79C122.12 125.05 121.96 125.32 121.7 125.39C121.68 125.39 120.23 125.77 118.11 127.31C118.02 127.37 117.92 127.4 117.82 127.4Z" fill="#77281D"/>
<path d="M117.82 132.27C117.75 132.27 117.68 132.26 117.62 132.23C117.37 132.12 117.26 131.82 117.38 131.58C119.4 127.15 121.4 124.7 121.49 124.6C121.66 124.39 121.97 124.36 122.18 124.53C122.39 124.7 122.42 125.01 122.25 125.22C122.23 125.24 120.24 127.68 118.28 131.98C118.2 132.16 118.02 132.27 117.83 132.27H117.82Z" fill="#77281D"/>
<path d="M164.07 138.12C165.03 137.21 167.29 137.51 168.98 137.11C171.21 136.58 174.71 136.48 176.71 136.94C179.7 137.63 188.4 140.16 189.65 142.38C190.9 144.6 183.23 143.01 181.65 142.71C180.07 142.41 178.89 142.8 178.89 142.8C178.89 142.8 196.2 147.82 197 149.7C197.79 151.57 187.66 149.7 185.15 149.22C185.15 149.22 197.98 153.73 198.11 155.08C198.37 157.79 183.97 153.19 183.97 153.19C183.97 153.19 194.57 157.53 193.81 159.26C193 161.08 181.65 156.4 181.65 156.4C181.65 156.4 188.15 160.24 188.17 162.03C188.19 163.82 173.92 156.8 171.86 155.46C169.8 154.12 164.49 151.92 162.12 149.74C160.51 148.26 161.04 140.99 164.06 138.13L164.07 138.12Z" fill="#9D4839"/>
<path d="M118.41 66.62C113.89 57.53 100.94 57.63 96.48 66.74C94.93 69.9 94.24 72.56 93.38 78.94C91.12 95.8 94.05 104.47 94.05 104.47C103.14 105.87 112.78 105.82 122.06 103.63C122.06 103.63 122.48 75.08 118.53 66.86C118.49 66.78 118.45 66.7 118.41 66.62Z" fill="#0055A6"/>
<path d="M120.75 103.9C120.75 103.9 120.7 103.9 120.67 103.9C120.33 103.86 120.09 103.55 120.14 103.21C121.11 95.6 120.14 77.82 120.14 77.64C120.12 77.3 120.38 77.01 120.72 76.99C121.06 76.97 121.35 77.23 121.37 77.57C121.41 78.3 122.35 95.64 121.37 103.36C121.33 103.67 121.07 103.9 120.76 103.9H120.75Z" fill="#599CD3"/>
<path d="M121.19 86.26C121.09 86.26 120.99 86.24 120.9 86.19C120.6 86.03 120.49 85.66 120.65 85.36L122.86 81.24C123.02 80.94 123.39 80.83 123.69 80.99C123.99 81.15 124.1 81.52 123.94 81.82L121.73 85.94C121.62 86.15 121.41 86.26 121.19 86.26Z" fill="#599CD3"/>
<path d="M59.34 285.26C58.75 285.26 58.27 284.79 58.26 284.2C58.05 272.91 67.1 268.02 67.49 267.82C68.02 267.54 68.68 267.75 68.95 268.27C69.23 268.8 69.03 269.45 68.5 269.73C68.5 269.73 66.39 270.87 64.36 273.22C61.68 276.32 60.36 280 60.43 284.15C60.44 284.75 59.96 285.24 59.37 285.25C59.37 285.25 59.36 285.25 59.35 285.25L59.34 285.26Z" fill="#00B147"/>
<path d="M55.84 257.23C55.84 257.23 43.24 233.47 88.43 216.82C90.76 215.96 93.12 218.02 92.56 220.44C89.71 232.81 80.36 261.72 55.84 257.23Z" fill="#353F18"/>
<path d="M43.45 283.11C43.4 283.11 43.35 283.11 43.29 283.1C42.7 283.01 42.29 282.46 42.37 281.87C45.5 260.26 61.6 250.21 63.43 249.13C63.94 248.82 64.62 248.99 64.92 249.5C65.23 250.01 65.06 250.68 64.55 250.98H64.53C63.77 251.44 59.75 253.92 55.43 258.77C49.47 265.46 45.8 273.34 44.52 282.17C44.44 282.71 43.98 283.1 43.45 283.1V283.11Z" fill="#353F18"/>
<path d="M50.08 283.11C50.08 283.11 50.05 283.11 50.03 283.11C49.43 283.08 48.97 282.57 49 281.98C49.44 272.73 43.57 264.3 43.51 264.21C43.16 263.72 43.28 263.04 43.77 262.7C44.26 262.36 44.94 262.47 45.28 262.96C45.54 263.33 51.64 272.1 51.17 282.08C51.14 282.66 50.66 283.11 50.09 283.11H50.08Z" fill="#353F18"/>
<path d="M53.2 284.7C53.2 284.7 53.18 284.7 53.17 284.7C52.57 284.68 52.1 284.19 52.11 283.59L53.03 248.42C53.05 247.82 53.54 247.35 54.14 247.36C54.74 247.38 55.21 247.87 55.2 248.47L54.28 283.64C54.26 284.23 53.78 284.7 53.2 284.7Z" fill="#00B147"/>
<path d="M45.66 264.81C45.66 264.81 20.04 272.96 11.73 225.52C11.3 223.07 13.75 221.12 16.03 222.1C27.69 227.12 54.47 241.49 45.66 264.8V264.81Z" fill="#353F18"/>
<path d="M62.26 273.94C62.26 273.94 85.29 287.81 104.38 243.6C105.36 241.32 103.44 238.85 100.99 239.28C88.49 241.45 59.1 249.22 62.26 273.94Z" fill="#00B147"/>
<path d="M58.03 260.58C56.25 264.27 50.86 263.86 49.64 259.95C44.18 242.5 35.02 205.52 53.98 201.28C75.25 196.52 68.12 239.71 58.03 260.58Z" fill="#00B147"/>
<path d="M53.66 262.94H53.64C53.31 262.93 53.06 262.65 53.07 262.33L55.07 212.89C55.08 212.56 55.36 212.31 55.68 212.32C56.01 212.33 56.26 212.61 56.25 212.93L54.25 262.37C54.24 262.69 53.97 262.94 53.66 262.94Z" fill="#353F18"/>
<path d="M62.89 274.01C62.72 274.01 62.55 273.94 62.43 273.79C62.22 273.54 62.26 273.16 62.51 272.96L89.89 250.55C90.14 250.34 90.52 250.38 90.72 250.63C90.93 250.88 90.89 251.26 90.64 251.46L63.26 273.87C63.15 273.96 63.02 274 62.89 274V274.01Z" fill="#353F18"/>
<path d="M82.65 280.79L81.12 287.79L80.62 290.07L79.57 294.9L79.07 297.18L74.64 317.64H34.69L30.26 297.18L29.76 294.9L28.7 290.07L28.21 287.79L26.68 280.79H82.65Z" fill="#0055A6"/>
<path d="M81.12 287.79L80.62 290.07H28.7L28.21 287.79H81.12Z" fill="#599CD3"/>
<path d="M79.57 294.9L79.07 297.18H30.26L29.76 294.9H79.57Z" fill="#599CD3"/>
<path d="M82.07 366.24H32.14C31.82 366.24 31.56 365.89 31.56 365.46V361.53C31.56 361.1 31.82 360.75 32.14 360.75H82.07C82.39 360.75 82.65 361.1 82.65 361.53V365.46C82.65 365.89 82.39 366.24 82.07 366.24Z" fill="#342216"/>
<path d="M25.13 317.64H88.57C89.62 317.64 90.48 318.5 90.48 319.55V327.34C90.48 328.39 89.62 329.25 88.57 329.25H25.13C24.08 329.25 23.22 328.39 23.22 327.34V319.55C23.22 318.5 24.08 317.64 25.13 317.64Z" fill="#97635F"/>
<path d="M30.89 382.83L45.58 335.48L47.51 329.25H32.1L30.49 337.25L21.33 382.83H30.89Z" fill="#684D3C"/>
<path d="M32.1 329.25H47.51L45.58 335.48L30.49 337.25L32.1 329.25Z" fill="#342216"/>
<path d="M82.96 382.83H92.52L82.14 331.19L81.75 329.25H66.34L67.47 332.92L82.96 382.83Z" fill="#684D3C"/>
<path d="M82.14 331.19L67.47 332.92L66.34 329.25H81.75L82.14 331.19Z" fill="#342216"/>
<path d="M84.74 342.94H28.1C26.9402 342.94 26 343.88 26 345.04V346.34C26 347.5 26.9402 348.44 28.1 348.44H84.74C85.8998 348.44 86.84 347.5 86.84 346.34V345.04C86.84 343.88 85.8998 342.94 84.74 342.94Z" fill="#97635F"/>
<path d="M272.58 134.59C272.58 134.92 272.58 135.31 272.58 135.67V136.78L272.55 139.01L272.46 143.47L272.22 152.33C272.14 155.26 272.08 158.17 272.07 160.96C272.07 162.35 272.08 163.72 272.14 164.97C272.17 165.6 272.2 166.19 272.24 166.72C272.28 167.24 272.34 167.7 272.35 167.89C272.37 168 272.3 167.85 272.33 168C272.33 168.04 272.36 168.11 272.37 168.17C272.39 168.23 272.42 168.31 272.44 168.39C272.55 168.71 272.72 169.11 272.95 169.55C273.4 170.44 274.01 171.46 274.72 172.49C276.13 174.59 277.86 176.76 279.66 178.94C281.48 181.12 283.4 183.3 285.36 185.49L288.32 188.78L289.81 190.43L290.55 191.25L290.92 191.66C291.04 191.79 291.17 191.94 291.26 192.05L291.62 192.5C293.77 195.19 293.34 199.11 290.66 201.26C288.64 202.88 285.92 203.03 283.78 201.87L283.21 201.56L282.68 201.26L281.63 200.66C280.94 200.25 280.25 199.84 279.57 199.42C278.21 198.58 276.87 197.71 275.55 196.8C272.9 194.99 270.33 193.06 267.8 190.95C266.54 189.9 265.29 188.8 264.06 187.63C262.82 186.47 261.62 185.23 260.41 183.9C259.22 182.55 258.03 181.1 256.88 179.39C256.31 178.53 255.74 177.6 255.2 176.54C255.06 176.27 254.93 176 254.8 175.71C254.67 175.41 254.54 175.14 254.41 174.82C254.17 174.26 253.87 173.39 253.69 172.76C253.32 171.47 253.12 170.44 252.94 169.44C252.77 168.45 252.64 167.54 252.54 166.64C252.34 164.86 252.2 163.18 252.11 161.52C252.02 159.87 251.97 158.24 251.95 156.64C251.92 155.03 251.94 153.44 251.96 151.86C252.02 148.69 252.17 145.56 252.4 142.44C252.52 140.88 252.65 139.32 252.82 137.77C252.9 136.99 252.99 136.22 253.09 135.44L253.24 134.27C253.29 133.87 253.35 133.5 253.41 133.07C254.2 127.81 259.11 124.18 264.37 124.97C269.09 125.68 272.49 129.7 272.58 134.32V134.56V134.59Z" fill="#00B147"/>
<path d="M263.37 172.56C263.22 172.56 263.08 172.5 262.98 172.37C262.81 172.16 262.85 171.85 263.06 171.68C265.91 169.42 271.46 167.88 271.69 167.81C271.95 167.74 272.22 167.89 272.3 168.15C272.37 168.41 272.22 168.68 271.96 168.76C271.9 168.78 266.37 170.32 263.68 172.45C263.59 172.52 263.48 172.56 263.37 172.56Z" fill="#353F18"/>
<path d="M267.35 173.21C267.29 173.21 267.23 173.2 267.18 173.18C266.93 173.08 266.8 172.8 266.89 172.55C266.93 172.44 267.88 169.93 268.61 168.92C268.77 168.7 269.08 168.65 269.3 168.81C269.52 168.97 269.57 169.28 269.41 169.5C268.76 170.4 267.83 172.87 267.82 172.9C267.75 173.1 267.56 173.22 267.36 173.22L267.35 173.21Z" fill="#353F18"/>
<path d="M290.1 193.22C290.1 193.22 284.77 194.77 284.41 200.13L288.52 204.84C288.52 204.84 292.34 213.37 294.56 213.74C296.78 214.11 297.4 213 297.4 213C297.4 213 298.64 213.75 300.98 213.82C303.32 213.88 303.94 212.39 303.94 212.39C303.94 212.39 306.27 213.75 308.37 213.25C310.47 212.76 313.68 208.89 313.68 208.89C313.68 208.89 310.09 203.56 302.46 199.69C297.1 196.96 290.11 193.23 290.11 193.23L290.1 193.22Z" fill="#E49764"/>
<path d="M351.15 378.52H347.08V237.47C347.08 222.55 334.94 210.41 320.02 210.41H296.71C281.79 210.41 269.65 222.55 269.65 237.47V378.52H265.58V237.47C265.58 220.3 279.55 206.33 296.72 206.33H320.03C337.2 206.33 351.17 220.3 351.17 237.47V378.52H351.15Z" fill="#9A836C"/>
<path d="M270.21 372.07H265.59C264.303 372.07 263.26 373.113 263.26 374.4V380.6C263.26 381.887 264.303 382.93 265.59 382.93H270.21C271.497 382.93 272.54 381.887 272.54 380.6V374.4C272.54 373.113 271.497 372.07 270.21 372.07Z" fill="#342216"/>
<path d="M351.42 372.07H346.8C345.513 372.07 344.47 373.113 344.47 374.4V380.6C344.47 381.887 345.513 382.93 346.8 382.93H351.42C352.707 382.93 353.75 381.887 353.75 380.6V374.4C353.75 373.113 352.707 372.07 351.42 372.07Z" fill="#342216"/>
<path d="M268.72 273.99L266.48 270.58L280.08 261.65H338.08L350.32 270.65L347.91 273.93L336.75 265.72H281.3L268.72 273.99Z" fill="#9A836C"/>
<path d="M349.11 241.17C347.07 241.17 345.41 239.51 345.41 237.47C345.41 223.46 334.01 212.07 320.01 212.07H296.7C282.69 212.07 271.3 223.47 271.3 237.47C271.3 239.51 269.64 241.17 267.6 241.17C265.56 241.17 263.9 239.51 263.9 237.47C263.9 219.38 278.61 204.67 296.7 204.67H320.01C338.1 204.67 352.81 219.38 352.81 237.47C352.81 239.51 351.15 241.17 349.11 241.17Z" fill="#684D3C"/>
<path d="M228.08 312.73C223.28 335.15 212.29 365.81 212.29 365.81H199.72C199.72 365.81 200.63 331.62 200.53 319.38C200.5 316.02 200.59 312.99 200.77 310.26C201.43 299.72 203.3 293.72 204.26 291.25C204.62 290.34 204.85 289.91 204.85 289.91C204.85 289.91 224.38 279.61 229.21 290.6C229.59 291.48 229.89 292.49 230.07 293.65C230.71 297.79 229.79 304.73 228.09 312.72L228.08 312.73Z" fill="#E49764"/>
<path d="M228.08 312.73C219.79 312.73 210.67 312.02 200.76 310.27C201.42 299.73 203.29 293.73 204.25 291.26C211.78 290.77 217.5 290.61 217.5 290.61H229.2C229.58 291.49 229.88 292.5 230.06 293.66C230.7 297.8 229.78 304.74 228.08 312.73Z" fill="#D1703A"/>
<path d="M225.35 382.81H196.48C196.48 382.81 196.42 382.28 196.37 381.4C196.35 381.07 196.33 380.7 196.32 380.28C196.32 380.2 196.32 380.11 196.32 380.03C196.32 379.92 196.32 379.81 196.32 379.69C196.3 378.21 196.36 376.39 196.64 374.61C196.91 372.95 197.31 370.88 197.73 368.89C197.9 368.1 198.07 367.32 198.25 366.59C198.68 364.77 199.09 363.24 199.39 362.51C199.79 361.55 200.16 360.11 201.54 359.01C202.67 358.11 204.5 357.43 207.59 357.43C211.48 357.43 212.93 357.96 213.81 359.07C214.1 359.44 214.33 359.87 214.56 360.36C214.67 360.59 215.65 363.85 215.77 364.07C216.89 365.99 214.78 365.11 220.24 369.33C224.22 372.41 225.21 377.07 225.4 380.02C225.4 380.11 225.4 380.19 225.41 380.27C225.49 381.79 225.36 382.79 225.36 382.79L225.35 382.81Z" fill="#684D3C"/>
<path d="M225.4 380.29C225.48 381.81 225.35 382.81 225.35 382.81H196.48C196.48 382.81 196.42 382.28 196.37 381.4C196.35 381.07 196.33 380.7 196.32 380.28H225.4V380.29Z" fill="#342216"/>
<path d="M213.79 359.09C213.64 363.68 218.01 371.79 210.86 371.77C205.25 371.75 201.43 362.84 201.52 359.02C202.65 358.12 204.48 357.44 207.57 357.44C211.46 357.44 212.91 357.97 213.79 359.08V359.09Z" fill="#E49764"/>
<path d="M267.32 365.81L254.12 362.7C254.12 362.7 253 334.01 247.83 322.91C246 318.99 244.82 315.25 244.09 311.79C241.82 301.03 243.91 292.99 244.68 290.61C244.83 290.13 244.93 289.89 244.93 289.89C244.93 289.89 264.76 273.47 270.38 288.39C270.63 289.04 270.85 289.79 271.04 290.62C271.87 294.15 272.23 299.18 272.27 304.98C272.46 328.84 267.32 365.82 267.32 365.82V365.81Z" fill="#E49764"/>
<path d="M272.27 304.97C265.44 307.61 255.96 310.39 244.09 311.79C241.82 301.03 243.91 292.99 244.68 290.61H271.04C271.87 294.14 272.23 299.17 272.27 304.97Z" fill="#D1703A"/>
<path d="M297.94 383.38L251.32 382.88C250.98 382.25 250.8 381.35 250.73 380.29C250.48 376.34 251.8 370.06 252.46 366.1C252.54 365.64 252.61 365.2 252.66 364.81C252.75 364.15 252.81 363.6 252.82 363.19C252.85 359.95 254.02 360.76 254.02 360.76C256.82 361.39 259.73 362.43 261.72 361.86C262.93 361.52 264.1 360.99 265.18 360.61C266.6 360.12 267.87 359.88 268.89 360.64C268.89 360.64 270.22 361.62 273.89 364.99C276.89 367.74 281.63 369.76 286.17 371.66C287.18 372.08 288.19 372.5 289.16 372.92C295.48 375.64 297.63 378.32 298.22 380.28C298.27 380.46 298.31 380.63 298.34 380.79C298.63 382.37 297.93 383.38 297.93 383.38H297.94Z" fill="#684D3C"/>
<path d="M297.94 383.38L251.32 382.88C250.98 382.25 250.8 381.35 250.73 380.29H298.23C298.28 380.47 298.32 380.64 298.35 380.8C298.64 382.38 297.94 383.39 297.94 383.39V383.38Z" fill="#342216"/>
<path d="M286.18 371.67C286.05 372.65 285.16 373.75 280.23 371.77C273.34 369 266.92 364.35 265.19 360.62C266.61 360.13 267.88 359.89 268.9 360.65C268.9 360.65 270.23 361.63 273.9 365C276.9 367.75 281.64 369.77 286.18 371.67Z" fill="#E49764"/>
<path d="M270.72 135.32C270.66 142.14 268.29 146.92 268.4 154.14C268.56 164.91 262.65 168.79 258.49 172.12C254.34 175.45 250.88 187.71 250.26 191.32C249.65 194.94 253.27 200.24 252.41 204.11C251.55 207.98 240.5 217.82 224.82 220.3C209.14 222.78 186.59 219.3 187 208.9C187.42 198.5 192.84 171.31 195.77 160.47C199.35 147.23 203 132.38 209.3 119.65C215.6 106.91 221.46 105.26 225.72 104.02C227.68 103.45 232.58 104.75 237.29 106.32C242.81 108.16 248.08 110.37 248.08 110.37C248.08 110.37 254.52 114.73 260.07 118.28C262.42 119.78 264.61 121.14 266.08 121.97C271.04 124.74 270.76 128.48 270.7 135.3L270.72 135.32Z" fill="#00B147"/>
<path d="M224.03 196.59C224.03 196.59 226.46 198.46 225.67 199.3C224.87 200.14 222.96 198.19 222.96 198.19C222.96 198.19 221.63 200.5 220.59 200.1C219.15 199.54 220.92 197.53 220.92 197.53C220.92 197.53 217.41 197.34 217.44 196.06C217.48 194.77 220.81 195.13 220.81 195.13C220.81 195.13 220.39 192.03 222.28 191.74C224.18 191.45 223.04 195.02 223.04 195.02C223.04 195.02 225.43 192.51 226.42 193.83C227.41 195.15 224.02 196.59 224.02 196.59H224.03Z" fill="#353F18"/>
<path d="M204.82 189.67C204.82 189.67 207.25 191.54 206.46 192.38C205.66 193.22 203.75 191.27 203.75 191.27C203.75 191.27 202.42 193.58 201.38 193.18C199.94 192.62 201.71 190.61 201.71 190.61C201.71 190.61 198.2 190.42 198.23 189.14C198.27 187.85 201.6 188.21 201.6 188.21C201.6 188.21 201.18 185.11 203.07 184.82C204.97 184.53 203.83 188.1 203.83 188.1C203.83 188.1 206.22 185.59 207.21 186.91C208.2 188.23 204.81 189.67 204.81 189.67H204.82Z" fill="#353F18"/>
<path d="M232.1 148.01C232.1 148.01 234.53 149.88 233.74 150.72C232.94 151.56 231.03 149.61 231.03 149.61C231.03 149.61 229.7 151.92 228.66 151.52C227.22 150.96 228.99 148.95 228.99 148.95C228.99 148.95 225.48 148.76 225.51 147.48C225.55 146.19 228.88 146.55 228.88 146.55C228.88 146.55 228.46 143.45 230.35 143.16C232.25 142.87 231.11 146.44 231.11 146.44C231.11 146.44 233.5 143.93 234.49 145.25C235.48 146.57 232.09 148.01 232.09 148.01H232.1Z" fill="#353F18"/>
<path d="M262.09 131.2C262.09 131.2 264.52 133.07 263.73 133.91C262.93 134.75 261.02 132.8 261.02 132.8C261.02 132.8 259.69 135.11 258.65 134.71C257.21 134.15 258.98 132.14 258.98 132.14C258.98 132.14 255.47 131.95 255.5 130.67C255.53 129.39 258.87 129.74 258.87 129.74C258.87 129.74 258.45 126.64 260.34 126.35C262.24 126.06 261.1 129.63 261.1 129.63C261.1 129.63 263.49 127.12 264.48 128.44C265.47 129.76 262.08 131.2 262.08 131.2H262.09Z" fill="#353F18"/>
<path d="M235.47 118.4C235.47 118.4 237.9 120.27 237.11 121.11C236.31 121.95 234.4 120 234.4 120C234.4 120 233.07 122.31 232.03 121.91C230.59 121.35 232.36 119.34 232.36 119.34C232.36 119.34 228.85 119.15 228.88 117.87C228.92 116.58 232.25 116.94 232.25 116.94C232.25 116.94 231.83 113.84 233.72 113.55C235.62 113.26 234.48 116.83 234.48 116.83C234.48 116.83 236.87 114.32 237.86 115.64C238.85 116.96 235.46 118.4 235.46 118.4H235.47Z" fill="#353F18"/>
<path d="M248.93 150.14C248.93 150.14 251.36 152.01 250.57 152.85C249.77 153.69 247.86 151.74 247.86 151.74C247.86 151.74 246.53 154.05 245.49 153.65C244.05 153.09 245.82 151.08 245.82 151.08C245.82 151.08 242.31 150.89 242.34 149.61C242.38 148.32 245.71 148.68 245.71 148.68C245.71 148.68 245.29 145.58 247.18 145.29C249.08 145 247.94 148.57 247.94 148.57C247.94 148.57 250.33 146.06 251.32 147.38C252.31 148.7 248.92 150.14 248.92 150.14H248.93Z" fill="#353F18"/>
<path d="M263.42 154.96C263.42 154.96 265.85 156.83 265.06 157.67C264.26 158.51 262.35 156.56 262.35 156.56C262.35 156.56 261.02 158.87 259.98 158.47C258.54 157.91 260.31 155.9 260.31 155.9C260.31 155.9 256.8 155.71 256.83 154.43C256.87 153.14 260.2 153.5 260.2 153.5C260.2 153.5 259.78 150.4 261.67 150.11C263.57 149.82 262.43 153.39 262.43 153.39C262.43 153.39 264.82 150.88 265.81 152.2C266.8 153.52 263.41 154.96 263.41 154.96H263.42Z" fill="#353F18"/>
<path d="M250.7 165.54C250.7 165.54 253.13 167.41 252.34 168.25C251.54 169.09 249.63 167.14 249.63 167.14C249.63 167.14 248.3 169.45 247.26 169.05C245.82 168.49 247.59 166.48 247.59 166.48C247.59 166.48 244.08 166.29 244.11 165.01C244.15 163.72 247.48 164.08 247.48 164.08C247.48 164.08 247.06 160.98 248.95 160.69C250.85 160.4 249.71 163.97 249.71 163.97C249.71 163.97 252.1 161.46 253.09 162.78C254.08 164.1 250.69 165.54 250.69 165.54H250.7Z" fill="#353F18"/>
<path d="M230.12 164.73C230.12 164.73 232.55 166.6 231.76 167.44C230.96 168.28 229.05 166.33 229.05 166.33C229.05 166.33 227.72 168.64 226.68 168.24C225.24 167.68 227.01 165.67 227.01 165.67C227.01 165.67 223.5 165.48 223.53 164.2C223.57 162.91 226.9 163.27 226.9 163.27C226.9 163.27 226.48 160.17 228.37 159.88C230.26 159.59 229.13 163.16 229.13 163.16C229.13 163.16 231.52 160.65 232.51 161.97C233.5 163.29 230.11 164.73 230.11 164.73H230.12Z" fill="#353F18"/>
<path d="M260.08 118.3C259.26 121.79 256.08 132.42 248.62 128.14C239.75 123.04 237.31 106.33 237.31 106.33C242.83 108.17 248.1 110.38 248.1 110.38C248.1 110.38 254.54 114.74 260.09 118.29L260.08 118.3Z" fill="#E49764"/>
<path d="M250.29 140.42C249.27 140.24 248.18 139.99 247.01 139.66C240.87 137.92 231.05 128.24 230.63 127.83C230.41 127.62 230.41 127.27 230.63 127.05C230.84 126.83 231.19 126.83 231.41 127.05C231.51 127.15 241.45 136.94 247.31 138.61C258.3 141.73 262.35 137.31 262.39 137.26C262.59 137.03 262.94 137.01 263.17 137.21C263.4 137.41 263.42 137.76 263.23 137.99C263.07 138.18 259.56 142.09 250.29 140.44V140.42Z" fill="#353F18"/>
<path d="M212.87 183.15C212.71 183.12 212.56 183.02 212.48 182.86C212.34 182.59 212.45 182.26 212.72 182.12C226.62 174.99 251.63 173.71 251.89 173.7C252.19 173.69 252.45 173.92 252.47 174.22C252.48 174.52 252.25 174.78 251.94 174.8C251.69 174.81 226.91 176.08 213.23 183.1C213.12 183.16 213 183.17 212.88 183.15H212.87Z" fill="#353F18"/>
<path d="M228.07 191.07C227.98 191.05 227.9 191.02 227.82 190.96C227.58 190.77 227.55 190.42 227.74 190.18C235.13 181.03 244.75 179.54 245.16 179.48C245.46 179.44 245.74 179.65 245.79 179.95C245.83 180.25 245.63 180.53 245.32 180.58C245.22 180.59 235.71 182.08 228.6 190.88C228.47 191.04 228.26 191.11 228.07 191.08V191.07Z" fill="#353F18"/>
<path d="M192.39 210.43C192.12 210.38 191.92 210.14 191.94 209.86C193.18 186.36 198.74 164.33 203.19 149.98C208.01 134.43 212.6 124.3 212.64 124.2C212.77 123.92 213.09 123.8 213.37 123.93C213.65 124.06 213.77 124.38 213.64 124.66C213.59 124.76 209.03 134.84 204.23 150.33C199.8 164.61 194.27 186.55 193.04 209.92C193.02 210.22 192.76 210.46 192.46 210.44C192.44 210.44 192.41 210.44 192.39 210.44V210.43Z" fill="#353F18"/>
<path d="M255.22 177.17C255.22 177.17 255.19 177.17 255.18 177.17C254.88 177.1 254.71 176.8 254.78 176.5C254.82 176.33 255.88 172.27 259.82 169.94C264 167.46 268.76 162.55 267.77 153.2C267.74 152.9 267.96 152.62 268.26 152.59C268.56 152.56 268.84 152.78 268.87 153.08C269.93 163.01 264.84 168.24 260.39 170.88C256.86 172.98 255.87 176.73 255.86 176.76C255.79 177.04 255.51 177.22 255.23 177.17H255.22Z" fill="#353F18"/>
<path d="M257.86 117.66C247.88 127.06 239.44 110.93 240.09 108.07C244.72 101.74 245.5 97.13 245.5 97.13L262.04 106.68C261.84 107.13 261.63 107.59 261.42 108.04C260.46 110.14 259.5 112.3 258.71 114.66C258.34 115.78 258.13 116.42 257.86 117.65V117.66Z" fill="#E49764"/>
<path d="M251.21 125.74C250.93 125.74 250.64 125.71 250.34 125.66C241.3 123.9 240.35 108.3 240.31 107.64C240.29 107.3 240.55 107.01 240.89 106.99C241.23 106.97 241.52 107.23 241.54 107.57C241.54 107.72 242.47 122.88 250.57 124.45C254.73 125.26 257.24 117.55 257.26 117.48C257.36 117.16 257.71 116.98 258.03 117.08C258.35 117.18 258.53 117.53 258.43 117.85C258.32 118.19 255.87 125.75 251.19 125.75L251.21 125.74Z" fill="white"/>
<path d="M258.71 114.67C250.99 109.82 248.62 99.23 248.62 99.23L261.42 108.05C260.46 110.15 259.5 112.31 258.71 114.67Z" fill="#342216"/>
<path d="M245.47 100.02C245.47 100.02 236.95 96.77 238.68 84.21C240.41 71.66 250.64 60.91 267.91 66.24C285.49 71.66 284.12 93.27 278.04 98.77C271.96 104.28 255.63 104.81 245.47 100.02Z" fill="#9A836C"/>
<path d="M252.96 71.59C249.3 72.44 245.42 71.29 242.95 68.46C241.21 66.47 240.15 63.71 241.64 60.06C245.22 51.31 257.18 52.15 260.19 57.25C262.63 61.39 262.05 68.59 257.53 70.58C256.09 71.21 254.37 71.27 252.96 71.59Z" fill="#9A836C"/>
<path d="M271.18 97.34C271.18 97.34 273.93 93.63 276.99 95.74C280.05 97.85 276.3 109.17 269.98 106.6L271.18 97.33V97.34Z" fill="#D1703A"/>
<path d="M245.53 98C245.78 103.11 257.85 112.18 263.43 111.54C266.81 111.15 270.31 109.28 273.74 103.73C273.76 103.7 273.78 103.67 273.79 103.64C273.99 103.31 274.19 102.99 274.37 102.66C274.71 102.08 275.03 101.5 275.31 100.94C275.38 100.81 275.44 100.68 275.51 100.55C275.68 100.2 275.84 99.86 275.99 99.53C276.17 99.12 276.33 98.74 276.46 98.37C278.64 92.38 281.21 85.68 276.93 80.08C272.65 74.48 264.37 70.62 257.64 74.42C257.64 74.42 250.84 77.71 248.12 86.51C245.4 95.31 245.35 94.31 245.54 98H245.53Z" fill="#E49764"/>
<path d="M266.97 104C260.95 103.92 260.69 98.43 260.69 98.37C260.69 98.17 260.84 97.99 261.05 97.99C261.25 97.99 261.42 98.14 261.43 98.35C261.43 98.55 261.68 103.2 266.98 103.27C267.18 103.27 267.35 103.44 267.34 103.64C267.34 103.84 267.17 104 266.97 104Z" fill="#342216"/>
<path d="M260.19 97.81C260.04 97.81 259.89 97.71 259.84 97.56C259.77 97.37 259.87 97.16 260.07 97.09C262.62 96.2 264.01 96.77 264.06 96.79C264.25 96.87 264.34 97.09 264.25 97.28C264.17 97.47 263.95 97.55 263.77 97.48C263.75 97.48 262.55 97.01 260.31 97.8C260.27 97.81 260.23 97.82 260.19 97.82V97.81Z" fill="#D1703A"/>
<path d="M269.09 104.55C269.09 104.55 269.03 104.55 268.99 104.54C268.79 104.49 268.68 104.28 268.73 104.09C269.31 101.96 268.3 99.4 268.29 99.37C268.21 99.18 268.31 98.97 268.5 98.89C268.69 98.81 268.9 98.91 268.98 99.1C269.03 99.21 270.09 101.91 269.45 104.28C269.41 104.44 269.26 104.55 269.09 104.55Z" fill="#D1703A"/>
<path d="M276.76 85.28C276.76 85.28 276.76 85.28 276.75 85.28C270.06 85.1 265.38 81.16 265.18 80.99C265.02 80.86 265.01 80.62 265.14 80.47C265.27 80.31 265.51 80.3 265.66 80.43C265.71 80.47 270.34 84.37 276.76 84.54C276.96 84.54 277.13 84.72 277.12 84.92C277.12 85.12 276.95 85.28 276.75 85.28H276.76Z" fill="#D1703A"/>
<path d="M276.31 82.87C276.31 82.87 276.31 82.87 276.3 82.87C271.31 82.73 267.81 79.79 267.67 79.67C267.51 79.54 267.5 79.3 267.63 79.15C267.76 78.99 268 78.98 268.15 79.11C268.18 79.14 271.6 82.01 276.32 82.14C276.52 82.14 276.69 82.32 276.68 82.52C276.68 82.72 276.51 82.88 276.31 82.88V82.87Z" fill="#D1703A"/>
<path d="M272.99 95.16C272.6 95.92 271.89 96.33 271.4 96.08C270.92 95.83 270.84 95.01 271.23 94.25C271.62 93.49 272.33 93.08 272.82 93.33C273.3 93.58 273.38 94.4 272.99 95.16Z" fill="#342216"/>
<path d="M272.79 97.5C272.09 97.5 271.52 97.31 271.07 96.93C270.29 96.26 270.22 95.27 270.22 95.22C270.21 95.02 270.36 94.84 270.57 94.83C270.77 94.82 270.95 94.97 270.96 95.18C270.96 95.19 271.02 95.92 271.56 96.37C271.93 96.69 272.46 96.81 273.14 96.74C273.34 96.72 273.52 96.87 273.54 97.07C273.56 97.27 273.41 97.45 273.21 97.47C273.07 97.48 272.93 97.49 272.8 97.49L272.79 97.5Z" fill="#D1703A"/>
<path d="M264.36 91.22C263.97 91.98 263.26 92.39 262.77 92.14C262.29 91.89 262.21 91.07 262.6 90.31C262.99 89.55 263.7 89.14 264.19 89.39C264.68 89.64 264.75 90.46 264.36 91.22Z" fill="#342216"/>
<path d="M263.2 92.81C262.46 92.81 261.42 92.5 260.33 91.17C260.2 91.01 260.22 90.78 260.38 90.65C260.54 90.52 260.77 90.54 260.9 90.7C262.51 92.66 263.86 91.95 263.92 91.92C264.1 91.82 264.32 91.89 264.42 92.06C264.52 92.24 264.46 92.46 264.28 92.56C264.24 92.58 263.83 92.81 263.2 92.81Z" fill="#D1703A"/>
<path d="M262.63 74.87C262.63 74.87 256.73 83.43 253.37 84.44C250.01 85.45 249.15 80.08 249.15 80.08C249.15 80.08 259.38 67.36 262.63 74.87Z" fill="#9A836C"/>
<path d="M274.34 78.95C274.34 78.95 266.49 85.06 260.26 81.07C254.02 77.08 260.4 72.86 260.4 72.86C260.4 72.86 274.71 71.68 274.34 78.95Z" fill="#9A836C"/>
<path d="M272.72 77.72C272.72 77.72 272.9 88.93 280.11 89.29C287.33 89.66 281.1 76.68 276.52 75.68C271.94 74.68 272.72 77.72 272.72 77.72Z" fill="#9A836C"/>
<path d="M273.8 103.63C274 103.3 274.2 102.98 274.38 102.65C274.72 102.07 275.04 101.49 275.32 100.93C275.39 100.8 275.45 100.67 275.52 100.54C275.42 100.5 275.32 100.46 275.22 100.42C272.97 99.58 270.88 99.64 270.54 100.54C270.21 101.42 271.66 102.77 273.8 103.62V103.63Z" fill="#D1703A"/>
<path d="M253.58 92.83C253.24 93.73 254.79 95.15 257.04 95.98C259.29 96.82 261.38 96.76 261.72 95.86C262.06 94.96 260.51 93.54 258.26 92.71C256.01 91.87 253.92 91.93 253.58 92.83Z" fill="#D1703A"/>
<path d="M266.99 85.11C266.99 85.11 264.86 83.57 262.43 84.64C261.08 85.24 261.51 86.62 263.17 86.32C264.32 86.11 264.95 86.08 266.15 86.44C267.35 86.8 267.54 85.41 266.99 85.11Z" fill="#9A836C"/>
<path d="M273.94 88.25C273.94 88.25 276.57 88.28 277.88 90.58C278.62 91.87 277.44 92.71 276.29 91.49C275.48 90.64 275 90.24 273.82 89.81C272.64 89.38 273.31 88.16 273.94 88.24V88.25Z" fill="#9A836C"/>
<path d="M251.3 84.84C251.3 84.84 250.51 80.64 246.42 80.95C242.33 81.26 239.6 94.12 247.06 95.19L251.3 84.84Z" fill="#E49764"/>
<path d="M255.76 82.05C255.76 82.05 254.04 93.59 251.87 91.77C249.7 89.95 251.07 83.12 251.07 83.12L255.76 82.05Z" fill="#9A836C"/>
<path d="M247.81 90.08C247.79 90.27 247.62 90.42 247.43 90.4C247.4 90.4 247.38 90.4 247.35 90.39C247.2 90.34 247.09 90.19 247.1 90.02C247.1 90 247.2 88.73 246.73 87.37C245.83 87.74 245.09 88.12 245.08 88.12C244.99 88.16 244.9 88.17 244.82 88.14C244.73 88.11 244.66 88.05 244.61 87.96C244.52 87.79 244.59 87.57 244.77 87.49C244.8 87.47 245.55 87.1 246.47 86.72C246.12 86.02 245.59 85.34 244.78 84.87C244.61 84.77 244.56 84.56 244.66 84.39C244.76 84.22 244.97 84.16 245.14 84.26C248.13 86.01 247.83 89.91 247.81 90.08Z" fill="#342216"/>
<path d="M262.42 105.31C262.58 105.35 262.68 105.36 262.7 105.36C262.9 105.38 263.08 105.23 263.1 105.03C263.12 104.83 262.98 104.65 262.77 104.63C262.71 104.63 261.41 104.46 260.92 103.22C260.81 102.92 260.35 102.86 260.18 103.31C260.64 104.74 261.86 105.18 262.42 105.31Z" fill="#D1703A"/>
<path d="M266.44 98.7C266.17 98.64 265.88 98.55 265.59 98.41C265.57 98.41 265.55 98.38 265.55 98.36C265.33 97.84 265.77 97.52 266.12 97.67C267.01 98.05 267.81 97.83 268.24 97.64C267.48 95.42 268.17 90.68 268.2 90.47C268.24 90.23 268.46 90.06 268.71 90.09C268.96 90.13 269.12 90.35 269.08 90.59C268.86 92.06 268.46 96.2 269.2 97.63C269.3 97.83 269.24 98.08 269.06 98.2C269.01 98.24 267.89 98.98 266.46 98.69L266.44 98.7Z" fill="#342216"/>
<path d="M259.93 94.94C257.72 93.25 257.3 90.08 258.98 87.87C260.67 85.66 263.84 85.24 266.05 86.92C268.26 88.61 268.68 91.78 267 93.99C265.31 96.2 262.14 96.62 259.93 94.94ZM265.6 87.51C263.71 86.07 261.01 86.43 259.57 88.32C258.13 90.21 258.49 92.91 260.38 94.35C262.27 95.79 264.97 95.43 266.41 93.54C267.85 91.65 267.49 88.95 265.6 87.51Z" fill="white"/>
<path d="M259.17 88.62C259.03 88.62 258.9 88.54 258.84 88.41C258.83 88.38 257.82 86.43 255.07 85.55C254.88 85.49 254.77 85.28 254.83 85.09C254.89 84.9 255.1 84.79 255.29 84.85C258.36 85.83 259.45 88 259.5 88.09C259.59 88.27 259.51 88.49 259.33 88.58C259.28 88.61 259.22 88.62 259.17 88.62Z" fill="white"/>
<path d="M270.82 99.47C268.61 97.78 268.19 94.61 269.87 92.4C271.56 90.19 274.73 89.77 276.94 91.45C279.15 93.14 279.57 96.31 277.89 98.52C276.2 100.73 273.03 101.15 270.82 99.47ZM276.49 92.04C274.6 90.6 271.9 90.96 270.46 92.85C269.02 94.74 269.38 97.44 271.27 98.88C273.16 100.32 275.86 99.96 277.3 98.07C278.74 96.18 278.38 93.48 276.49 92.04Z" fill="white"/>
<path d="M267.71 92.02C267.71 92.02 267.63 91.92 267.61 91.86C267.56 91.66 267.67 91.46 267.86 91.41C267.92 91.39 269.31 91.02 270.25 92.32C270.37 92.48 270.33 92.71 270.17 92.83C270.01 92.95 269.78 92.91 269.66 92.75C269.01 91.86 268.07 92.11 268.06 92.11C267.93 92.15 267.79 92.11 267.7 92.02H267.71Z" fill="white"/>
<path d="M188.34 198.09C188.34 198.09 226.3 211.65 251.04 198.09C251.04 198.09 273.3 238.56 276.76 269.24C280.22 299.92 275.52 300.79 275.52 300.79C261.42 307.41 226.87 312.77 194.39 300.79C194.39 300.79 175.44 236.8 188.34 198.09Z" fill="#342216"/>
<path d="M238.82 301C233.33 301 227.61 300.61 221.7 299.83C205.07 297.64 192.59 293.06 192.47 293.01C192.15 292.89 191.99 292.54 192.11 292.22C192.23 291.9 192.58 291.74 192.9 291.86C193.02 291.91 205.39 296.45 221.89 298.62C237.08 300.62 258.97 300.96 277.03 291.24C277.33 291.08 277.7 291.19 277.86 291.49C278.02 291.79 277.91 292.16 277.61 292.32C269.5 296.69 259.96 299.44 249.28 300.5C245.9 300.84 242.41 301 238.81 301H238.82Z" fill="#684D3C"/>
<path d="M267.8 270.38C267.8 270.38 267.76 270.38 267.74 270.38C256.98 269.37 247.17 266.61 238.58 262.16C231.71 258.6 225.6 253.95 220.43 248.36C211.62 238.82 208.64 229.96 208.52 229.59C208.41 229.27 208.59 228.92 208.91 228.81C209.23 228.7 209.58 228.88 209.69 229.2C209.72 229.29 212.73 238.22 221.38 247.56C229.35 256.17 243.88 266.91 267.85 269.15C268.19 269.18 268.44 269.48 268.41 269.82C268.38 270.14 268.11 270.38 267.8 270.38Z" fill="#684D3C"/>
<path d="M198.39 294.88C198.14 294.88 197.9 294.72 197.81 294.47C188.98 269.41 187.26 245.81 187.38 230.43C187.51 213.76 189.76 202.86 189.78 202.75C189.85 202.42 190.18 202.2 190.51 202.27C190.84 202.34 191.06 202.67 190.99 203C190.97 203.11 188.74 213.91 188.61 230.47C188.5 245.74 190.2 269.17 198.97 294.05C199.08 294.37 198.91 294.72 198.59 294.84C198.52 294.86 198.45 294.88 198.39 294.88Z" fill="#684D3C"/>
<path d="M325.05 378.52H320.98V237.47C320.98 222.55 308.84 210.41 293.92 210.41H270.61C255.69 210.41 243.55 222.55 243.55 237.47V378.52H239.48V237.47C239.48 220.3 253.45 206.33 270.62 206.33H293.93C311.1 206.33 325.07 220.3 325.07 237.47V378.52H325.05Z" fill="#9A836C"/>
<path d="M244.11 372.07H239.49C238.203 372.07 237.16 373.113 237.16 374.4V380.6C237.16 381.887 238.203 382.93 239.49 382.93H244.11C245.397 382.93 246.44 381.887 246.44 380.6V374.4C246.44 373.113 245.397 372.07 244.11 372.07Z" fill="#342216"/>
<path d="M325.33 372.07H320.71C319.423 372.07 318.38 373.113 318.38 374.4V380.6C318.38 381.887 319.423 382.93 320.71 382.93H325.33C326.617 382.93 327.66 381.887 327.66 380.6V374.4C327.66 373.113 326.617 372.07 325.33 372.07Z" fill="#342216"/>
<path d="M242.62 273.99L240.38 270.58L253.98 261.65H311.99L324.22 270.65L321.81 273.93L310.65 265.72H255.2L242.62 273.99Z" fill="#9A836C"/>
<path d="M323.01 241.17C320.97 241.17 319.31 239.51 319.31 237.47C319.31 223.46 307.91 212.07 293.91 212.07H270.6C256.59 212.07 245.2 223.47 245.2 237.47C245.2 239.51 243.54 241.17 241.5 241.17C239.46 241.17 237.8 239.51 237.8 237.47C237.8 219.38 252.51 204.67 270.6 204.67H293.91C312 204.67 326.71 219.38 326.71 237.47C326.71 239.51 325.05 241.17 323.01 241.17Z" fill="#684D3C"/>
<path d="M230.8 122.01L229.68 124.8C229.29 125.76 228.91 126.72 228.53 127.69C227.77 129.62 227.02 131.56 226.29 133.49C224.84 137.36 223.45 141.23 222.26 145.05C221.67 146.96 221.11 148.85 220.63 150.71C220.15 152.57 219.74 154.39 219.45 156.12C219.15 157.83 218.99 159.48 218.98 160.76C218.98 161.39 219.01 161.93 219.06 162.25C219.08 162.43 219.1 162.51 219.1 162.56L219.09 162.54L219.07 162.48L219.03 162.38C219 162.32 218.98 162.29 218.96 162.26C218.94 162.22 218.92 162.21 218.93 162.24C218.95 162.3 219.05 162.48 219.19 162.69C219.33 162.91 219.52 163.17 219.74 163.44C220.18 164 220.73 164.62 221.33 165.26C222.54 166.55 223.95 167.87 225.42 169.2C228.38 171.85 231.6 174.5 234.89 177.09C238.18 179.7 241.55 182.28 244.95 184.85L255.16 192.54L255.24 192.6C258.46 195.03 259.11 199.61 256.68 202.84C254.55 205.66 250.78 206.5 247.71 205.04C247.17 204.78 246.68 204.55 246.17 204.3L244.67 203.56C243.68 203.06 242.69 202.55 241.7 202.04C239.73 201.02 237.78 199.95 235.83 198.87C231.95 196.7 228.11 194.42 224.31 191.99C222.42 190.77 220.52 189.53 218.65 188.22C217.71 187.57 216.77 186.9 215.83 186.22C214.9 185.53 213.96 184.83 213.03 184.1C211.16 182.65 209.3 181.1 207.42 179.34C206.47 178.45 205.52 177.5 204.55 176.41C204.06 175.86 203.57 175.28 203.07 174.62C202.57 173.96 202.05 173.24 201.53 172.36C201.27 171.93 201 171.44 200.74 170.91C200.61 170.63 200.48 170.36 200.35 170.04L200.25 169.81L200.15 169.56L200.06 169.31L200.01 169.19L199.98 169.1C199.64 168.12 199.37 167.16 199.19 166.27C198.81 164.46 198.65 162.82 198.58 161.29C198.52 159.75 198.57 158.31 198.66 156.93C198.76 155.55 198.91 154.23 199.09 152.94C199.28 151.65 199.51 150.41 199.76 149.19C200.01 147.97 200.28 146.77 200.58 145.6C201.17 143.25 201.84 140.97 202.57 138.74C204.02 134.28 205.68 130 207.51 125.82C208.43 123.73 209.37 121.67 210.38 119.63C210.88 118.61 211.39 117.59 211.92 116.58L212.73 115.06L213.14 114.29L213.59 113.48C216.18 108.84 222.04 107.17 226.68 109.76C230.96 112.15 232.71 117.31 230.93 121.74L230.82 122.01H230.8Z" fill="#00B147"/>
<path d="M208.3 163.68C208.07 163.68 207.86 163.52 207.82 163.28C207.77 163.01 207.94 162.75 208.21 162.7C213.6 161.65 217.66 161.98 217.83 161.99C218.1 162.01 218.3 162.25 218.28 162.52C218.26 162.79 218.02 162.99 217.75 162.97C217.71 162.97 213.66 162.64 208.41 163.66C208.38 163.66 208.35 163.66 208.32 163.66L208.3 163.68Z" fill="#353F18"/>
<path d="M216.31 162.63C216.21 162.63 216.1 162.6 216.01 162.53C215.14 161.88 212.78 161.14 211.94 160.91C211.68 160.84 211.52 160.57 211.6 160.3C211.67 160.04 211.94 159.88 212.21 159.95C212.34 159.99 215.41 160.84 216.61 161.73C216.83 161.89 216.87 162.2 216.71 162.42C216.61 162.55 216.46 162.62 216.31 162.62V162.63Z" fill="#353F18"/>
<path d="M277.05 212.38C279.05 210.64 269.65 204.69 269.65 204.69H273.97C273.97 204.69 271.38 197.71 266.33 196.97C261.28 196.23 254.77 193.39 254.77 193.39C249.25 193.88 246.27 202.88 246.27 202.88L253.58 210.43C253.58 210.43 258.34 216 259.99 216.25C261.64 216.5 262.07 214.71 262.07 214.71C262.07 214.71 263.76 215.76 265.56 215.33C267.37 214.9 267.24 213.3 267.24 213.3C267.24 213.3 269.29 214.66 270.73 214.53C272.17 214.41 272.41 212.93 272.41 212.93C272.41 212.93 274.63 214.47 277.03 212.38H277.05Z" fill="#E49764"/>
<path d="M233.2 175.23C233.12 175.23 233.04 175.21 232.96 175.17C232.48 174.91 221.17 168.66 217.09 162.34C217.02 162.23 217 162.1 217.02 161.97C217.06 161.8 220.6 144.7 224.6 133.67C224.69 133.41 224.98 133.28 225.23 133.37C225.49 133.46 225.62 133.75 225.53 134C221.78 144.32 218.44 160.01 218.03 161.96C222.08 168.02 233.33 174.23 233.44 174.29C233.68 174.42 233.77 174.72 233.64 174.96C233.55 175.12 233.38 175.22 233.21 175.22L233.2 175.23Z" fill="#353F18"/>
<path d="M223.28 139.61C223.07 139.61 222.87 139.47 222.81 139.26C222.73 139 222.88 138.72 223.14 138.65L226.48 137.65C226.74 137.57 227.02 137.72 227.09 137.98C227.17 138.24 227.02 138.52 226.76 138.59L223.42 139.59C223.42 139.59 223.33 139.61 223.28 139.61Z" fill="#353F18"/>
<path d="M240.05 201.4C239.96 201.4 239.87 201.38 239.79 201.33C238.6 200.6 210.57 183.41 203.58 175.72C203.4 175.52 203.41 175.21 203.61 175.02C203.81 174.84 204.12 174.85 204.31 175.05C211.21 182.63 240.02 200.3 240.31 200.48C240.54 200.62 240.62 200.93 240.47 201.16C240.38 201.31 240.21 201.4 240.05 201.4Z" fill="#353F18"/>
<path d="M297.82 199.68C297.82 199.68 306.5 200.54 308.36 202.27C310.21 204 309.54 206.58 309.23 207.45C308.92 208.31 302.02 208.99 300.6 207.2C299.18 205.41 302.39 204.68 302.39 204.68L297.83 199.68H297.82Z" fill="#E49764"/>
</g>
<defs>
<clipPath id="clip0_8_220">
<rect width="370.52" height="387.03" fill="white"/>
</clipPath>
</defs>
</svg>
