<svg width="342" height="436" viewBox="0 0 342 436" fill="none" xmlns="http://www.w3.org/2000/svg">
<g clip-path="url(#clip0_21_1122)">
<path d="M342 436H0V0H342" fill="white"/>
<path d="M113.552 155.748H79.9351C79.7085 155.748 79.5248 155.931 79.5248 156.158V163.142C79.5248 163.369 79.7085 163.552 79.9351 163.552H113.552C113.779 163.552 113.962 163.369 113.962 163.142V156.158C113.962 155.931 113.779 155.748 113.552 155.748Z" fill="#DBC8B1"/>
<path d="M89.9302 165.854H56.3134C56.0868 165.854 55.9031 166.038 55.9031 166.264V173.249C55.9031 173.475 56.0868 173.659 56.3134 173.659H89.9302C90.1568 173.659 90.3405 173.475 90.3405 173.249V166.264C90.3405 166.038 90.1568 165.854 89.9302 165.854Z" fill="#DBC8B1"/>
<path d="M260.808 50.9161H227.191C226.965 50.9161 226.781 51.0996 226.781 51.3259V58.3106C226.781 58.537 226.965 58.7205 227.191 58.7205H260.808C261.035 58.7205 261.218 58.537 261.218 58.3106V51.3259C261.218 51.0996 261.035 50.9161 260.808 50.9161Z" fill="#DBC8B1"/>
<path d="M89.3192 29.1771H55.7023C55.4757 29.1771 55.292 29.3606 55.292 29.587V36.5717C55.292 36.798 55.4757 36.9815 55.7023 36.9815H89.3192C89.5457 36.9815 89.7294 36.798 89.7294 36.5717V29.587C89.7294 29.3606 89.5457 29.1771 89.3192 29.1771Z" fill="#DBC8B1"/>
<path d="M342 436H0V343.507H342" fill="#DBC8B1"/>
<path d="M342 343.507H0V333.932H342" fill="#C0AA94"/>
<path d="M165.134 121.679H135.952L131.683 92.5279H160.865L165.134 121.679Z" fill="#425045"/>
<path d="M131.683 92.5279L127.641 121.679H135.951L131.683 92.5279Z" fill="#131E07"/>
<path d="M137.732 119.604L134.066 94.6033H159.093L162.751 119.604H137.732Z" fill="#CFBFA0"/>
<path d="M138.081 119.185L134.546 95.0219H158.735L162.279 119.185H138.081Z" fill="white"/>
<path d="M156.562 97.9779L159.233 116.229H140.246L137.566 97.9779H156.562Z" fill="#D5963D"/>
<path d="M147.047 106.768C147.047 106.768 150.896 102.259 157.234 102.565L159.233 116.229L147.038 106.768H147.047Z" fill="#49421F"/>
<path d="M138.448 103.977C138.448 103.977 143.886 102.87 149.534 107.099C155.182 111.328 159.233 116.22 159.233 116.22H140.238L138.439 103.969L138.448 103.977Z" fill="#00B147"/>
<path d="M178.263 133.835H44.9563L42.8612 128.28H180.655L178.263 133.835Z" fill="#DBC8B1"/>
<path d="M180.768 121.679H42.8525V128.28H180.768V121.679Z" fill="#425045"/>
<path d="M51.5295 128.28L54.2095 133.887H60.5208L62.3103 128.28H51.5295Z" fill="#131E07"/>
<path d="M172.562 128.28L169.891 133.887H163.58L161.79 128.28H172.562Z" fill="#131E07"/>
<path d="M61.3466 84.623L57.084 85.2753L62.0108 117.4L66.2734 116.748L61.3466 84.623Z" fill="#D5963D"/>
<path d="M61.3589 84.6189L57.0902 85.2729L58.033 82.0116L58.5131 80.3287L59.4821 81.7936L61.3589 84.6189Z" fill="#E8A36F"/>
<path d="M65.9234 114.408L61.6608 115.06L62.019 117.396L66.2816 116.744L65.9234 114.408Z" fill="#131E07"/>
<path d="M62.0288 117.391L66.2914 116.739L66.4183 117.566C66.5055 118.135 66.111 118.672 65.5415 118.759L63.3498 119.094C62.7803 119.182 62.243 118.787 62.1557 118.219L62.0288 117.391Z" fill="#A5410F"/>
<path d="M59.482 81.7936L58.033 82.0116L58.5131 80.3287L59.482 81.7936Z" fill="#131E07"/>
<path d="M65.6644 112.729L61.4019 113.382L61.6583 115.054L65.9209 114.402L65.6644 112.729Z" fill="#A36A24"/>
<path d="M58.3909 86.6855L62.0397 110.474C62.0659 110.657 62.2318 110.779 62.4151 110.753C62.5984 110.727 62.7206 110.561 62.6944 110.378L59.0456 86.5896C59.0194 86.4065 58.8535 86.2844 58.6702 86.3106C58.4869 86.3367 58.3647 86.5024 58.3909 86.6855Z" fill="#A36A24"/>
<path d="M60.0582 86.4327L63.7071 110.221C63.7333 110.404 63.8991 110.526 64.0825 110.5C64.2658 110.474 64.388 110.308 64.3618 110.125L60.7129 86.3367C60.6867 86.1536 60.5209 86.0315 60.3376 86.0577C60.1542 86.0839 60.032 86.2495 60.0582 86.4327Z" fill="#A36A24"/>
<path d="M69.0685 84.7644L64.7562 84.7787L64.8641 117.278L69.1764 117.264L69.0685 84.7644Z" fill="#00B147"/>
<path d="M69.0668 84.7671L64.7545 84.7759L66.1599 81.6977L66.8932 80.1107L67.6352 81.6977L69.0668 84.7671Z" fill="#E8A36F"/>
<path d="M69.1773 114.892L64.865 114.906L64.8728 117.269L69.1851 117.255L69.1773 114.892Z" fill="#131E07"/>
<path d="M64.8436 117.28L69.1559 117.267L69.1586 118.104C69.1604 118.68 68.6905 119.152 68.1143 119.154L65.8971 119.161C65.3209 119.162 64.8481 118.693 64.8463 118.118L64.8436 117.28Z" fill="#A5410F"/>
<path d="M67.6352 81.6977H66.1599L66.8932 80.1107L67.6352 81.6977Z" fill="#131E07"/>
<path d="M69.1629 113.2L64.8506 113.214L64.8562 114.906L69.1685 114.892L69.1629 113.2Z" fill="#49421F"/>
<path d="M65.8282 86.3803L65.9068 110.448C65.9068 110.631 66.0552 110.779 66.2385 110.779C66.4218 110.779 66.5702 110.631 66.5702 110.448L66.4917 86.3803C66.4917 86.1972 66.3433 86.049 66.16 86.049C65.9766 86.049 65.8282 86.1972 65.8282 86.3803Z" fill="#49421F"/>
<path d="M67.5217 86.3716L67.6003 110.439C67.6003 110.622 67.7487 110.77 67.932 110.77C68.1153 110.77 68.2637 110.622 68.2637 110.439L68.1852 86.3716C68.1852 86.1885 68.0368 86.0403 67.8534 86.0403C67.6701 86.0403 67.5217 86.1885 67.5217 86.3716Z" fill="#49421F"/>
<path d="M76.5162 85.22L72.2467 84.6145L67.6738 116.791L71.9433 117.397L76.5162 85.22Z" fill="#2D4446"/>
<path d="M76.5131 85.2206L72.2444 84.6189L74.0776 81.7762L75.0291 80.3025L75.5354 81.9767L76.5131 85.2206Z" fill="#E8A36F"/>
<path d="M67.9945 114.439L67.662 116.779L71.9315 117.384L72.264 115.045L67.9945 114.439Z" fill="#131E07"/>
<path d="M67.6569 116.794L71.9263 117.4L71.8083 118.229C71.7273 118.798 71.1942 119.198 70.6238 119.117L68.4286 118.806C67.8582 118.725 67.4578 118.192 67.5389 117.622L67.6569 116.794Z" fill="#A5410F"/>
<path d="M75.5353 81.9767L74.0775 81.7762L75.029 80.3025L75.5353 81.9767Z" fill="#131E07"/>
<path d="M68.2436 112.783L68.0052 114.457L72.2747 115.064L72.513 113.389L68.2436 112.783Z" fill="#527676"/>
<path d="M73.0736 86.3542L69.6866 110.177C69.6604 110.36 69.7827 110.526 69.966 110.552C70.1493 110.578 70.3152 110.456 70.3413 110.273L73.7283 86.4501C73.7545 86.267 73.6323 86.1013 73.449 86.0751C73.2657 86.049 73.0998 86.1711 73.0736 86.3542Z" fill="#527676"/>
<path d="M74.7497 86.5896L71.3627 110.413C71.3365 110.596 71.4587 110.761 71.642 110.788C71.8253 110.814 71.9912 110.692 72.0174 110.509L75.4044 86.6855C75.4306 86.5024 75.3083 86.3367 75.125 86.3106C74.9417 86.2844 74.7758 86.4065 74.7497 86.5896Z" fill="#527676"/>
<path d="M77.9098 97.6204L77.6915 99.3644L77.482 100.943L77.1765 103.349L76.9757 104.91L76.6615 107.334L76.4607 108.887L76.1464 111.328L75.9456 112.854L75.6227 115.313L75.4306 116.822L75.1164 119.307L74.9156 120.789L74.7497 122.071H57.7972L57.6314 120.789L57.4393 119.307L57.1164 116.822L56.9243 115.313L56.6013 112.854L56.4093 111.328L56.095 108.887L55.8942 107.334L55.58 104.91L55.3792 103.349L55.0649 100.943L54.8642 99.3644L54.6372 97.6204H77.9098Z" fill="#A5410F"/>
<path d="M77.6915 99.3644L77.482 100.943H55.0649L54.8641 99.3644H77.6915Z" fill="#731F07"/>
<path d="M77.1764 103.349L76.9757 104.91H55.5799L55.3792 103.349H77.1764Z" fill="#731F07"/>
<path d="M76.6614 107.334L76.4606 108.887H56.0949L55.8942 107.334H76.6614Z" fill="#731F07"/>
<path d="M76.1465 111.328L75.9457 112.854H56.6013L56.4093 111.328H76.1465Z" fill="#731F07"/>
<path d="M75.6227 115.313L75.4306 116.822H57.1164L56.9243 115.313H75.6227Z" fill="#731F07"/>
<path d="M75.1163 119.307L74.9156 120.789H57.6314L57.4393 119.307H75.1163Z" fill="#731F07"/>
<path d="M118.274 105.835H94.4694V109.253H118.274V105.835Z" fill="#A5410F"/>
<path d="M118.597 119.211C116.197 122.097 109.274 122.141 107.057 122.08C106.621 122.071 106.368 122.054 106.368 122.054C106.368 122.054 97.0184 122.664 94.1377 119.211C92.5053 117.249 93.4219 114.31 94.513 112.13C94.7749 111.616 95.0455 111.136 95.2987 110.727C95.8486 109.828 96.2938 109.253 96.2938 109.253H116.424C116.424 109.253 117.367 110.474 118.205 112.13C119.304 114.31 120.212 117.249 118.58 119.211H118.597Z" fill="#A5410F"/>
<path d="M98.677 116.578C97.6731 119.76 101.435 122.176 106.376 122.063C106.376 122.063 97.0271 122.673 94.1465 119.22C92.5141 117.258 93.4306 114.319 94.5218 112.139C94.548 112.087 94.5742 112.035 94.6004 111.982C94.6266 111.93 94.6528 111.878 94.6789 111.834C94.8885 111.433 95.1067 111.067 95.3075 110.735C95.8574 109.837 96.3026 109.262 96.3026 109.262H116.433C116.433 109.262 117.375 110.482 118.213 112.139H109.205C106.944 112.139 104.7 112.549 102.614 113.395C100.851 114.11 99.1222 115.148 98.6683 116.586L98.677 116.578Z" fill="#731F07"/>
<path d="M114.765 102.774C114.486 103.184 114.215 103.568 113.962 103.917C113.142 105.033 112.487 105.774 112.435 105.835H100.336C100.283 105.774 99.6285 105.033 98.8079 103.917C98.5548 103.568 98.2754 103.184 98.0048 102.774C96.5208 100.559 94.9495 97.5771 95.386 95.3012C95.5169 94.6036 95.7264 94.1153 95.9796 93.7926C96.1105 93.627 96.2589 93.5049 96.4073 93.409C97.7168 92.6503 99.7158 94.4292 100.344 94.3682C101.2 94.2897 99.8118 90.0343 97.8302 87.0085C95.9796 84.1832 94.775 80.4074 97.0359 79.0471C97.1144 78.9948 97.2017 78.9512 97.289 78.9076C97.3676 78.864 97.4549 78.8291 97.5509 78.803C100.493 77.7217 101.505 81.6718 102.745 81.1225C103.967 80.5906 100.231 67.9727 106.106 67.9466C106.193 67.9466 106.298 67.9466 106.394 67.9466C106.49 67.9466 106.586 67.9466 106.682 67.9466C112.557 67.9727 108.821 80.5906 110.043 81.1225C111.282 81.6631 112.295 77.713 115.237 78.803C115.333 78.8378 115.411 78.8727 115.499 78.9076C115.586 78.9512 115.673 78.9948 115.752 79.0471C118.021 80.4074 116.817 84.1832 114.966 87.0085C112.984 90.0343 111.596 94.2897 112.443 94.3682C113.08 94.4292 115.08 92.6503 116.38 93.409C116.537 93.4962 116.677 93.627 116.808 93.7926C117.061 94.1153 117.271 94.6036 117.402 95.3012C117.829 97.5771 116.267 100.559 114.783 102.774H114.765Z" fill="#00B147"/>
<path d="M106.664 67.9462V105.835H106.097V67.9462C106.184 67.9462 106.289 67.9462 106.385 67.9462C106.481 67.9462 106.577 67.9375 106.673 67.9462H106.664Z" fill="#49421F"/>
<path d="M106.594 89.6591L106.376 89.8422L106.158 90.0253L106.088 89.9468L96.7739 79.2038L97.0096 79.0381C97.0882 78.9945 97.1755 78.9422 97.2628 78.8986L106.079 89.0661L106.368 89.3974L106.586 89.6503L106.594 89.6591Z" fill="#49421F"/>
<path d="M106.594 105.181L106.376 105.364L106.158 105.547L106.088 105.468L95.9534 93.7836C96.0843 93.6179 96.224 93.4959 96.3811 93.3999L106.088 104.596L106.376 104.928L106.594 105.181Z" fill="#49421F"/>
<path d="M115.97 79.2125L106.656 89.9555L106.586 90.034L106.368 89.8509L106.149 89.6678L106.368 89.4149L106.656 89.0835L115.472 78.916C115.56 78.9596 115.647 79.0032 115.725 79.0555L115.961 79.2212L115.97 79.2125Z" fill="#49421F"/>
<path d="M116.79 93.7923L106.656 105.477L106.586 105.556L106.368 105.372L106.149 105.189L106.368 104.936L106.656 104.605L116.363 93.4086C116.52 93.4958 116.659 93.6266 116.79 93.7923Z" fill="#49421F"/>
<path d="M334.536 70.9721H196.673V208.687H334.536V70.9721Z" fill="#DBC8B1"/>
<g opacity="0.5">
<path opacity="0.5" d="M217.964 70.9721L196.673 92.2489V71.661L197.363 70.9721H217.964Z" fill="#F1E1CC"/>
</g>
<g opacity="0.5">
<path opacity="0.5" d="M334.536 84.9851V102.19L227.924 208.696H210.701L334.536 84.9851Z" fill="#F1E1CC"/>
</g>
<g opacity="0.5">
<path d="M300.204 70.9721L196.673 174.4V131.672L257.438 70.9721H300.204Z" fill="#F1E1CC"/>
</g>
<g opacity="0.5">
<path d="M334.536 147.935V194.875L320.709 208.696H273.71L334.536 147.935Z" fill="#F1E1CC"/>
</g>
<path d="M334.536 97.7861H196.673V102.399H334.536V97.7861Z" fill="#C0AA94"/>
<path d="M336.85 211.146H194.36V68.8095H336.85V211.146ZM198.986 206.533H332.232V73.4224H198.978V206.524L198.986 206.533Z" fill="#C0AA94"/>
<path d="M310.862 389.749C310.862 392.775 267.084 395.234 213.084 395.234C159.084 395.234 115.307 392.775 115.307 389.749C115.307 386.723 159.084 384.264 213.084 384.264C267.084 384.264 310.862 386.723 310.862 389.749Z" fill="#C0AA94"/>
<path d="M229.269 362.805V388.581H239.98L246.099 366.676L248.36 358.558L229.269 362.805Z" fill="#731F07"/>
<g style="mix-blend-mode:multiply" opacity="0.5">
<path d="M229.269 362.804V369.379C234.122 368.839 241.045 367.618 246.099 366.667L248.369 358.549L229.277 362.804H229.269Z" fill="#731F07"/>
</g>
<path d="M168.957 362.804V388.581H158.246L152.127 366.676L149.857 358.558L168.957 362.804Z" fill="#731F07"/>
<g style="mix-blend-mode:multiply" opacity="0.5">
<path d="M168.957 362.804V369.379C164.104 368.839 157.181 367.618 152.127 366.667L149.857 358.549L168.949 362.804H168.957Z" fill="#731F07"/>
</g>
<path d="M119.357 210.762C120.396 221.636 129.535 261.242 134.136 280.767C134.598 282.711 135.009 284.464 135.367 285.964C136.231 289.617 136.763 291.797 136.763 291.797L235.292 289.731C235.292 289.731 235.571 288.466 236.043 286.243C239.569 269.771 254.104 200.29 250.263 193.523C249.992 193.043 249.591 192.581 249.076 192.119C248.709 191.788 248.29 191.465 247.801 191.151C247.321 190.837 246.789 190.515 246.195 190.209C239.063 186.451 224.197 183.321 207.314 181.472C187.403 179.283 164.689 178.891 148.565 181.35C148.103 181.42 147.649 181.489 147.204 181.568C146.025 181.76 144.899 181.96 143.817 182.17C122.683 186.163 118.597 191.91 118.458 200.054C118.405 203.254 118.964 206.812 119.348 210.789L119.357 210.762Z" fill="#A5410F"/>
<path d="M234.672 268.663C234.873 268.663 235.056 268.515 235.091 268.314C235.126 268.14 238.242 250.996 240.765 233.565C242.249 223.319 243.236 214.983 243.698 208.783C244.493 198.145 243.594 196.017 242.843 195.345C238.513 191.465 216.122 188.492 203.168 187.07C196.961 186.39 190.632 186.172 184.373 186.425C169.385 187.044 143.598 188.683 139.225 192.712C138.483 193.392 137.61 195.529 138.553 206.158C139.103 212.349 140.203 220.677 141.826 230.897C144.594 248.293 147.954 265.393 147.989 265.559C148.033 265.794 148.26 265.943 148.496 265.899C148.731 265.855 148.88 265.629 148.836 265.393C148.801 265.219 145.44 248.136 142.682 230.757C137.854 200.351 138.806 194.264 139.81 193.34C142.856 190.532 159.111 188.326 184.408 187.279C190.632 187.027 196.909 187.236 203.08 187.916C215.939 189.329 238.129 192.259 242.284 195.982C243.297 196.889 244.336 202.967 239.936 233.434C237.422 250.848 234.297 267.983 234.262 268.149C234.218 268.384 234.375 268.602 234.602 268.646C234.628 268.646 234.655 268.646 234.681 268.646L234.672 268.663Z" fill="#731F07"/>
<path d="M118.467 200.037C118.51 203.019 119.008 206.315 119.348 209.943C120.387 220.817 129.527 260.423 134.127 279.947H150.224C150.224 279.947 132.468 215.262 131.43 199.357C130.749 188.971 138.404 184.21 143.817 182.152C122.683 186.146 118.589 191.892 118.467 200.037Z" fill="#731F07"/>
<path d="M235.231 287.865C235.231 287.865 250.376 286.4 251.616 291.876C252.585 296.149 251.284 334.403 250.673 351.032C250.507 355.392 253.877 359.072 258.233 359.316C259.193 359.369 260.214 359.421 261.253 359.456C266.273 359.639 271.964 359.56 275.866 358.68C284.36 356.761 284.639 344.719 287.651 324.724C290.662 304.738 293.403 269.143 274.766 262.298C274.129 262.062 273.483 261.844 272.846 261.652C254.889 256.228 237.762 266.954 237.762 266.954C233.625 278.395 235.222 287.865 235.222 287.865H235.231Z" fill="#731F07"/>
<path d="M261.253 359.456C266.273 359.639 271.964 359.56 275.866 358.68C284.36 356.761 284.639 344.719 287.651 324.724C290.662 304.738 293.404 269.143 274.766 262.298C274.129 262.062 273.483 261.844 272.846 261.652C269.668 262.411 266.753 264.512 265.173 269.143C260.904 281.691 267.678 325.282 261.253 359.447V359.456Z" fill="#A5410F"/>
<path d="M271.178 356.456C275.054 356.456 278.057 354.86 279.899 351.826C282.78 347.073 286.926 306.316 287.11 304.59C287.127 304.38 286.979 304.188 286.76 304.162C286.551 304.145 286.359 304.293 286.333 304.511C286.289 304.93 282.02 346.829 279.236 351.425C275.011 358.409 265.67 354.686 265.583 354.642C265.382 354.564 265.155 354.66 265.077 354.852C264.998 355.044 265.094 355.279 265.286 355.357C265.391 355.401 267.809 356.378 270.82 356.447C270.943 356.447 271.056 356.447 271.178 356.447V356.456Z" fill="#731F07"/>
<path d="M269.791 276.206C269.791 276.206 270.096 269.37 275.264 269.91C280.432 270.451 280.676 281.734 276.058 283.199C269.302 285.336 269.791 276.215 269.791 276.215V276.206Z" fill="#731F07"/>
<path d="M281.689 274.166C281.689 274.166 281.741 274.166 281.776 274.157C281.985 274.113 282.116 273.904 282.073 273.695C282.02 273.442 280.632 267.442 275.63 266.248C273.605 265.768 271.807 266.126 270.279 267.329C268.079 269.064 267.049 272.204 267.049 273.782C267.049 273.991 267.224 274.166 267.434 274.166C267.643 274.166 267.818 273.991 267.818 273.782C267.818 272.552 268.682 269.579 270.751 267.939C272.078 266.893 273.658 266.579 275.438 267.006C279.978 268.088 281.296 273.808 281.305 273.869C281.348 274.052 281.505 274.174 281.68 274.174L281.689 274.166Z" fill="#731F07"/>
<path d="M129.858 285.31C130.827 289.373 131.412 291.797 131.412 291.797L240.949 289.504C240.949 289.504 241.254 288.1 241.787 285.624C222.372 282.327 155.759 283.444 129.867 285.31H129.858Z" fill="#731F07"/>
<path d="M130.731 305.976C130.758 308.043 130.801 310.223 130.871 312.49C131.482 332.886 133.979 359.77 142.83 362.124C157.243 365.961 246.693 367.914 251.363 359.377C252.759 356.831 253.624 352.541 254.191 347.291C254.305 346.262 254.401 345.199 254.488 344.1C255.256 334.604 255.265 322.78 255.579 312.49C255.666 309.726 255.771 307.066 255.928 304.598C257.037 286.452 242.249 286.19 242.249 286.19C221.342 285.702 190.632 286.679 166.749 287.69C154.292 288.213 143.695 288.745 137.313 289.085C133.202 289.303 130.836 289.434 130.836 289.434C130.836 289.434 130.592 296.375 130.714 305.976H130.731Z" fill="#A5410F"/>
<path d="M200.785 347.562C202.592 347.562 204.442 347.544 206.363 347.501C235.231 346.916 251.843 340.42 252.009 340.359C252.253 340.263 252.375 339.984 252.271 339.74C252.175 339.496 251.895 339.374 251.651 339.478C251.485 339.539 235.013 345.975 206.337 346.559C177.617 347.143 161.852 343.062 161.695 343.019C161.441 342.949 161.179 343.106 161.11 343.359C161.04 343.612 161.197 343.873 161.45 343.943C161.598 343.978 175.461 347.57 200.776 347.57L200.785 347.562Z" fill="#731F07"/>
<path d="M130.731 305.976C130.758 308.043 130.801 310.223 130.871 312.49C131.482 332.886 133.979 359.77 142.83 362.124C157.242 365.961 246.693 367.914 251.363 359.377C252.759 356.831 253.624 352.541 254.191 347.291C254.305 346.262 254.401 345.199 254.488 344.1C250.245 346.925 237.509 350.631 228.762 351.529C192.282 355.27 163.894 350.178 163.894 350.178C168.687 330.453 167.412 298.948 166.758 287.69C154.301 288.213 143.703 288.745 137.322 289.085L130.731 305.985V305.976Z" fill="#731F07"/>
<path d="M109.1 291.806C109.1 291.806 108.541 288.484 108.943 283.409C109.589 275.29 115.176 268.367 122.997 266.056C129.457 264.146 137.994 262.969 146.724 265.602C147.361 265.794 148.007 266.012 148.644 266.248C167.281 273.093 164.54 308.688 161.529 328.674C158.517 348.66 158.238 360.712 149.744 362.63C145.842 363.511 140.15 363.58 135.131 363.406C134.083 363.371 133.071 363.319 132.111 363.266C132.111 363.266 121.548 364.182 116.127 359.543C110.706 354.904 109.109 291.815 109.109 291.815L109.1 291.806Z" fill="#731F07"/>
<path d="M135.131 363.397C140.15 363.58 145.842 363.502 149.744 362.621C158.238 360.703 158.517 348.66 161.529 328.666C164.54 308.679 167.281 273.084 148.644 266.239C148.007 266.004 147.361 265.794 146.724 265.594C143.546 266.352 140.63 268.454 139.05 273.084C134.782 285.632 141.556 329.224 135.131 363.389V363.397Z" fill="#A5410F"/>
<path d="M145.65 360.075C149.526 360.075 152.529 358.479 154.37 355.445C157.251 350.692 161.406 309.935 161.581 308.208C161.598 307.999 161.45 307.807 161.232 307.781C161.014 307.764 160.83 307.912 160.804 308.13C160.76 308.548 156.492 350.448 153.707 355.044C151.944 357.956 149.124 359.386 145.336 359.299C142.464 359.229 140.072 358.27 140.054 358.261C139.854 358.183 139.627 358.279 139.548 358.47C139.469 358.671 139.565 358.898 139.758 358.976C139.862 359.02 142.28 359.997 145.292 360.066C145.414 360.066 145.528 360.066 145.65 360.066V360.075Z" fill="#731F07"/>
<path d="M141.905 277.497C142.115 277.497 142.289 277.322 142.289 277.113C142.289 275.883 143.153 272.91 145.222 271.27C146.549 270.224 148.129 269.91 149.91 270.337C154.44 271.419 155.767 277.139 155.776 277.2C155.82 277.409 156.029 277.54 156.239 277.497C156.448 277.453 156.579 277.244 156.535 277.034C156.483 276.782 155.095 270.782 150.093 269.588C148.068 269.108 146.27 269.465 144.742 270.669C142.542 272.404 141.512 275.543 141.512 277.122C141.512 277.331 141.687 277.505 141.896 277.505L141.905 277.497Z" fill="#731F07"/>
<path d="M143.93 279.886C143.93 279.886 144.236 273.049 149.403 273.59C154.571 274.131 154.816 285.414 150.198 286.879C143.441 289.016 143.93 279.895 143.93 279.895V279.886Z" fill="#731F07"/>
<path d="M114.111 390.874C114.111 393.202 95.7614 395.086 73.1261 395.086C50.4908 395.086 32.1416 393.202 32.1416 390.874C32.1416 388.546 50.4908 386.662 73.1261 386.662C95.7614 386.662 114.111 388.546 114.111 390.874Z" fill="#C0AA94"/>
<path d="M86.1241 221.907C84.5179 223.834 83.3569 230.94 80.2929 232.083C78.1804 232.868 77.063 229.824 81.1571 225.979C83.7934 223.502 84.9631 220.538 85.4694 218.741C84.7449 215.602 83.8021 212.384 82.5887 209.454C80.2231 211.634 76.4433 214.73 75.3608 213.248C74.1823 211.634 77.709 206.559 79.6731 203.961C78.7565 202.627 77.7439 201.476 76.6091 200.551C74.7672 199.043 72.6198 198.179 70.1319 198.249C68.3424 198.293 66.6925 198.947 65.2173 200.046C67.321 204.214 70.4287 211.251 68.2551 212.864C66.2386 214.364 63.3055 208.539 61.4811 204.188C58.9059 208.164 57.1688 213.614 56.418 218.872C56.9243 219.814 57.7973 220.904 59.2987 221.994C63.2881 224.863 68.0281 230.653 65.6625 231.935C63.2968 233.225 60.8176 229.824 59.0543 226.79C58.1465 225.229 57.1338 223.973 56.0252 223.145C55.9903 224.069 55.9903 224.967 56.0252 225.831C56.6537 242.364 72.8118 242.364 72.8118 242.364C72.8118 242.364 88.9961 238.64 86.1416 221.924L86.1241 221.907ZM65.7847 222.238C64.1785 222.22 61.6382 219.238 60.4423 217.573C59.2464 215.907 60.2066 214.774 61.3501 215.096C61.3676 215.096 61.3851 215.105 61.4025 215.114C63.0087 215.593 67.8623 222.255 65.7847 222.238ZM79.8826 218.279C79.8826 218.279 79.9176 218.27 79.935 218.262C81.0786 217.939 82.0213 218.706 81.4801 220.171C80.773 222.09 79.8303 222.848 78.4074 222.125C77.5082 221.671 78.2764 218.759 79.8826 218.279Z" fill="#00B147"/>
<path d="M71.0659 217.765C72.4801 224.959 72.0349 232.379 71.4937 239.643C70.9175 247.517 70.1231 255.4 70.4287 263.309C70.6033 267.73 71.1358 272.134 72.192 276.433C72.2793 276.799 72.8467 276.642 72.7594 276.276C68.9185 260.737 72.4626 244.919 72.5761 229.214C72.6023 225.334 72.3753 221.436 71.6246 217.616C71.5548 217.25 70.9874 217.407 71.0572 217.773L71.0659 217.765Z" fill="#131E07"/>
<path d="M63.8031 242.425C63.646 244.927 66.9021 251.345 65.0951 254.075C63.8555 255.958 61.1494 254.153 62.1882 248.633C62.8516 245.076 62.0485 241.989 61.3938 240.245C58.9583 238.134 56.2959 236.094 53.581 234.437C52.9612 237.585 51.7304 242.32 49.9845 241.762C48.0815 241.152 47.9331 234.978 47.9855 231.717C46.4578 231.185 44.9564 230.845 43.4986 230.766C41.1155 230.635 38.8807 231.202 36.9079 232.719C35.485 233.818 34.5422 235.309 33.9923 237.071C38.1562 239.19 44.8167 243.044 44.0136 245.634C43.2716 248.04 37.4666 245.058 33.4161 242.625C33.678 247.352 35.5025 252.775 37.9991 257.467C38.9593 257.929 40.3124 258.295 42.1717 258.286C47.0864 258.252 54.3318 260.135 53.1795 262.568C52.0272 265.001 48.0204 263.71 44.7993 262.306C43.1494 261.583 41.5868 261.164 40.1989 261.147C40.7139 261.914 41.2377 262.638 41.7789 263.318C52.0447 276.302 65.0951 266.78 65.0951 266.78C65.0951 266.78 75.9632 254.24 63.7857 242.425H63.8031ZM47.5665 254.676C46.2658 255.609 42.4423 254.694 40.5044 254.057C38.5578 253.412 38.6625 251.938 39.7711 251.52C39.7886 251.52 39.8061 251.511 39.8148 251.502C41.3948 250.944 49.2512 253.464 47.5577 254.676H47.5665ZM56.6101 243.166C56.6101 243.166 56.6276 243.14 56.645 243.122C57.3783 242.189 58.5917 242.25 59.0194 243.75C59.5781 245.712 59.2726 246.881 57.6926 247.142C56.6974 247.308 55.5975 244.5 56.6189 243.166H56.6101Z" fill="#00B147"/>
<path d="M49.164 247.927C52.97 251.424 56.7324 255.051 59.8051 259.219C62.1359 262.385 63.9341 265.855 65.5578 269.422C66.7275 271.986 67.8449 274.575 68.9885 277.148C69.1369 277.488 69.6432 277.191 69.4948 276.851C67.6267 272.648 65.8895 268.358 63.6984 264.303C61.7605 260.702 59.3337 257.423 56.5753 254.406C54.3667 251.991 51.9923 249.723 49.5743 247.508C49.295 247.256 48.8847 247.665 49.164 247.918V247.927Z" fill="#131E07"/>
<path d="M77.8575 269.753C77.8575 269.753 90.8381 279.371 101.2 266.457C101.741 265.777 102.274 265.062 102.797 264.294C101.418 264.303 99.8468 264.713 98.1882 265.419C94.9583 266.806 90.9428 268.07 89.808 265.62C88.6732 263.178 95.9273 261.338 100.842 261.417C102.693 261.443 104.054 261.086 105.015 260.623C107.546 255.949 109.405 250.543 109.702 245.817C105.643 248.224 99.8119 251.162 99.0873 248.755C98.3017 246.157 104.997 242.355 109.17 240.262C108.637 238.501 107.703 237.001 106.289 235.893C104.334 234.359 102.09 233.783 99.7158 233.897C98.258 233.966 96.7566 234.289 95.2202 234.812C95.2551 238.073 95.0543 244.247 93.1513 244.84C91.4055 245.381 90.2008 240.646 89.6072 237.489C86.8836 239.12 84.2037 241.143 81.7508 243.236C81.0786 244.98 80.258 248.058 80.8953 251.616C81.8904 257.144 79.1756 258.923 77.9447 257.039C76.1639 254.293 79.4637 247.892 79.324 245.398C67.0679 257.127 77.8487 269.744 77.8487 269.744L77.8575 269.753ZM103.251 254.65C103.251 254.65 103.286 254.659 103.295 254.668C104.404 255.095 104.5 256.569 102.544 257.196C100.598 257.824 96.774 258.705 95.4734 257.763C93.7973 256.542 101.662 254.075 103.243 254.641L103.251 254.65ZM85.4084 250.177C83.8283 249.906 83.5315 248.738 84.099 246.776C84.5354 245.276 85.7488 245.224 86.4821 246.166C86.4908 246.174 86.4995 246.192 86.517 246.209C87.5209 247.552 86.4035 250.351 85.4084 250.186V250.177Z" fill="#00B147"/>
<path d="M93.5092 250.604C89.7992 253.97 86.0194 257.353 82.8157 261.208C80.45 264.05 78.5732 267.19 76.9321 270.494C75.6925 272.997 74.549 275.543 73.3967 278.09C73.2396 278.43 73.7459 278.726 73.903 278.386C75.71 274.384 77.4646 270.32 79.7342 266.544C81.7333 263.222 84.2386 260.301 86.9709 257.563C89.2143 255.304 91.5713 253.159 93.9282 251.023C94.2076 250.77 93.7973 250.36 93.5179 250.613L93.5092 250.604Z" fill="#131E07"/>
<path d="M92.0951 274.881L91.3007 281.665L91.1698 282.79L90.7944 286.016L90.6635 287.141L90.2707 290.454L90.1397 291.579L87.2765 315.969C76.3473 317.356 66.1426 317.268 56.5403 315.969L53.6771 291.579L53.5461 290.454L53.1533 287.141L53.0224 286.016L52.647 282.79L52.5161 281.665L51.7217 274.881H92.1038H92.0951Z" fill="#D5963D"/>
<path d="M91.292 281.665L91.1611 282.79H52.6383L52.5073 281.665H91.292Z" fill="#A36A24"/>
<path d="M90.7857 286.016L90.6548 287.141H53.1446L53.0137 286.016H90.7857Z" fill="#A36A24"/>
<path d="M90.2619 290.454L90.131 291.579H53.6683L53.5374 290.454H90.2619Z" fill="#A36A24"/>
<path d="M89.8691 302.244H53.9302L53.5374 299.314H90.2619L89.8691 302.244Z" fill="#291D2C"/>
<path d="M94.1116 348.704H49.9671L49.4869 345.783H94.5917L94.1116 348.704Z" fill="#291D2C"/>
<path d="M44.0834 392.243L59.0631 302.244H56.3308L41.7527 392.243H44.0834Z" fill="#291D2C"/>
<path d="M102.081 392.243L87.5034 302.244H84.7711L99.7507 392.243H102.081Z" fill="#291D2C"/>
<path d="M199.51 208.556L199.912 210.745L200.322 212.89C200.601 214.32 200.881 215.742 201.178 217.163C201.762 220.014 202.391 222.857 203.054 225.7C203.709 228.542 204.425 231.394 205.167 234.254C205.926 237.114 206.738 239.983 207.663 242.904C208.126 244.369 208.624 245.843 209.182 247.369C209.462 248.128 209.759 248.904 210.09 249.697C210.422 250.491 210.771 251.31 211.199 252.2C211.408 252.645 211.644 253.098 211.906 253.586C212.177 254.075 212.473 254.598 212.857 255.182C212.953 255.33 213.049 255.479 213.163 255.636L213.329 255.871L213.512 256.124C213.626 256.281 213.783 256.481 213.922 256.656L214.167 256.944C214.245 257.039 214.333 257.135 214.437 257.249L214.734 257.563C214.848 257.676 214.961 257.798 215.083 257.911C215.188 258.016 215.345 258.156 215.476 258.278L215.686 258.461L215.93 258.661L216.183 258.862L216.314 258.958L216.463 259.062L216.777 259.272L216.934 259.376L217.109 259.481C217.231 259.56 217.362 259.629 217.484 259.699L217.676 259.804L217.842 259.891L217.964 259.943C219.282 260.527 220.653 261.129 222.058 261.722C223.464 262.315 224.913 262.873 226.371 263.405C227.828 263.937 229.295 264.417 230.753 264.879C233.686 265.768 236.593 266.527 239.508 267.137C243.559 267.983 247.539 265.393 248.386 261.338C249.111 257.877 247.321 254.476 244.257 253.028L244.179 252.993C241.682 251.816 239.211 250.674 236.837 249.479C235.641 248.895 234.48 248.276 233.328 247.657C232.167 247.046 231.041 246.401 229.88 245.738C228.727 245.076 227.549 244.387 226.336 243.672L226.222 243.602C226.222 243.602 226.24 243.602 226.257 243.619L226.327 243.654L226.458 243.724C226.545 243.776 226.632 243.82 226.72 243.881L226.938 244.02C227.008 244.064 227.069 244.108 227.139 244.16L227.313 244.282L227.462 244.395L227.715 244.605L227.916 244.788C227.968 244.84 228.02 244.892 228.073 244.945C228.116 244.98 228.151 245.023 228.186 245.058L228.282 245.154L228.361 245.241C228.361 245.241 228.439 245.328 228.457 245.346L228.492 245.381C228.492 245.381 228.501 245.39 228.509 245.398C228.518 245.416 228.527 245.407 228.527 245.398C228.527 245.381 228.483 245.276 228.431 245.128C228.37 244.98 228.3 244.797 228.221 244.587C228.064 244.169 227.889 243.663 227.724 243.131C227.558 242.599 227.383 242.015 227.217 241.431C226.886 240.245 226.571 238.989 226.266 237.716C225.655 235.152 225.114 232.484 224.59 229.798C224.057 227.112 223.577 224.383 223.106 221.645C222.634 218.907 222.18 216.16 221.744 213.405L221.098 209.271L220.478 205.19L220.461 205.077C219.579 199.278 214.158 195.302 208.362 196.183C202.557 197.063 198.576 202.478 199.458 208.268C199.467 208.356 199.493 208.486 199.51 208.565V208.556Z" fill="#0055A6"/>
<path d="M257.36 257.318C257.36 257.318 262.903 258.722 264.448 260.074C265.993 261.426 269.913 264.521 269.11 265.446C267.346 267.477 260.354 261.33 260.354 261.33L257.36 257.318Z" fill="#AE5935"/>
<path d="M239.028 260.929C239.028 260.929 243.07 264.643 246.474 265.576C249.879 266.509 255.893 267.791 258.765 266.631C261.628 265.472 257.604 264.129 256.059 263.702C254.156 263.178 252.131 263.466 252.655 262.795C253.178 262.123 255.562 262.707 258.931 263.388C262.301 264.068 266.91 267.992 268.664 267.12C269.921 266.492 267.512 264.024 265.609 262.114C263.697 260.196 263.174 259.045 258.137 257.17C255.081 256.037 244.388 254.171 244.388 254.171C244.388 254.171 237.893 255.06 239.028 260.929Z" fill="#E6A16E"/>
<path d="M217.798 204.711C219.658 210.448 219.003 215.114 221.115 221.148C224.267 230.138 220.382 235.039 217.824 238.998C215.267 242.957 215.79 254.197 216.288 257.406C216.786 260.615 221.316 264.05 221.674 267.53C222.032 271.018 215.511 282.354 203.037 288.824C190.562 295.285 167.691 296.044 165.125 287.202C162.567 278.36 162.471 256.664 161.904 246.75C161.206 234.638 160.123 221.165 161.852 208.722C163.58 196.278 168.041 193.253 171.271 191.029C172.755 190 177.233 189.721 181.632 189.73C186.783 189.73 191.828 190.113 191.828 190.113C191.828 190.113 198.454 191.971 204.11 193.401C206.502 194.003 209.662 195.468 210.946 195.86C215.755 197.325 215.939 198.973 217.798 204.711Z" fill="#0055A6"/>
<path d="M208.423 205.818C209.034 206.402 209.654 206.978 210.265 207.562C210.727 207.998 211.417 207.301 210.963 206.865C210.352 206.28 209.732 205.705 209.121 205.121C208.659 204.685 207.969 205.382 208.423 205.818Z" fill="#113654"/>
<path d="M192.919 209.585C192.046 210.78 191.174 211.974 190.301 213.169C189.925 213.684 190.781 214.172 191.147 213.666C192.02 212.472 192.893 211.277 193.766 210.082C194.142 209.568 193.286 209.079 192.919 209.585Z" fill="#113654"/>
<path d="M203.368 215.707C204.241 216.483 205.114 217.259 205.987 218.026C206.459 218.445 207.157 217.756 206.686 217.329C205.813 216.552 204.94 215.776 204.067 215.009C203.595 214.59 202.897 215.279 203.368 215.707Z" fill="#113654"/>
<path d="M198.401 221.854C197.677 222.901 196.952 223.947 196.219 224.993C195.861 225.517 196.708 226.005 197.066 225.49C197.79 224.444 198.515 223.398 199.248 222.351C199.606 221.828 198.759 221.34 198.401 221.854Z" fill="#113654"/>
<path d="M184.548 223.267C185.543 224.444 186.538 225.613 187.533 226.79C187.944 227.269 188.633 226.572 188.232 226.092C187.237 224.915 186.241 223.746 185.246 222.569C184.836 222.09 184.146 222.787 184.548 223.267Z" fill="#113654"/>
<path d="M180.297 233.914C181.274 235.1 182.261 236.286 183.239 237.472C183.64 237.96 184.33 237.262 183.937 236.774C182.959 235.588 181.973 234.402 180.995 233.216C180.594 232.728 179.904 233.426 180.297 233.914Z" fill="#113654"/>
<path d="M191.27 238.265C190.781 239.076 190.301 239.878 189.812 240.689C189.489 241.23 190.336 241.727 190.659 241.186C191.147 240.376 191.628 239.573 192.116 238.762C192.439 238.222 191.593 237.725 191.27 238.265Z" fill="#113654"/>
<path d="M183.579 247.474C184.609 248.224 185.63 248.982 186.66 249.732C187.167 250.107 187.664 249.252 187.158 248.886C186.128 248.136 185.107 247.378 184.077 246.628C183.57 246.253 183.073 247.107 183.579 247.474Z" fill="#113654"/>
<path d="M211.146 232.545L209.051 235.571C208.693 236.094 209.54 236.582 209.898 236.068C210.596 235.056 211.295 234.045 211.993 233.042C212.351 232.519 211.504 232.03 211.146 232.545Z" fill="#113654"/>
<path d="M199.851 232.789C200.662 233.522 201.483 234.263 202.295 234.995C202.766 235.414 203.456 234.725 202.993 234.298C202.181 233.565 201.361 232.824 200.549 232.092C200.078 231.673 199.388 232.362 199.851 232.789Z" fill="#113654"/>
<path d="M202.33 243.55C203.281 244.143 204.137 244.849 204.905 245.66C205.341 246.122 206.031 245.424 205.603 244.962C204.774 244.09 203.849 243.34 202.827 242.704C202.286 242.364 201.797 243.218 202.33 243.55Z" fill="#113654"/>
<path d="M196.621 249.252C197.642 250.037 198.567 250.944 199.379 251.947C199.781 252.435 200.47 251.738 200.077 251.249C199.205 250.177 198.218 249.235 197.118 248.398C196.621 248.014 196.123 248.869 196.621 249.244V249.252Z" fill="#113654"/>
<path d="M213.084 248.912C212.534 249.819 211.984 250.717 211.434 251.624C211.103 252.165 211.958 252.662 212.281 252.121C212.831 251.214 213.381 250.316 213.931 249.409C214.263 248.869 213.407 248.372 213.084 248.912Z" fill="#113654"/>
<path d="M210.282 260.397C211.312 260.833 212.22 261.478 212.997 262.289C213.434 262.742 214.132 262.053 213.695 261.591C212.796 260.658 211.74 259.952 210.553 259.455C209.968 259.211 209.715 260.161 210.291 260.397H210.282Z" fill="#113654"/>
<path d="M209.828 264.146C209.374 265.472 208.929 266.797 208.475 268.123C208.274 268.724 209.217 268.977 209.418 268.384C209.872 267.059 210.317 265.733 210.771 264.408C210.972 263.806 210.029 263.553 209.828 264.146Z" fill="#113654"/>
<path d="M178.394 271.924C179.607 272.823 180.812 273.721 182.025 274.61C182.531 274.985 183.02 274.139 182.523 273.764C181.309 272.866 180.105 271.968 178.891 271.079C178.385 270.704 177.896 271.55 178.394 271.924Z" fill="#113654"/>
<path d="M173.889 272.849C172.606 273.869 171.209 274.706 169.725 275.395C169.149 275.657 169.647 276.502 170.223 276.241C171.794 275.517 173.235 274.619 174.588 273.546C175.085 273.154 174.387 272.465 173.889 272.849Z" fill="#113654"/>
<path d="M182.575 210.03C183.553 211.059 184.522 212.088 185.499 213.117C185.936 213.579 186.626 212.881 186.198 212.419C185.22 211.39 184.251 210.361 183.273 209.332C182.837 208.87 182.147 209.568 182.575 210.03Z" fill="#113654"/>
<path d="M211.731 223.154C211.155 224.087 210.439 224.889 209.575 225.578C209.078 225.97 209.776 226.659 210.273 226.275C211.199 225.543 211.967 224.662 212.578 223.659C212.91 223.119 212.063 222.622 211.731 223.162V223.154Z" fill="#113654"/>
<path d="M213.18 214.922C214.254 216.012 215.328 217.111 216.393 218.201C216.838 218.654 217.528 217.956 217.091 217.503C216.017 216.413 214.944 215.314 213.879 214.224C213.433 213.771 212.744 214.468 213.18 214.922Z" fill="#113654"/>
<path d="M217.484 227.444C218.287 228.063 219.09 228.682 219.893 229.301C220.391 229.685 220.88 228.83 220.391 228.455C219.588 227.836 218.785 227.217 217.981 226.598C217.484 226.214 216.995 227.069 217.484 227.444Z" fill="#113654"/>
<path d="M211.627 198.467L208.039 200.691C207.506 201.022 207.995 201.868 208.536 201.537C209.732 200.795 210.928 200.054 212.124 199.313C212.657 198.982 212.168 198.136 211.627 198.467Z" fill="#113654"/>
<path d="M204.102 193.41C204.39 196.566 204.687 206.376 197.223 204.868C188.354 203.071 181.624 189.738 181.624 189.738C186.774 189.738 191.819 190.122 191.819 190.122C191.819 190.122 198.445 191.98 204.102 193.41Z" fill="#E6A16E"/>
<path d="M168.914 289.399C168.669 289.417 168.451 289.251 168.399 289.007C164.252 268.62 164.13 248.529 164.758 235.257C165.439 220.878 167.124 211.19 167.141 211.094C167.185 210.832 167.438 210.649 167.709 210.701C167.971 210.745 168.154 210.998 168.102 211.268C168.084 211.364 166.408 221.008 165.736 235.327C165.116 248.537 165.238 268.532 169.359 288.815C169.411 289.077 169.245 289.338 168.975 289.391C168.957 289.391 168.931 289.391 168.914 289.391V289.399Z" fill="#234159"/>
<path d="M216.489 244.143C216.489 244.143 216.463 244.143 216.454 244.143C216.183 244.16 215.948 243.959 215.93 243.689C215.921 243.532 215.668 239.835 218.322 236.774C221.133 233.53 223.769 228.072 220.312 220.511C220.199 220.267 220.312 219.979 220.557 219.866C220.801 219.753 221.089 219.866 221.203 220.11C224.869 228.141 222.058 233.958 219.064 237.419C216.681 240.166 216.899 243.584 216.908 243.619C216.925 243.872 216.742 244.099 216.489 244.134V244.143Z" fill="#234159"/>
<path d="M199.292 147.499C199.292 147.499 212.168 146.33 215.598 157.588C217.912 165.174 214.743 169.22 217.091 173.737C219.439 178.254 220.138 190.645 208.458 189.494C196.778 188.343 192.151 186.556 183.116 186.704C174.081 186.852 168.198 178.062 172.196 172.83C176.194 167.598 175.897 160.3 180.14 154.126C184.382 147.952 192.081 145.825 199.301 147.499H199.292Z" fill="#7E7D73"/>
<path d="M202.059 193.488C196.307 204.161 184.705 192.991 184.452 190.401C186.565 183.8 185.936 179.71 185.936 179.71L202.496 183.103C202.452 183.539 202.408 183.975 202.356 184.419C202.138 186.451 201.937 188.526 201.937 190.733C201.937 191.779 201.937 192.372 202.059 193.479V193.488Z" fill="#E6A16E"/>
<path d="M196.429 202.33C196.935 202.374 197.45 202.365 197.983 202.295C202.67 201.685 202.609 193.811 202.6 193.479C202.6 193.174 202.347 192.939 202.05 192.939C201.754 192.939 201.509 193.192 201.509 193.488C201.509 193.558 201.562 200.726 197.843 201.205C190.597 202.147 185.587 189.695 185.534 189.573C185.421 189.294 185.107 189.154 184.827 189.268C184.548 189.381 184.408 189.695 184.522 189.974C184.723 190.488 189.244 201.711 196.429 202.321V202.33Z" fill="white"/>
<path d="M201.937 190.741C194.098 188.823 189.148 180.609 189.148 180.609L202.356 184.428C202.138 186.46 201.937 188.535 201.937 190.741Z" fill="#131E07"/>
<path d="M207.567 172.726C207.567 172.726 208.842 168.845 212.002 169.761C215.162 170.677 215.179 181.219 209.147 180.835L207.567 172.726Z" fill="#AE5935"/>
<path d="M186.215 180.434C187.857 184.646 200.532 188.884 205.027 186.791C207.76 185.518 210.169 182.972 211.504 177.356C211.504 177.33 211.522 177.295 211.522 177.269C211.6 176.938 211.67 176.606 211.74 176.284C211.862 175.699 211.967 175.133 212.054 174.583C212.072 174.452 212.089 174.33 212.107 174.199C212.15 173.859 212.194 173.528 212.22 173.214C212.255 172.822 212.281 172.455 212.29 172.107C212.438 166.474 212.727 160.143 207.567 156.637C202.408 153.132 194.377 152.208 189.786 157.274C189.786 157.274 184.993 161.93 185.168 170.075C185.342 178.219 185.028 177.391 186.215 180.434Z" fill="#E6A16E"/>
<path d="M199.606 169.892C199.449 170.764 198.952 171.409 198.498 171.322C198.044 171.243 197.808 170.467 197.965 169.595C198.122 168.723 198.62 168.078 199.074 168.165C199.528 168.252 199.763 169.02 199.606 169.892Z" fill="#131E07"/>
<path d="M196.411 168.601C196.368 168.584 196.324 168.558 196.298 168.514C196.219 168.409 196.245 168.261 196.35 168.183C196.437 168.122 198.515 166.63 200.427 167.895C200.532 167.965 200.566 168.113 200.497 168.218C200.427 168.322 200.278 168.357 200.174 168.287C198.532 167.197 196.647 168.549 196.629 168.566C196.568 168.61 196.49 168.619 196.42 168.601H196.411Z" fill="#131E07"/>
<path d="M208.894 171.191C208.737 172.063 208.24 172.708 207.786 172.621C207.332 172.543 207.096 171.767 207.253 170.895C207.41 170.023 207.908 169.377 208.362 169.464C208.816 169.543 209.051 170.319 208.894 171.191Z" fill="#131E07"/>
<path d="M205.795 169.848C205.752 169.831 205.708 169.805 205.682 169.761C205.603 169.656 205.63 169.508 205.734 169.43C205.822 169.369 207.899 167.877 209.811 169.142C209.916 169.212 209.951 169.36 209.881 169.464C209.811 169.569 209.663 169.604 209.558 169.534C207.917 168.444 206.031 169.796 206.014 169.813C205.953 169.857 205.874 169.866 205.804 169.848H205.795Z" fill="#131E07"/>
<path d="M205.891 179.484C200.811 181.097 199.056 176.563 199.039 176.519C198.978 176.353 199.065 176.161 199.231 176.1C199.397 176.039 199.589 176.127 199.65 176.292C199.711 176.458 201.212 180.286 205.691 178.865C205.865 178.812 206.049 178.908 206.101 179.074C206.153 179.248 206.066 179.423 205.891 179.484Z" fill="#131E07"/>
<path d="M198.332 176.196C198.41 176.196 198.489 176.179 198.559 176.127C200.235 174.836 201.37 174.897 201.378 174.897C201.562 174.906 201.71 174.775 201.727 174.592C201.736 174.417 201.605 174.261 201.431 174.243C201.378 174.243 200.06 174.147 198.157 175.612C198.017 175.725 197.991 175.926 198.096 176.074C198.157 176.153 198.236 176.196 198.323 176.196H198.332Z" fill="#AE5935"/>
<path d="M207.69 179.362C207.69 179.362 207.725 179.362 207.733 179.362C207.917 179.353 208.048 179.196 208.039 179.013C207.917 176.842 206.267 174.88 206.197 174.792C206.084 174.653 205.874 174.635 205.734 174.758C205.595 174.871 205.577 175.08 205.699 175.22C205.717 175.237 207.271 177.103 207.384 179.056C207.393 179.222 207.524 179.353 207.681 179.362H207.69Z" fill="#AE5935"/>
<path d="M202.513 161.669C204.338 161.826 206.546 161.747 208.868 161.041C209.043 160.989 209.139 160.806 209.086 160.631C209.034 160.457 208.851 160.361 208.676 160.413C203.238 162.061 198.253 160.09 198.201 160.064C198.035 159.995 197.843 160.073 197.773 160.247C197.703 160.413 197.782 160.605 197.956 160.675C198.079 160.727 199.886 161.442 202.513 161.669Z" fill="#AE5935"/>
<path d="M203.072 159.62C204.434 159.733 206.083 159.681 207.812 159.149C207.986 159.096 208.082 158.913 208.03 158.739C207.978 158.564 207.794 158.469 207.62 158.521C203.604 159.733 199.947 158.285 199.912 158.268C199.746 158.198 199.554 158.277 199.484 158.451C199.414 158.617 199.493 158.809 199.667 158.878C199.763 158.913 201.108 159.454 203.072 159.62Z" fill="#AE5935"/>
<path d="M207.856 173.458C208.275 173.545 208.737 173.502 209.243 173.336C209.418 173.284 209.514 173.101 209.453 172.926C209.401 172.752 209.217 172.656 209.043 172.717C208.475 172.9 207.986 172.891 207.611 172.682C207.061 172.386 206.878 171.767 206.869 171.758C206.817 171.583 206.642 171.488 206.468 171.531C206.293 171.583 206.188 171.758 206.241 171.932C206.249 171.967 206.494 172.822 207.288 173.249C207.463 173.345 207.655 173.415 207.847 173.45L207.856 173.458Z" fill="#AE5935"/>
<path d="M198.515 172.089C199.694 171.88 200.13 171.052 200.147 170.999C200.226 170.834 200.165 170.642 199.999 170.563C199.842 170.485 199.641 170.546 199.563 170.703C199.536 170.755 198.873 171.932 196.734 171.278C196.56 171.226 196.376 171.322 196.324 171.496C196.272 171.671 196.368 171.854 196.542 171.906C197.354 172.159 198 172.185 198.506 172.089H198.515Z" fill="#AE5935"/>
<path d="M194.107 156.262C194.107 156.262 191.549 165.087 189 166.875C186.46 168.662 184.243 164.398 184.243 164.398C184.243 164.398 189.271 150.865 194.107 156.262Z" fill="#7E7D73"/>
<path d="M205.08 156.411C205.08 156.411 200.2 163.727 193.845 162.122C187.49 160.518 191.671 155.199 191.671 155.199C191.671 155.199 203.36 150.211 205.08 156.411Z" fill="#7E7D73"/>
<path d="M203.377 155.835C203.377 155.835 206.66 165.183 212.823 163.483C218.985 161.773 210.125 152.635 205.996 153.071C201.867 153.507 203.377 155.844 203.377 155.844V155.835Z" fill="#7E7D73"/>
<g opacity="0.5">
<path d="M211.522 177.269C211.6 176.938 211.67 176.606 211.74 176.284C211.862 175.699 211.967 175.132 212.054 174.583C212.072 174.452 212.089 174.33 212.107 174.199C212.011 174.199 211.915 174.191 211.827 174.182C209.706 174.112 207.96 174.74 207.934 175.595C207.908 176.423 209.497 177.156 211.531 177.269H211.522Z" fill="#AE5935"/>
</g>
<g opacity="0.5">
<path d="M191.523 173.859C191.497 174.714 193.19 175.464 195.311 175.542C197.433 175.621 199.178 174.984 199.205 174.13C199.231 173.275 197.537 172.525 195.416 172.447C193.295 172.368 191.549 173.005 191.523 173.859Z" fill="#AE5935"/>
</g>
<path d="M200.628 163.64C200.628 163.64 198.41 162.942 196.664 164.52C195.695 165.401 196.446 166.43 197.756 165.724C198.672 165.227 199.187 165.026 200.296 164.991C201.404 164.956 201.178 163.744 200.628 163.64Z" fill="#7E7D73"/>
<path d="M207.34 164.328C207.34 164.328 209.558 163.622 211.304 165.183C212.281 166.055 211.531 167.093 210.221 166.395C209.305 165.907 208.79 165.706 207.681 165.68C206.572 165.654 206.799 164.442 207.34 164.328Z" fill="#7E7D73"/>
<path d="M187.376 167.79C187.376 167.79 185.543 164.485 182.191 165.889C178.839 167.293 180.148 178.839 186.704 177.661L187.368 167.79H187.376Z" fill="#E6A16E"/>
<path d="M190.336 164.206C190.336 164.206 192.116 174.374 189.786 173.45C187.455 172.534 186.695 166.412 186.695 166.412L190.336 164.206Z" fill="#7E7D73"/>
<path d="M185.91 173.153C185.953 173.319 185.849 173.493 185.683 173.528C185.657 173.528 185.639 173.528 185.613 173.537C185.473 173.537 185.342 173.441 185.307 173.293C185.307 173.275 185.028 172.176 184.26 171.174C183.605 171.74 183.09 172.255 183.081 172.264C183.02 172.325 182.942 172.351 182.863 172.36C182.785 172.36 182.697 172.333 182.636 172.272C182.514 172.15 182.514 171.95 182.636 171.828C182.662 171.801 183.177 171.278 183.85 170.703C183.361 170.206 182.724 169.796 181.912 169.621C181.746 169.587 181.632 169.421 181.676 169.255C181.711 169.081 181.877 168.976 182.043 169.011C185.046 169.648 185.884 173.005 185.919 173.144L185.91 173.153Z" fill="#131E07"/>
<path d="M202.443 181.856C202.583 181.838 202.67 181.821 202.688 181.821C202.862 181.786 202.976 181.611 202.932 181.437C202.897 181.263 202.723 181.149 202.548 181.193C202.496 181.202 201.361 181.437 200.601 180.521C200.427 180.303 200.025 180.382 200.008 180.809C200.793 181.882 201.946 181.908 202.443 181.864V181.856Z" fill="#AE5935"/>
<path d="M203.971 175.185C203.727 175.211 203.456 175.22 203.177 175.185C203.159 175.185 203.142 175.176 203.124 175.159C202.801 174.784 203.072 174.391 203.404 174.417C204.259 174.487 204.87 174.077 205.176 173.807C203.919 172.159 203.168 167.991 203.133 167.808C203.098 167.59 203.238 167.389 203.456 167.354C203.674 167.319 203.875 167.459 203.91 167.677C204.137 168.976 204.957 172.551 205.979 173.545C206.118 173.685 206.136 173.912 206.014 174.069C205.979 174.112 205.254 175.054 203.962 175.202L203.971 175.185Z" fill="#AE5935"/>
<path d="M197.45 173.851C195.119 173.048 193.88 170.511 194.683 168.191C195.486 165.872 198.026 164.625 200.348 165.427C202.679 166.229 203.919 168.767 203.115 171.086C202.312 173.415 199.772 174.653 197.45 173.851ZM200.139 166.038C198.148 165.357 195.983 166.412 195.294 168.401C194.613 170.389 195.669 172.551 197.66 173.24C199.65 173.92 201.815 172.865 202.504 170.877C203.185 168.889 202.129 166.726 200.139 166.038Z" fill="white"/>
<path d="M194.91 168.776C195.006 168.776 195.093 168.749 195.163 168.68C195.294 168.549 195.294 168.348 195.163 168.218C195.102 168.156 193.583 166.639 190.728 166.674C190.545 166.674 190.405 166.822 190.405 167.005C190.405 167.189 190.554 167.328 190.737 167.328C193.312 167.302 194.683 168.662 194.7 168.68C194.761 168.741 194.831 168.767 194.91 168.776Z" fill="white"/>
<path d="M207.864 174.609C205.533 173.807 204.294 171.27 205.097 168.95C205.9 166.622 208.44 165.384 210.762 166.186C213.093 166.988 214.333 169.526 213.53 171.845C212.726 174.173 210.186 175.412 207.864 174.609ZM210.553 166.796C208.563 166.116 206.398 167.171 205.708 169.159C205.027 171.147 206.083 173.31 208.074 173.999C210.064 174.688 212.229 173.624 212.919 171.636C213.608 169.648 212.543 167.485 210.553 166.796Z" fill="white"/>
<path d="M203.159 169.229C203.107 169.203 203.063 169.168 203.028 169.116C202.923 168.967 202.967 168.767 203.115 168.662C203.159 168.636 204.224 167.93 205.376 168.758C205.525 168.863 205.56 169.063 205.455 169.212C205.35 169.36 205.149 169.395 205.001 169.29C204.207 168.723 203.491 169.194 203.482 169.203C203.386 169.273 203.255 169.273 203.159 169.229Z" fill="white"/>
<path d="M266.674 357.782L269.048 371.428L282.308 367.496L279.733 354.974L266.674 357.782Z" fill="#E6A16E"/>
<path d="M310.679 380.244L270.035 387.395C269.633 386.898 269.337 386.148 269.101 385.232C268.245 381.84 268.368 376.172 268.298 372.614C268.298 372.196 268.28 371.812 268.263 371.463C268.237 370.87 268.193 370.382 268.132 370.033C267.634 367.208 268.787 367.722 268.787 367.722C271.327 367.818 274.033 368.246 275.665 367.426C276.661 366.929 277.595 366.284 278.476 365.778C279.628 365.115 280.693 364.705 281.706 365.202C281.706 365.202 283.024 365.83 286.76 368.167C289.816 370.077 294.268 371.053 298.536 371.969C299.488 372.17 300.431 372.37 301.347 372.579C307.292 373.914 309.596 375.893 310.426 377.498C310.504 377.637 310.565 377.785 310.618 377.916C311.124 379.242 310.679 380.227 310.679 380.227V380.244Z" fill="#2D4446"/>
<path d="M310.679 380.244L270.035 387.395C269.633 386.898 269.337 386.148 269.101 385.232L310.417 377.506C310.496 377.646 310.557 377.794 310.609 377.925C311.115 379.25 310.67 380.236 310.67 380.236L310.679 380.244Z" fill="#527676"/>
<path d="M298.545 371.978C298.589 372.85 297.995 373.957 293.386 373.033C286.944 371.751 280.597 368.751 278.485 365.787C279.637 365.124 280.702 364.714 281.715 365.211C281.715 365.211 283.033 365.839 286.769 368.176C289.824 370.086 294.276 371.062 298.545 371.978Z" fill="#E6A16E"/>
<path d="M281.811 359.124L266.692 363.197C266.692 363.197 263.985 352.305 259.935 342.086C259.813 341.78 259.691 341.475 259.56 341.17C258.46 338.458 257.264 335.816 256.007 333.47C255.893 333.261 255.78 333.052 255.666 332.842C255.57 332.677 255.483 332.511 255.387 332.345C249.73 322.413 246.352 302.279 246.352 302.279L191.61 280.426C191.61 280.426 210.326 277.81 220.836 268.785C220.836 268.785 225.044 269.806 230.927 271.584C231.233 271.672 231.547 271.776 231.861 271.863C240.311 274.445 251.773 278.464 259.324 283.156C259.577 283.322 259.83 283.47 260.075 283.635C262.292 285.074 264.125 286.583 265.373 288.118C265.4 288.144 265.417 288.17 265.435 288.196C265.548 288.336 265.662 288.492 265.775 288.658C269.738 294.239 273.535 310.31 276.442 325.701C276.495 325.962 276.538 326.215 276.591 326.477C277.656 332.162 278.59 337.717 279.367 342.6C279.41 342.844 279.445 343.088 279.48 343.324C280.938 352.541 281.802 359.133 281.802 359.133L281.811 359.124Z" fill="#D5963D"/>
<path d="M260.083 283.635C254.907 285.031 249.329 284.856 244.274 282.947C238.67 280.828 233.921 276.747 230.945 271.584C231.25 271.672 231.564 271.776 231.879 271.863C234.794 276.59 239.229 280.348 244.449 282.319C249.207 284.115 254.435 284.35 259.333 283.156C259.586 283.322 259.839 283.47 260.083 283.635Z" fill="#ECB46B"/>
<path d="M276.599 326.468C274.784 325.692 273.16 324.515 271.947 322.841C270.96 321.472 270.323 319.858 270.218 318.167C270.096 316.248 270.637 314.373 271.074 312.534C271.58 310.397 271.982 308.156 271.048 306.072C270.34 304.502 269.101 303.264 267.887 302.087C265.496 299.759 263.051 297.387 263.008 293.812C262.982 291.606 263.889 289.6 265.382 288.126C265.408 288.152 265.426 288.179 265.443 288.205C265.557 288.344 265.67 288.501 265.784 288.667C263.601 290.917 262.947 294.44 264.623 297.396C266.098 299.994 268.734 301.642 270.524 303.988C272.47 306.534 272.479 309.333 271.781 312.359C271.37 314.155 270.812 315.952 270.855 317.818C270.89 319.719 271.65 321.515 272.855 322.971C273.85 324.175 275.08 325.073 276.442 325.709C276.495 325.971 276.538 326.224 276.591 326.486L276.599 326.468Z" fill="#ECB46B"/>
<path d="M261.035 327.497C259.691 329.747 257.534 331.369 256.007 333.47C255.893 333.261 255.78 333.052 255.666 332.842C256.932 331.203 258.564 329.86 259.795 328.168C261.524 325.805 262.423 322.875 262.397 319.954C262.353 314.164 258.381 309.028 252.908 307.249C252.506 307.118 252.681 306.491 253.082 306.621C258.486 308.365 262.536 313.231 263.008 318.925C263.252 321.89 262.554 324.942 261.026 327.497H261.035Z" fill="#ECB46B"/>
<path d="M279.489 343.315C279.271 343.245 279.052 343.167 278.834 343.088C276.05 342.059 273.789 340.228 271.257 338.746C268.464 337.115 264.745 336.104 262.082 338.545C261.009 339.531 260.345 340.76 259.935 342.086C259.813 341.78 259.691 341.475 259.56 341.17C259.918 340.263 260.398 339.417 261.061 338.65C262.973 336.461 265.801 335.999 268.507 336.801C271.676 337.734 274.12 340.08 277.001 341.58C277.769 341.972 278.555 342.312 279.367 342.591C279.41 342.836 279.445 343.08 279.48 343.315H279.489Z" fill="#ECB46B"/>
<path d="M268.699 358.427C267.887 355.192 269.808 351.861 273.116 351.146C276.303 350.457 279.332 352.541 280.074 355.654C280.17 356.064 280.807 355.889 280.702 355.48C279.873 352.018 276.46 349.742 272.942 350.509C269.284 351.311 267.172 355.026 268.071 358.601C268.176 359.011 268.804 358.837 268.699 358.427Z" fill="#ECB46B"/>
<path d="M218.357 279.964C220.016 277.601 223.08 276.372 225.917 277.069C228.745 277.767 230.866 280.348 231.198 283.199C231.25 283.609 231.905 283.618 231.853 283.199C231.486 280.052 229.225 277.226 226.091 276.441C222.966 275.648 219.623 277.034 217.798 279.633C217.554 279.982 218.121 280.304 218.366 279.964H218.357Z" fill="#ECB46B"/>
<path d="M266.046 359.648C266.107 359.648 266.168 359.648 266.22 359.63L280.851 355.985C281.139 355.916 281.322 355.619 281.252 355.323C281.182 355.035 280.886 354.852 280.589 354.921L265.958 358.566C265.67 358.636 265.487 358.933 265.557 359.229C265.618 359.465 265.81 359.622 266.037 359.639L266.046 359.648Z" fill="#A36A24"/>
<path d="M236.051 361.4L235.929 375.256L249.678 373.765L249.407 360.982L236.051 361.4Z" fill="#E6A16E"/>
<path d="M275.299 391.406L234.035 391.136C233.729 390.578 233.572 389.784 233.502 388.842C233.267 385.354 234.419 379.8 234.986 376.294C235.056 375.884 235.117 375.501 235.161 375.152C235.239 374.568 235.292 374.079 235.292 373.722C235.309 370.853 236.348 371.568 236.348 371.568C238.827 372.117 241.411 373.024 243.166 372.518C244.231 372.213 245.27 371.734 246.23 371.402C247.487 370.958 248.604 370.748 249.512 371.42C249.512 371.42 250.699 372.274 253.955 375.248C256.618 377.672 260.825 379.433 264.85 381.108C265.749 381.474 266.639 381.84 267.503 382.206C273.108 384.587 275.019 386.95 275.543 388.677C275.595 388.834 275.63 388.982 275.657 389.121C275.918 390.516 275.307 391.406 275.307 391.406H275.299Z" fill="#2D4446"/>
<path d="M275.299 391.406L234.035 391.136C233.729 390.578 233.572 389.784 233.502 388.842L275.543 388.668C275.595 388.825 275.63 388.973 275.657 389.113C275.918 390.508 275.307 391.397 275.307 391.397L275.299 391.406Z" fill="#527676"/>
<path d="M264.85 381.09C264.736 381.962 263.95 382.939 259.577 381.204C253.475 378.788 247.766 374.698 246.221 371.394C247.478 370.949 248.595 370.74 249.503 371.411C249.503 371.411 250.691 372.266 253.947 375.239C256.609 377.663 260.817 379.425 264.841 381.099L264.85 381.09Z" fill="#E6A16E"/>
<path d="M253.266 319.562C253.266 319.806 253.266 320.05 253.266 320.294C253.239 328.552 252.855 337.29 252.393 344.954C252.375 345.268 252.358 345.582 252.34 345.888C252.209 348.05 252.07 350.108 251.93 352.044C251.913 352.262 251.895 352.48 251.886 352.689C251.275 361.148 250.682 366.972 250.682 366.972L234.812 369.527C234.812 369.527 231.477 359.037 229.303 344.78C227.13 330.523 225.995 310.074 225.995 310.074C218.636 311.321 177.433 314.365 168.564 300.77C160.979 289.138 163.763 278.308 163.763 278.308C163.763 278.308 168.372 278.255 175.469 278.386C175.705 278.386 175.941 278.395 176.185 278.395C179.04 278.456 182.27 278.543 185.744 278.674C185.971 278.682 186.198 278.691 186.433 278.7C194.98 279.04 204.931 279.642 214.429 280.723C214.664 280.749 214.891 280.775 215.127 280.801C232.507 282.833 248.194 286.496 250.664 293.079C251.598 295.573 252.244 299.14 252.655 303.386C252.672 303.596 252.698 303.805 252.716 304.023C253.135 308.618 253.301 313.964 253.301 319.553L253.266 319.562Z" fill="#D5963D"/>
<path d="M170.729 295.373C170.38 295.608 170.057 295.041 170.398 294.806C175.81 291.108 177.721 284.237 175.443 278.395C175.679 278.395 175.915 278.403 176.159 278.403C178.402 284.481 176.316 291.544 170.729 295.364V295.373Z" fill="#ECB46B"/>
<path d="M211.365 304.389C211.365 304.816 210.71 304.808 210.71 304.389C210.684 300.753 209.383 297.169 206.948 294.448C204.922 292.181 202.199 290.585 199.239 289.888C196.298 289.19 193.103 289.931 190.283 288.745C186.25 287.054 184.469 282.563 185.726 278.682C185.953 278.691 186.18 278.7 186.416 278.709C185.377 281.639 186.163 284.996 188.729 287.062C191.881 289.6 196.079 288.388 199.746 289.338C206.581 291.117 211.321 297.361 211.365 304.389Z" fill="#ECB46B"/>
<path d="M180.035 302.915C180.803 298.154 185.368 294.858 190.152 295.922C195.041 297.012 197.494 301.956 199.449 306.063C199.632 306.447 200.191 306.116 200.016 305.732C197.869 301.241 195.058 295.887 189.55 295.155C184.661 294.501 180.183 297.91 179.398 302.741C179.328 303.151 179.965 303.334 180.026 302.915H180.035Z" fill="#ECB46B"/>
<path d="M250.603 293.585C248.272 295.966 244.781 294.806 242.336 293.28C240.852 292.347 239.447 291.318 237.832 290.611C235.999 289.809 234.017 289.347 232.018 289.242C228.308 289.042 224.721 290.734 221.028 290.306C218.313 289.992 215.851 288.283 214.621 285.842C213.826 284.263 213.573 282.249 214.411 280.723C214.647 280.749 214.874 280.775 215.109 280.801C214.254 282.057 214.437 283.871 215.048 285.231C215.747 286.801 217.012 288.1 218.54 288.885C222.233 290.786 226.318 288.815 230.15 288.588C233.642 288.388 237.16 289.277 240.154 291.082C242.904 292.739 247.103 296.227 250.149 293.114C250.446 292.818 250.909 293.271 250.612 293.576L250.603 293.585Z" fill="#ECB46B"/>
<path d="M216.497 304.904C218.715 300.334 223.542 297.492 228.657 298.041C231.163 298.311 234.454 299.427 234.585 302.418C234.716 305.374 232.158 307.397 230.037 309.011C229.705 309.264 230.037 309.83 230.368 309.577C232.603 307.877 235.152 305.837 235.239 302.767C235.318 300.003 233.04 298.372 230.595 297.736C224.72 296.201 218.566 299.174 215.939 304.581C215.755 304.956 216.323 305.287 216.506 304.912L216.497 304.904Z" fill="#ECB46B"/>
<path d="M253.266 319.562C253.266 319.806 253.266 320.05 253.266 320.294C253.231 320.294 253.196 320.277 253.152 320.251C249.154 317.896 244.152 314.635 244.475 309.316C244.72 305.278 248.805 302.645 252.628 303.395C252.646 303.604 252.672 303.814 252.689 304.032C252.637 304.049 252.585 304.049 252.524 304.032C248.648 303.238 244.781 306.281 245.156 310.319C245.566 314.827 249.73 317.46 253.283 319.553L253.266 319.562Z" fill="#ECB46B"/>
<path d="M252.393 344.963C252.375 345.277 252.358 345.591 252.34 345.896C251.406 344.719 250.996 343.01 250.699 341.554C250.298 339.592 249.73 338.005 247.976 336.888C246.605 336.016 245.304 335.354 244.283 334.037C242.057 331.186 241.69 327.497 240.372 324.236C239.045 320.966 235.458 317.129 231.678 319.571C231.32 319.797 230.997 319.23 231.346 319.004C234 317.295 237.282 318.533 239.142 320.8C241.507 323.686 241.848 327.497 243.218 330.846C243.978 332.694 245.086 334.368 246.815 335.45C248.124 336.269 249.521 336.897 250.324 338.292C251.275 339.94 251.293 343.027 252.393 344.954V344.963Z" fill="#ECB46B"/>
<path d="M231.73 331.386C236.61 333.139 240.8 336.941 241.795 342.19C242.738 347.178 240.11 352.497 235.091 353.988C234.689 354.11 234.864 354.738 235.266 354.616C240.355 353.099 243.236 347.858 242.546 342.722C241.76 336.915 237.238 332.668 231.905 330.75C231.512 330.61 231.337 331.238 231.73 331.377V331.386Z" fill="#ECB46B"/>
<path d="M251.921 352.053C251.904 352.271 251.886 352.489 251.878 352.698C250.114 352.68 248.377 353.151 246.858 354.241C243.803 356.439 242.86 360.72 245.217 363.79C245.479 364.121 244.903 364.444 244.65 364.121C242.171 360.912 243.096 356.352 246.204 353.919C247.897 352.593 249.896 352.026 251.921 352.053Z" fill="#ECB46B"/>
<path d="M234.445 366.536C234.489 366.536 234.541 366.536 234.585 366.536L250.289 363.825C250.586 363.772 250.787 363.493 250.734 363.197C250.682 362.9 250.402 362.7 250.106 362.752L234.401 365.464C234.105 365.516 233.904 365.795 233.956 366.092C234 366.345 234.209 366.519 234.445 366.545V366.536Z" fill="#A36A24"/>
<path d="M253.562 327.078C253.562 327.078 253.589 327.078 253.597 327.078C253.903 327.078 254.147 326.843 254.156 326.547C254.182 325.23 254.706 294.169 248.849 288.789C243.157 283.557 212.779 279.11 211.496 278.927C211.199 278.883 210.919 279.092 210.876 279.389C210.832 279.685 211.042 279.964 211.338 280.008C211.653 280.052 242.668 284.595 248.115 289.591C253.615 294.64 253.074 326.206 253.065 326.52C253.065 326.808 253.283 327.052 253.562 327.07V327.078Z" fill="#A36A24"/>
<path d="M236.427 365.664C236.427 365.664 236.514 365.664 236.558 365.664C236.854 365.621 237.064 365.342 237.012 365.045C236.994 364.941 235.423 354.799 233.083 341.187C230.753 327.628 230.77 304.284 230.77 304.049C230.77 303.892 230.7 303.744 230.587 303.639C230.473 303.534 230.316 303.491 230.159 303.508C229.845 303.543 198.934 307.275 182.488 303.116C175.74 301.416 170.982 296.846 168.329 289.548C166.33 284.054 166.347 278.988 166.347 278.935C166.347 278.63 166.103 278.386 165.806 278.386C165.5 278.386 165.256 278.621 165.256 278.927C165.256 279.136 165.23 284.211 167.29 289.888C170.031 297.457 175.199 302.401 182.217 304.171C197.563 308.043 225.218 305.156 229.679 304.659C229.696 308.453 229.871 328.962 232.01 341.371C234.349 354.974 235.92 365.115 235.938 365.211C235.973 365.464 236.182 365.647 236.427 365.673V365.664Z" fill="#A36A24"/>
<path d="M161.956 199.793C161.476 203.106 161.075 206.368 160.717 209.638C160.368 212.908 160.053 216.186 159.8 219.482C159.669 221.13 159.556 222.779 159.451 224.435C159.355 226.092 159.268 227.749 159.198 229.414C159.049 232.754 158.971 236.111 159.006 239.538C159.023 241.256 159.067 242.983 159.145 244.744C159.224 246.506 159.346 248.302 159.556 250.159C159.765 252.025 160.027 253.944 160.507 256.08C160.752 257.153 161.04 258.278 161.476 259.542C161.694 260.179 161.956 260.841 162.288 261.574C162.62 262.306 163.03 263.1 163.597 263.981C163.877 264.417 164.217 264.887 164.601 265.376C164.811 265.629 165.003 265.864 165.247 266.126C165.37 266.256 165.474 266.379 165.614 266.509C165.745 266.64 165.885 266.771 166.015 266.902C166.583 267.425 167.229 267.948 168.023 268.445C168.215 268.567 168.425 268.689 168.634 268.803L168.94 268.968L169.036 269.012L169.42 269.195L170.197 269.561C170.467 269.683 170.756 269.797 171.035 269.919C171.576 270.154 172.205 270.372 172.798 270.59C173.104 270.695 173.418 270.791 173.724 270.887L174.186 271.026L174.649 271.148C174.954 271.227 175.277 271.305 175.574 271.366L176.456 271.541C176.604 271.576 176.744 271.593 176.875 271.611L177.285 271.672L177.695 271.733L178.071 271.785L178.804 271.881L179.467 271.951L183.972 272.36C185.386 272.491 186.809 272.674 188.275 272.814L188.572 272.84C193.705 273.346 198.271 269.605 198.786 264.486C199.222 260.144 196.586 256.202 192.649 254.79C190.99 254.197 189.288 253.682 187.542 253.22L186.241 252.897C185.814 252.793 185.377 252.688 184.95 252.601L182.558 252.086L182.025 251.973L181.571 251.868L181.353 251.816L181.17 251.764L180.986 251.712C180.925 251.694 180.864 251.677 180.821 251.659L180.532 251.563C180.436 251.528 180.375 251.494 180.297 251.467L180.183 251.424L180.079 251.371C180.009 251.337 179.939 251.31 179.869 251.276C179.721 251.197 179.581 251.145 179.406 251.04L179.144 250.901L178.848 250.726L178.699 250.639L178.664 250.622L178.839 250.717C178.961 250.778 179.083 250.866 179.188 250.927C179.633 251.214 179.974 251.476 180.244 251.738C180.305 251.799 180.375 251.86 180.428 251.921L180.585 252.086C180.69 252.2 180.768 252.287 180.847 252.383C180.986 252.549 181.091 252.697 181.152 252.793L181.24 252.924L181.292 253.011C181.292 253.011 181.309 253.046 181.318 253.063C181.318 253.063 181.318 253.072 181.327 253.081C181.327 253.081 181.301 252.993 181.266 252.871C181.187 252.618 181.082 252.182 180.986 251.694C180.794 250.691 180.628 249.427 180.524 248.11C180.305 245.442 180.227 242.503 180.262 239.53C180.271 238.039 180.314 236.53 180.358 235.013C180.402 233.495 180.471 231.969 180.55 230.435C180.628 228.9 180.725 227.365 180.829 225.822C180.934 224.278 181.047 222.735 181.17 221.183C181.423 218.087 181.702 214.983 182.016 211.879C182.331 208.783 182.671 205.67 183.038 202.627V202.6C183.745 196.784 179.598 191.491 173.776 190.785C168.041 190.087 162.812 194.116 161.983 199.793H161.956Z" fill="#0055A6"/>
<path d="M194.517 259.969C194.517 259.969 194.438 259.969 194.403 259.961C187.699 258.496 180.454 252.252 180.148 251.982C180.07 251.912 180.009 251.816 179.983 251.72C178.045 244.814 179.092 212.96 179.136 211.608C179.145 211.312 179.398 211.068 179.703 211.085C180 211.094 180.244 211.347 180.227 211.652C180.218 211.983 179.153 244.186 180.995 251.276C181.99 252.113 188.677 257.598 194.648 258.906C194.945 258.967 195.128 259.263 195.067 259.551C195.015 259.804 194.788 259.978 194.534 259.978L194.517 259.969Z" fill="#20384C"/>
<path d="M190.816 265.48C190.1 268.384 192.02 271.262 194.901 272.073C196.42 272.5 198.052 273.11 199.17 273.939C201.858 275.936 204.477 279.04 206.118 279.668C208.545 280.592 207.489 278.002 207.314 277.697C206.197 275.753 204.189 273.346 204.189 273.346C204.189 273.346 208.781 276.703 209.924 278.63C211.068 280.557 213.058 280.854 213.023 278.447C212.988 276.04 208.702 271.288 207.157 270.294C207.157 270.294 210.527 271.637 212.159 274.192C213.791 276.747 214.717 277.444 215.808 278.02C216.899 278.587 217.816 276.302 215.45 272.788C213.084 269.274 211.286 268.524 209.47 267.547C209.47 267.547 211.138 267.73 213.748 268.62C216.358 269.509 218.008 272.613 219.64 272.404C221.316 272.195 219.256 268.698 217.257 267.277C215.258 265.855 213.922 264.652 210.876 263.946C207.821 263.239 204.879 262.664 202.95 262.673C201.02 262.681 194.15 261.835 191.933 263.518C191.366 263.946 191.025 264.661 190.816 265.489V265.48Z" fill="#E6A16E"/>
<path d="M197.712 263.257C197.712 263.257 203.246 261.225 205.21 261.574C207.175 261.914 210.308 261.391 210.195 262.725C210.073 264.059 206.197 264.6 206.197 264.6L197.721 263.266L197.712 263.257Z" fill="#E6A16E"/>
<path d="M170.022 253.874C170.083 253.874 170.145 253.874 170.206 253.848C170.258 253.83 175.574 252.008 179.852 252.296C180.096 252.313 180.297 252.13 180.314 251.886C180.332 251.65 180.157 251.441 179.913 251.424C175.461 251.127 170.145 252.95 169.926 253.02C169.699 253.098 169.577 253.351 169.656 253.578C169.717 253.743 169.865 253.857 170.031 253.865L170.022 253.874Z" fill="#20384C"/>
<path d="M177.032 252.357C177.137 252.366 177.25 252.339 177.338 252.27C177.53 252.121 177.565 251.851 177.416 251.659C176.465 250.438 173.994 249.218 173.889 249.165C173.671 249.061 173.409 249.148 173.305 249.366C173.2 249.584 173.287 249.845 173.505 249.95C173.532 249.959 175.897 251.127 176.726 252.191C176.805 252.287 176.919 252.348 177.032 252.357Z" fill="#20384C"/>
<path d="M266.68 280.344L192.664 280.138C192.315 280.137 192.028 279.848 192.029 279.499L192.044 274.163C192.045 273.814 192.334 273.527 192.683 273.528L269.649 273.742C269.999 273.743 270.286 274.032 270.285 274.381L270.278 276.761C270.273 278.741 268.662 280.35 266.672 280.344L266.68 280.344Z" fill="#DBC8B1"/>
<path d="M213.346 280.2L267.573 280.348C268.856 280.348 270.017 279.607 270.559 278.456L285.46 246.279C286.455 244.125 284.875 241.657 282.492 241.649L228.265 241.5C226.982 241.5 225.821 242.242 225.279 243.393L210.378 275.569C209.383 277.723 210.963 280.191 213.346 280.2Z" fill="white"/>
<path d="M246.108 260.92C246.108 263.51 248.203 265.611 250.804 265.62C253.405 265.62 255.518 263.536 255.527 260.946C255.527 258.356 253.432 256.255 250.83 256.246C248.229 256.246 246.116 258.33 246.108 260.92Z" fill="#131E07"/>
</g>
<defs>
<clipPath id="clip0_21_1122">
<rect width="342" height="436" rx="20" fill="white"/>
</clipPath>
</defs>
</svg>
